<?xml version="1.0" encoding="utf-8"?>
<!-- Generator: Adobe Illustrator 22.0.1, SVG Export Plug-In . SVG Version: 6.00 Build 0)  -->
<svg version="1.1" id="Layer_1" xmlns="http://www.w3.org/2000/svg" xmlns:xlink="http://www.w3.org/1999/xlink" x="0px" y="0px"
	 viewBox="0 0 100 102" style="enable-background:new 0 0 100 102;" xml:space="preserve">
<style type="text/css">
	.st0{fill-rule:evenodd;clip-rule:evenodd;}
</style>
<path class="st0" d="M40.6,74.6L40.6,74.6c35.4-21,35.4-21,35.4-21c1-1.1,2.1-2.1,2.1-3.1c0-1-1-2.1-2.1-2.1
	c-35.4-21-35.4-21-35.4-21c-1-1.1-2.1-1.1-3.1,0c-1,0-2.1,1-2.1,3.1c0,29.4,0,29.4,0,29.4c0,2.1,2.1,4.2,4.2,4.2
	c1,0,3.1-2.1,3.1-4.2c0-24.1,0-24.1,0-24.1c26,14.7,26,14.7,26,14.7C37.5,68.3,37.5,68.3,37.5,68.3c-1,1.1-2.1,3.2-1,5.3
	c0,1,2.1,1,3.1,1H40.6z M50,6.3L50,6.3c-23.9,0-43.7,20-43.7,44.2c0,24.2,19.8,44.2,43.7,44.2s43.7-20,43.7-44.2
	C93.7,26.3,73.9,6.3,50,6.3z M50,102L50,102C22.9,102,0,78.8,0,50.5C0,23.2,22.9,0,50,0c28.1,0,50,23.2,50,50.5
	C100,78.8,78.1,102,50,102z"/>
</svg>
