<?xml version="1.0" encoding="UTF-8"?>
<svg width="25px" height="25px" viewBox="0 0 25 25" version="1.1" xmlns="http://www.w3.org/2000/svg" xmlns:xlink="http://www.w3.org/1999/xlink">
    <!-- Generator: Sketch 52.4 (67378) - http://www.bohemiancoding.com/sketch -->
    <title>Page 1</title>
    <desc>Created with Sketch.</desc>
    <g id="Symbols" stroke="none" stroke-width="1" fill="none" fill-rule="evenodd">
        <g id="rodape" transform="translate(-135.000000, -18.000000)" fill="#FFFFFF">
            <g id="Page-1">
                <path d="M147.495255,18 L146.849478,18.013587 L146.220875,18.0634058 L145.601761,18.1490036 L144.983099,18.2536232 L144.390647,18.3894928 L143.785091,18.5566123 L143.202581,18.7563406 L142.633177,18.9827899 L142.081398,19.236413 L141.548146,19.5172101 L141.019414,19.8161232 L140.513277,20.1331522 L140.020697,20.4723732 L139.555232,20.8668478 L139.090219,21.2563406 L138.674464,21.6594203 L138.244699,22.102808 L137.851539,22.5561594 L137.485494,23.0271739 L137.146563,23.5163043 L136.81667,24.0230978 L136.513892,24.5398551 L136.224671,25.0969203 L135.985611,25.6403986 L135.768244,26.2065217 L135.556299,26.7862319 L135.39316,27.379529 L135.267078,27.986413 L135.153649,28.5932971 L135.063719,29.2228261 L135.013557,29.8564312 L135,30.486413 L135.013557,31.129529 L135.063719,31.7771739 L135.153649,32.4067029 L135.267078,33.013587 L135.39316,33.620471 L135.556299,34.2001812 L135.768244,34.7934783 L135.985611,35.3500906 L136.224671,35.9030797 L136.513892,36.432971 L136.81667,36.9628623 L137.146563,37.4701087 L137.485494,37.9637681 L137.851539,38.4438406 L138.244699,38.8967391 L138.674464,39.3269928 L139.090219,39.7436594 L139.555232,40.1331522 L140.020697,40.4995471 L140.513277,40.852808 L141.019414,41.1834239 L141.548146,41.4827899 L142.081398,41.7631341 L142.633177,42.0036232 L143.202581,42.2300725 L143.785091,42.4202899 L144.390647,42.6100543 L144.983099,42.732337 L145.601761,42.8505435 L146.220875,42.9230072 L146.849478,42.9728261 L147.495255,43 L148.150973,42.9728261 L148.778674,42.9230072 L149.397787,42.8505435 L150.016901,42.732337 L150.608901,42.6100543 L151.214457,42.4202899 L151.784313,42.2300725 L152.366823,42.0036232 L152.918602,41.7631341 L153.451402,41.4827899 L153.980134,41.1834239 L154.486271,40.852808 L154.978851,40.4995471 L155.444316,40.1331522 L155.909781,39.7436594 L156.325536,39.3269928 L156.754849,38.8967391 L157.148461,38.4438406 L157.514054,37.9637681 L157.852985,37.4701087 L158.182878,36.9628623 L158.486108,36.432971 L158.775329,35.9030797 L159.014841,35.3500906 L159.231305,34.7934783 L159.444153,34.2001812 L159.606388,33.620471 L159.732922,33.013587 L159.845899,32.4067029 L159.936281,31.7771739 L159.985991,31.129529 L160,30.486413 L159.985991,29.8564312 L159.936281,29.2228261 L159.845899,28.5932971 L159.732922,27.986413 L159.606388,27.379529 L159.444153,26.7862319 L159.231305,26.2065217 L159.014841,25.6403986 L158.775329,25.0969203 L158.486108,24.5398551 L158.182878,24.0230978 L157.852985,23.5163043 L157.514054,23.0271739 L157.148461,22.5561594 L156.754849,22.102808 L156.325536,21.6594203 L155.909781,21.2563406 L155.444316,20.8668478 L154.978851,20.4723732 L154.486271,20.1331522 L153.980134,19.8161232 L153.451402,19.5172101 L152.918602,19.236413 L152.366823,18.9827899 L151.784313,18.7563406 L151.214457,18.5566123 L150.608901,18.3894928 L150.016901,18.2536232 L149.397787,18.1490036 L148.778674,18.0634058 L148.150973,18.013587 L147.495255,18 Z M145.374846,36.5208667 L144.306204,36.5117893 L143.22813,36.4709411 L142.149606,36.4210156 L141.093992,36.3706361 L140.056794,36.2934784 L139.036666,36.1940812 L138.74918,36.1577717 L138.497629,36.09423 L138.398806,36.0533819 L138.299982,36.0170724 L138.210592,35.9807629 L138.124795,35.9172212 L138.061907,35.8536796 L137.985544,35.7765219 L137.923105,35.6857481 L137.873244,35.5995131 L137.823832,35.4860459 L137.79733,35.3585088 L137.769929,35.2182633 L137.747469,35.0548705 L137.698057,34.4875346 L137.644603,33.8788965 L137.621694,33.2983984 L137.608667,32.6988377 L137.594742,32.0956461 L137.586207,31.487462 L137.586207,30.89244 L137.586207,30.2710936 L137.586207,29.6760717 L137.586207,29.0588101 L137.594742,28.4646959 L137.608667,27.8565117 L137.621694,27.271021 L137.644603,26.6673755 L137.698057,26.0814309 L137.747469,25.4873167 L137.769929,25.33754 L137.79733,25.2104568 L137.823832,25.0833735 L137.873244,24.9699063 L137.923105,24.8836712 L137.985544,24.7788276 L138.061907,24.7157398 L138.124795,24.6431208 L138.210592,24.5886565 L138.299982,24.538731 L138.398806,24.4888054 L138.497629,24.466112 L138.74918,24.4116477 L139.036666,24.3753382 L140.056794,24.2754871 L141.093992,24.1978755 L142.149606,24.1347878 L143.22813,24.0848622 L144.306204,24.0576301 L145.374846,24.0344828 L146.45292,24.0344828 L147.495059,24.0344828 L148.546181,24.0344828 L149.624256,24.0344828 L150.693346,24.0576301 L151.771421,24.0848622 L152.849945,24.1347878 L153.90511,24.1978755 L154.943206,24.2754871 L155.962435,24.3753382 L156.249922,24.4116477 L156.47497,24.466112 L156.58682,24.4888054 L156.69912,24.538731 L156.789408,24.5886565 L156.874307,24.6431208 L156.937194,24.7157398 L157.014007,24.7788276 L157.076446,24.8836712 L157.126307,24.9699063 L157.175269,25.0833735 L157.20267,25.2104568 L157.229173,25.33754 L157.251633,25.4873167 L157.301044,26.0814309 L157.354948,26.6673755 L157.377857,27.271021 L157.390884,27.8565117 L157.40436,28.4646959 L157.413793,29.0588101 L157.413793,29.6760717 L157.413793,30.2710936 L157.413793,30.89244 L157.413793,31.487462 L157.40436,32.0956461 L157.390884,32.6988377 L157.377857,33.2983984 L157.354948,33.8788965 L157.301044,34.4875346 L157.251633,35.0548705 L157.229173,35.2182633 L157.20267,35.3585088 L157.175269,35.4860459 L157.126307,35.5995131 L157.076446,35.6857481 L157.014007,35.7765219 L156.937194,35.8536796 L156.874307,35.9172212 L156.789408,35.9807629 L156.69912,36.0170724 L156.58682,36.0533819 L156.47497,36.09423 L156.249922,36.1577717 L155.962435,36.1940812 L154.943206,36.2934784 L153.90511,36.3706361 L152.849945,36.4210156 L151.771421,36.4709411 L150.693346,36.5117893 L149.624256,36.5208667 L148.546181,36.5344828 L147.495059,36.5344828 L146.45292,36.5344828 L145.374846,36.5208667 Z M147.224353,25.3414843 L146.966192,25.3553824 L146.708492,25.3924441 L146.451252,25.4295057 L146.197693,25.4943635 L145.963002,25.5592214 L145.719107,25.6375141 L145.475672,25.7398968 L145.258927,25.846449 L145.038041,25.9483685 L144.808412,26.0780842 L144.600871,26.2166021 L144.398392,26.346781 L144.205117,26.5038297 L144.025647,26.670607 L143.846177,26.8373844 L143.675911,27.0185231 L143.510247,27.2130967 L143.353786,27.4211051 L143.201927,27.6161419 L143.073076,27.8199809 L142.958032,28.0423506 L142.842987,28.2596244 L142.727942,28.4917229 L142.649712,28.7233581 L142.557676,28.9549933 L142.493251,29.2139614 L142.442631,29.459958 L142.378666,29.7189261 L142.355197,29.9644594 L142.327586,30.2336195 L142.327586,30.4930509 L142.327586,30.7663805 L142.355197,31.0258119 L142.378666,31.2940454 L142.442631,31.540042 L142.493251,31.7994734 L142.557676,32.0311086 L142.649712,32.29054 L142.727942,32.5078138 L142.842987,32.7399123 L142.958032,32.9710842 L143.073076,33.1800191 L143.201927,33.3880275 L143.353786,33.5918665 L143.510247,33.7869033 L143.675911,33.9671155 L143.846177,34.1482542 L144.025647,34.3289297 L144.205117,34.4864416 L144.398392,34.6393208 L144.600871,34.7968328 L144.808412,34.9219158 L145.038041,35.0423661 L145.258927,35.1674491 L145.475672,35.2740013 L145.719107,35.3620226 L145.963002,35.4407786 L146.197693,35.5056365 L146.451252,35.5843924 L146.708492,35.6214541 L146.966192,35.6492503 L147.224353,35.6724138 L147.495398,35.6724138 L147.776107,35.6724138 L148.033808,35.6492503 L148.291968,35.6214541 L148.549669,35.5843924 L148.802307,35.5056365 L149.036998,35.4407786 L149.280893,35.3620226 L149.524788,35.2740013 L149.741073,35.1674491 L149.961959,35.0423661 L150.192508,34.9219158 L150.399129,34.7968328 L150.601608,34.6393208 L150.794883,34.4864416 L150.974353,34.3289297 L151.154283,34.1482542 L151.324549,33.9671155 L151.489753,33.7869033 L151.646214,33.5918665 L151.784268,33.3880275 L151.926924,33.1800191 L152.041968,32.9710842 L152.157013,32.7399123 L152.272058,32.5078138 L152.350288,32.29054 L152.442784,32.0311086 L152.506749,31.7994734 L152.557369,31.540042 L152.621794,31.2940454 L152.645263,31.0258119 L152.658608,30.7663805 L152.672414,30.4930509 L152.658608,30.2336195 L152.645263,29.9644594 L152.621794,29.7189261 L152.557369,29.459958 L152.506749,29.2139614 L152.442784,28.9549933 L152.350288,28.7233581 L152.272058,28.4917229 L152.157013,28.2596244 L152.041968,28.0423506 L151.926924,27.8199809 L151.784268,27.6161419 L151.646214,27.4211051 L151.489753,27.2130967 L151.324549,27.0185231 L151.154283,26.8373844 L150.974353,26.670607 L150.794883,26.5038297 L150.601608,26.346781 L150.399129,26.2166021 L150.192508,26.0780842 L149.961959,25.9483685 L149.741073,25.846449 L149.524788,25.7398968 L149.280893,25.6375141 L149.036998,25.5592214 L148.802307,25.4943635 L148.549669,25.4295057 L148.291968,25.3924441 L148.033808,25.3553824 L147.776107,25.3414843 L147.495398,25.3275862 L147.224353,25.3414843 Z"></path>
            </g>
        </g>
    </g>
</svg>