<?xml version="1.0" standalone="no"?>
<!DOCTYPE svg PUBLIC "-//W3C//DTD SVG 1.1//EN" "http://www.w3.org/Graphics/SVG/1.1/DTD/svg11.dtd" >
<svg xmlns="http://www.w3.org/2000/svg" xmlns:xlink="http://www.w3.org/1999/xlink" version="1.1">
<metadata>
Created by FontForge 20161003 at Wed Nov 14 18:59:25 2018
 By www-data
Copyright (c) 2015 by Rodrigo Saiani. All rights reserved.
</metadata>
<defs>
<font id="GlobotipoTextoRegular" horiz-adv-x="0" >
  <font-face 
    font-family="GlobotipoTextoRegular"
    font-weight="400"
    font-stretch="normal"
    units-per-em="1000"
    panose-1="0 0 5 0 0 0 0 0 0 0"
    ascent="800"
    descent="-200"
    x-height="480"
    cap-height="710"
    bbox="-246.786 -209 999 925"
    underline-thickness="50"
    underline-position="-150"
    unicode-range="U+0020-FB02"
  />
<missing-glyph horiz-adv-x="700" 
d="M350 709q146 0 250 -104t104 -250q0 -147 -104 -251t-250 -104q-147 0 -251 104t-104 251q0 146 104 250t251 104zM350 20q138 0 236 98t98 237q0 138 -98 236t-236 98q-139 0 -237 -98t-98 -236q0 -139 98 -237t237 -98zM555 573l14 -14l-205 -205l205 -205l-14 -14
l-205 205l-205 -205l-14 14l205 205l-205 205l14 14l205 -205z" />
    <glyph glyph-name="fi" unicode="fi" horiz-adv-x="590" 
d="M348 744q9 -4 9 -14v-36q0 -13 -8 -13q-4 0 -11 2q-24 10 -54 10q-87 0 -87 -97v-116h142q10 0 10 -10v-39q0 -9 -10 -9h-142v-413q0 -9 -10 -9h-61q-9 0 -9 10v412h-80q-9 0 -9 10v39q0 9 9 9h80v120q0 80 38 119.5t110 39.5q48 0 83 -15zM471 730q25 0 40.5 -15.5
t15.5 -39.5t-15.5 -40t-40.5 -16q-26 0 -41.5 16t-15.5 40q0 11 4 21.5t11 18t18 11.5t24 4zM501 480q10 0 10 -10v-461q0 -9 -10 -9h-61q-9 0 -9 10v461q0 9 10 9h60z" />
    <glyph glyph-name="fl" unicode="fl" horiz-adv-x="628" 
d="M348 744q9 -4 9 -14v-36q0 -13 -8 -13q-4 0 -11 2q-24 10 -54 10q-87 0 -87 -97v-116h142q10 0 10 -10v-39q0 -9 -10 -9h-142v-413q0 -9 -10 -9h-61q-9 0 -9 10v412h-80q-9 0 -9 10v39q0 9 9 9h80v120q0 80 38 119.5t110 39.5q48 0 83 -15zM604 67q4 2 6 2q4 0 4 -8v-44
q0 -5 -2 -8.5t-7 -5.5q-32 -13 -73 -13q-107 0 -107 116v633q0 10 9 10h61q9 0 9 -10v-623q0 -59 54 -59q24 0 46 10z" />
    <glyph glyph-name=".notdef" horiz-adv-x="700" 
d="M350 709q146 0 250 -104t104 -250q0 -147 -104 -251t-250 -104q-147 0 -251 104t-104 251q0 146 104 250t251 104zM350 20q138 0 236 98t98 237q0 138 -98 236t-236 98q-139 0 -237 -98t-98 -236q0 -139 98 -237t237 -98zM555 573l14 -14l-205 -205l205 -205l-14 -14
l-205 205l-205 -205l-14 14l205 205l-205 205l14 14l205 -205z" />
    <glyph glyph-name=".null" 
 />
    <glyph glyph-name="nonmarkingreturn" horiz-adv-x="333" 
 />
    <glyph glyph-name="space" unicode=" " horiz-adv-x="214" 
 />
    <glyph glyph-name="exclam" unicode="!" horiz-adv-x="238" 
d="M99 188q-9 0 -10 10l-13 503q0 9 10 9h66q9 0 9 -10l-13 -502q0 -10 -10 -10h-39zM119 -8q-26 0 -42.5 18t-16.5 44t16.5 44t42.5 18t42.5 -18t16.5 -44t-16.5 -44t-42.5 -18z" />
    <glyph glyph-name="quotedbl" unicode="&#x22;" horiz-adv-x="375" 
d="M74 475q-10 0 -10 10l-14 216v1q0 8 10 8h62q9 0 8 -10l-13 -216q0 -9 -10 -9h-33zM230 475q-9 0 -9 10l-14 216v1q0 8 9 8h63q9 0 8 -10l-13 -216q0 -9 -10 -9h-34z" />
    <glyph glyph-name="numbersign" unicode="#" horiz-adv-x="636" 
d="M598 513q10 0 10 -9v-34q0 -6 -7 -6h-127l-41 -204h140q7 0 7 -7v-35q0 -7 -8 -7h-149l-41 -202q-2 -9 -11 -9h-37q-6 0 -5 7l41 204h-171l-41 -204q-2 -7 -10 -7h-35q-9 0 -7 9l40 202h-99q-9 0 -9 9v31q0 9 9 9h109l41 204h-124q-8 0 -8 7v33q0 9 10 9h132l38 188
q2 9 12 9h36q6 0 5 -7l-38 -190h171l38 190q2 7 9 7h36q9 0 7 -9l-37 -188h114zM380 260l41 204h-171l-41 -204h171z" />
    <glyph glyph-name="dollar" unicode="$" horiz-adv-x="585" 
d="M510 209q0 -88 -59.5 -142t-158.5 -59l-11 -131q0 -9 -10 -9h-31q-9 0 -8 9l10 132q-93 8 -157 45q-8 5 -8 15v56q0 9 8 4q76 -48 163 -53l22 261h-1q-26 10 -37 14t-35.5 15.5t-36 19.5t-29 23t-26 30.5t-15 37t-6.5 46.5q0 78 60.5 127.5t153.5 51.5l10 121q0 10 10 10
h31q9 0 9 -10l-11 -124q67 -7 126 -35q8 -4 8 -14v-54q0 -9 -8 -4q-59 34 -131 42l-19 -236q94 -32 140.5 -73.5t46.5 -115.5zM170 528q0 -43 27 -68.5t77 -44.5l18 220q-26 -3 -49 -11.5t-39 -22.5t-25 -33t-9 -40zM298 77q57 7 92 39.5t35 85.5q0 45 -26.5 70.5
t-81.5 46.5z" />
    <glyph glyph-name="percent" unicode="%" horiz-adv-x="707" 
d="M99 -11q-8 5 -3 13l468 719q5 8 14 3l13 -8q8 -5 3 -13l-468 -719q-5 -8 -14 -3zM184 420q-33 0 -61 18t-45 52.5t-17 78.5q0 68 36 109.5t87 41.5q34 0 61.5 -18t44.5 -53t17 -80q0 -66 -35.5 -107.5t-87.5 -41.5zM184 465q32 0 53 28.5t21 75.5q0 49 -20.5 77.5
t-53.5 28.5q-32 0 -52.5 -28.5t-20.5 -77.5q0 -47 20.5 -75.5t52.5 -28.5zM523 -10q-51 0 -87 41.5t-36 107.5q0 68 36 109.5t87 41.5q52 0 87.5 -41.5t35.5 -109.5q0 -66 -36 -107.5t-87 -41.5zM523 35q32 0 53 29t21 75q0 33 -10 57t-26.5 36.5t-37.5 12.5t-37.5 -12.5
t-26.5 -36.5t-10 -57q0 -31 10 -54.5t26.5 -36.5t37.5 -13z" />
    <glyph glyph-name="ampersand" unicode="&#x26;" horiz-adv-x="645" 
d="M608 6q6 -7 -4 -7h-75q-9 0 -16 7l-51 55q-80 -71 -190 -71q-101 0 -167 52t-66 138q0 64 37 113.5t106 78.5q-25 30 -40.5 55t-25 54.5t-9.5 60.5q0 79 56 128.5t139 49.5q65 0 120 -17q9 -3 9 -13v-50q0 -9 -9 -6q-46 20 -104 20q-55 0 -94 -32.5t-39 -87.5
q0 -44 27.5 -85.5t86.5 -105.5l163 -178q43 70 43 164q0 31 -5 62q-1 2 -1 3q0 7 9 7h50q10 0 11 -10q4 -30 4 -56q0 -129 -64 -221zM118 187q0 -58 44.5 -94t113.5 -36q82 0 142 54l-143 161l-17 18l-35 35l-3 4q-102 -47 -102 -142z" />
    <glyph glyph-name="quotesingle" unicode="'" horiz-adv-x="200" 
d="M83 475q-9 0 -10 10l-13 216v1q0 8 9 8h62q10 0 9 -10l-13 -216q-1 -9 -10 -9h-34z" />
    <glyph glyph-name="parenleft" unicode="(" horiz-adv-x="309" 
d="M283 -117q6 -7 -4 -7h-43q-10 0 -17 7q-75 79 -118 186.5t-43 223.5t43 223.5t119 186.5q6 7 16 7h44q9 0 3 -7q-73 -83 -115 -194t-42 -216t42 -216t115 -194z" />
    <glyph glyph-name="parenright" unicode=")" horiz-adv-x="309" 
d="M29 -124q-9 0 -3 7q72 83 114.5 194t42.5 216t-42.5 216t-114.5 194q-6 7 3 7h44q10 0 16 -7q76 -79 118.5 -186.5t42.5 -223.5t-42.5 -223.5t-118.5 -186.5q-6 -7 -16 -7h-44z" />
    <glyph glyph-name="asterisk" unicode="*" horiz-adv-x="414" 
d="M380 567v-4q0 -5 -7 -6l-36 -8q-9 -2 -19 -4l-91 -15l66 -68q6 -6 13 -14l24 -27q3 -4 3 -6q0 -4 -5 -7l-38 -27q-3 -3 -5 -3q-4 0 -7 5l-18 32q-5 8 -10 17l-43 82l-43 -82q-4 -9 -9 -17l-19 -31q-5 -8 -13 -3l-37 28q-8 5 -1 12l24 28q7 7 13 14l66 66l-92 16
q-10 2 -19 4l-36 8q-9 2 -6 11l14 44q3 9 12 5l34 -15q8 -3 17 -8l83 -41l-13 92q-2 10 -2 19l-4 37v1q0 8 9 8h47q9 0 8 -10l-4 -36q-1 -10 -2 -19l-13 -91l82 41q8 4 17 8l34 14q2 1 4 1q5 0 7 -6z" />
    <glyph glyph-name="plus" unicode="+" horiz-adv-x="561" 
d="M513 329q9 0 9 -9v-44q0 -9 -10 -9h-201v-210q0 -9 -10 -9h-41q-10 0 -10 10v209h-202q-9 0 -9 10v43q0 9 9 9h202v210q0 9 10 9h41q10 0 10 -9v-210h202z" />
    <glyph glyph-name="comma" unicode="," horiz-adv-x="232" 
d="M115 116q25 0 43 -17.5t18 -44.5q0 -5 -1 -10.5t-2.5 -11.5t-2.5 -10.5t-4 -12t-4.5 -11t-5.5 -12t-5 -11.5l-52 -115q-3 -8 -12 -8h-16q-8 0 -6 8l39 134q-20 3 -34 19.5t-14 39.5q0 28 17.5 45.5t41.5 17.5z" />
    <glyph glyph-name="hyphen" unicode="-" horiz-adv-x="409" 
d="M72 227q-9 0 -9 9v44q0 9 10 9h263q10 0 10 -10v-43q0 -9 -10 -9h-264z" />
    <glyph glyph-name="period" unicode="." horiz-adv-x="230" 
d="M115 -7q-26 0 -42.5 18t-16.5 43.5t16.5 43.5t42.5 18t42.5 -18t16.5 -43.5t-16.5 -43.5t-42.5 -18z" />
    <glyph glyph-name="slash" unicode="/" horiz-adv-x="338" 
d="M5 -109q-10 0 -6 9l284 860q3 9 13 9h38q9 0 6 -10l-284 -859q-3 -9 -13 -9h-38z" />
    <glyph glyph-name="zero" unicode="0" horiz-adv-x="653" 
d="M326 -10q-117 0 -193 95.5t-76 267.5q0 87 21 157t58 115.5t85.5 70t104.5 24.5q116 0 192.5 -98t76.5 -269t-75.5 -267t-193.5 -96zM326 65q86 0 137.5 75t51.5 212.5t-52 215.5t-137 78q-84 0 -136 -77.5t-52 -215.5t52 -213t136 -75z" />
    <glyph glyph-name="one" unicode="1" horiz-adv-x="437" 
d="M283 710q9 0 9 -9v-692q0 -9 -9 -9h-61q-10 0 -10 10v605l-155 -74q-8 -4 -8 6v53q0 9 9 13l189 93q8 4 18 4h18z" />
    <glyph glyph-name="two" unicode="2" horiz-adv-x="546" 
d="M486 69q10 0 10 -10v-50q0 -9 -10 -9h-439q-13 0 -13 6q0 4 6 11l236 296q30 37 44 56t31.5 47t24.5 52t7 50q0 38 -21 68t-59 47.5t-87 17.5q-82 0 -154 -41q-8 -4 -8 5v52q0 9 8 14q73 39 174 39q103 0 166 -51.5t63 -137.5q0 -58 -27 -109.5t-84 -122.5l-188 -230h320
z" />
    <glyph glyph-name="three" unicode="3" horiz-adv-x="536" 
d="M295 381q90 -14 140.5 -63t50.5 -120q0 -89 -72.5 -148.5t-184.5 -59.5q-102 0 -174 33q-9 4 -9 14v50q0 10 9 6q76 -35 162 -35q81 0 132 41t51 104t-58 101t-162 38h-25q-10 0 -10 9v44q0 9 10 9h23q93 0 144 39.5t51 94.5q0 51 -44 84t-116 33q-74 0 -143 -35
q-9 -4 -9 6v49q0 9 9 13q73 32 156 32q103 0 165 -47.5t62 -120.5q0 -58 -41 -105t-117 -66z" />
    <glyph glyph-name="four" unicode="4" horiz-adv-x="579" 
d="M550 200v-66h-100v-134h-79v134h-340q-9 0 -9 10v41q0 9 5 17l352 508h71v-510h100zM375 595q-26 -46 -54 -87l-220 -308h271v295q0 51 3 100z" />
    <glyph glyph-name="five" unicode="5" horiz-adv-x="548" 
d="M246 449q110 0 181 -59t71 -160q0 -71 -38.5 -126.5t-103.5 -84.5t-145 -29q-88 0 -152 31q-8 4 -8 14v49q0 10 8 6q68 -31 142 -31q61 0 109.5 21t76 60t27.5 88q0 72 -55 116.5t-141 44.5q-84 0 -153 -38l68 359h331v-68h-274l-40 -204q44 11 96 11z" />
    <glyph glyph-name="six" unicode="6" horiz-adv-x="570" 
d="M303 435q96 0 158.5 -61t62.5 -157q0 -98 -70.5 -162.5t-168.5 -64.5q-67 0 -121 28.5t-85 79.5t-31 114q0 108 77 206l227 285q6 7 15 7h68q10 0 3 -7l-190 -233q-9 -12 -34 -42.5t-28 -35.5q51 43 117 43zM286 60q44 0 82 20.5t60.5 57t22.5 79.5q0 47 -22 83.5
t-59.5 56t-85.5 19.5q-34 0 -64 -12.5t-51.5 -34t-34 -52t-12.5 -64.5q0 -65 47 -109t117 -44z" />
    <glyph glyph-name="seven" unicode="7" horiz-adv-x="519" 
d="M491 710q10 0 6 -10l-348 -692q-4 -8 -14 -8h-64q-11 0 -6 9l321 629h-331q-9 0 -9 9v54q0 9 9 9h436z" />
    <glyph glyph-name="eight" unicode="8" horiz-adv-x="588" 
d="M295 -9q-101 0 -170 56.5t-69 148.5q0 44 19.5 82.5t51 63.5t71.5 36q-52 20 -82 63t-30 98q0 78 60 129.5t149 51.5q88 0 148.5 -51.5t60.5 -129.5q0 -55 -30 -98t-82 -63q61 -17 101 -66.5t40 -115.5q0 -92 -68.5 -148.5t-169.5 -56.5zM294 405q61 0 98.5 36.5
t37.5 91.5q0 34 -18 62.5t-49 44t-68 15.5q-57 0 -96.5 -35t-39.5 -87q0 -36 16.5 -65t47.5 -46t71 -17zM295 58q68 0 113 40.5t45 102.5q0 25 -8 47.5t-23 39.5t-34.5 30t-43.5 19.5t-49 6.5q-66 0 -112.5 -40.5t-46.5 -102.5t45.5 -102.5t113.5 -40.5z" />
    <glyph glyph-name="nine" unicode="9" horiz-adv-x="570" 
d="M283 720q102 0 169.5 -63t67.5 -159q0 -108 -78 -206l-226 -285q-6 -7 -16 -7h-68q-9 0 -3 7l191 233l17.5 22.5t23.5 30t20 25.5q-50 -43 -116 -43q-63 0 -113.5 27.5t-79.5 77.5t-29 113q0 98 71 162.5t169 64.5zM284 334q45 0 82 21t58.5 59t21.5 83q0 32 -12.5 60.5
t-34.5 48.5t-52.5 32t-64.5 12q-68 0 -116.5 -45.5t-48.5 -111.5q0 -47 21.5 -83.5t59.5 -56t86 -19.5z" />
    <glyph glyph-name="colon" unicode=":" horiz-adv-x="225" 
d="M114 301q-25 0 -41.5 18t-16.5 43t16.5 43t41.5 18t41 -18t16 -43t-16 -43t-41 -18zM114 -9q-25 0 -41.5 17.5t-16.5 43t16.5 43t41.5 17.5t41 -17.5t16 -43t-16 -43t-41 -17.5z" />
    <glyph glyph-name="semicolon" unicode=";" horiz-adv-x="229" 
d="M115 296q-26 0 -42.5 18t-16.5 44t16.5 44t42.5 18q17 0 30.5 -8.5t21 -22.5t7.5 -31q0 -25 -16.5 -43.5t-42.5 -18.5zM114 112q25 0 42.5 -17t17.5 -44q0 -5 -0.5 -10.5t-2 -11.5t-3 -10.5t-4 -11.5t-4 -10.5t-5.5 -12t-5 -11.5l-51 -113q-3 -8 -12 -8h-16q-8 0 -5 8
l38 132q-20 3 -33.5 19t-13.5 38q0 28 17 45.5t40 17.5z" />
    <glyph glyph-name="less" unicode="&#x3c;" horiz-adv-x="561" 
d="M522 8q0 -9 -8 -5l-468 237q-8 4 -8 14v19q0 9 8 13l468 236q8 5 8 -5v-57q0 -9 -8 -14l-369 -183l369 -183q8 -4 8 -14v-58z" />
    <glyph glyph-name="equal" unicode="=" horiz-adv-x="561" 
d="M48 363q-9 0 -9 10v43q0 10 9 10h465q9 0 9 -10v-43q0 -10 -10 -10h-464zM48 164q-9 0 -9 10v43q0 10 9 10h465q9 0 9 -10v-43q0 -10 -10 -10h-464z" />
    <glyph glyph-name="greater" unicode="&#x3e;" horiz-adv-x="561" 
d="M66 3q-9 -4 -9 6v58q0 9 9 13l369 183l-369 184q-9 4 -9 13v57q0 10 9 5l467 -236q8 -4 8 -14v-19q0 -9 -8 -13z" />
    <glyph glyph-name="question" unicode="?" horiz-adv-x="483" 
d="M178 174q-7 0 -8 8l-4 146q-1 8 7 12q40 19 67 34.5t53.5 38t40 50t13.5 60.5q0 60 -46 95.5t-117 35.5q-75 0 -140 -32q-8 -5 -8 5v47q0 10 8 14q69 32 157 32q103 0 164.5 -51.5t61.5 -135.5q0 -43 -16 -80t-46.5 -64.5t-60.5 -46.5t-71 -39l-4 -121q0 -8 -8 -8h-43z
M197 -8q-26 0 -43 17.5t-17 42t17 41t43 16.5t43 -17t17 -41q0 -16 -7.5 -29t-21 -21.5t-31.5 -8.5z" />
    <glyph glyph-name="at" unicode="@" horiz-adv-x="855" 
d="M604 430q9 0 9 -10v-265q0 -66 56 -66q44 0 72 49.5t28 125.5q0 137 -94 228t-237 91q-101 0 -181.5 -46t-125 -124.5t-44.5 -172.5q0 -56 17 -109t49 -96.5t76 -76t100 -50.5t118 -18q63 0 125.5 16t108.5 47q8 5 8 -4v-33q0 -10 -8 -15q-47 -28 -109.5 -42.5
t-123.5 -14.5q-86 0 -162 31.5t-129.5 84.5t-84.5 126t-31 154q0 108 51.5 196.5t142.5 139.5t202 51q107 0 193 -47.5t135 -130.5t49 -185q0 -98 -42 -160.5t-110 -62.5q-28 0 -50.5 10.5t-37 29.5t-19.5 43q-22 -41 -60 -62t-81 -21q-72 0 -127.5 56.5t-55.5 143.5
q0 85 54.5 140.5t127.5 55.5q95 0 139 -77l1 60q0 10 10 10h41zM427 94q20 0 38.5 6t34 18.5t27.5 29.5t19 40.5t7 50.5q0 66 -36.5 104.5t-89.5 38.5q-56 0 -94 -39t-38 -103q0 -66 39 -106t93 -40z" />
    <glyph glyph-name="A" unicode="A" horiz-adv-x="648" 
d="M635 9q1 -3 1 -5q0 -4 -7 -4h-72q-10 0 -13 9q-47 122 -73 190h-299q-19 -49 -74 -190q-3 -9 -13 -9h-66q-10 0 -6 9l279 695q3 9 13 9h40q9 0 13 -9zM198 267h248q-68 183 -123 341q-55 -155 -125 -341z" />
    <glyph glyph-name="B" unicode="B" horiz-adv-x="538" 
d="M347 376q76 -11 119.5 -57.5t43.5 -115.5q0 -91 -70 -147t-188 -56h-166q-9 0 -9 10v691q0 9 9 9h146q113 0 177 -46.5t64 -127.5q0 -59 -34 -103t-92 -56v-1zM235 642h-78v-242h91q64 0 104 33t40 92q0 55 -42 86t-115 31zM247 68q54 0 94 17t61 47.5t21 71.5
q0 58 -45 93t-118 35h-103v-264h90z" />
    <glyph glyph-name="C" unicode="C" horiz-adv-x="643" 
d="M411 -10q-102 0 -186 44t-134.5 129t-50.5 195q0 109 51 192.5t135.5 126.5t187.5 43q84 0 164 -30q9 -3 9 -13v-50q0 -14 -9 -14q-4 0 -11 3q-69 31 -146 31q-129 0 -214 -79.5t-85 -208.5q0 -134 85 -214.5t214 -80.5q81 0 156 33q6 2 10 2q9 0 9 -15v-48q0 -9 -9 -13
q-83 -33 -176 -33z" />
    <glyph glyph-name="D" unicode="D" horiz-adv-x="684" 
d="M77 701q0 9 9 9h141q188 0 303 -98.5t115 -256.5q0 -159 -114.5 -257t-303.5 -98h-141q-9 0 -9 10v691zM230 641h-71v-573l71 1q150 0 240.5 77.5t90.5 206.5q0 131 -90.5 209.5t-240.5 78.5z" />
    <glyph glyph-name="E" unicode="E" horiz-adv-x="506" 
d="M445 642h-288v-239h256q10 0 10 -9v-49q0 -9 -10 -9h-256v-268h288q10 0 10 -10v-49q0 -9 -10 -9h-359q-9 0 -9 10v691q0 9 9 9h359q10 0 10 -10v-48q0 -10 -10 -10z" />
    <glyph glyph-name="F" unicode="F" horiz-adv-x="481" 
d="M436 710q9 0 9 -10v-47q0 -10 -9 -10h-279v-267h257q9 0 9 -10v-48q0 -9 -9 -9h-257v-300q0 -9 -9 -9h-62q-9 0 -9 10v691q0 9 9 9h350z" />
    <glyph glyph-name="G" unicode="G" horiz-adv-x="753" 
d="M402 -10q-101 0 -183.5 45.5t-131 129.5t-48.5 189q0 106 50.5 190t137 130t192.5 46q58 0 121 -14t107 -38q8 -5 8 -15v-53q0 -15 -8 -15q-4 0 -12 5q-42 25 -100 39t-111 14q-130 0 -216.5 -80.5t-86.5 -209.5q0 -127 82 -207t199 -80q67 0 122.5 26.5t89 78.5
t34.5 121h-216q-10 0 -10 9v52q0 9 10 9h279q9 0 10 -9q2 -13 2 -31q0 -104 -43 -180.5t-115 -114t-163 -37.5z" />
    <glyph glyph-name="H" unicode="H" horiz-adv-x="680" 
d="M594 710q9 0 9 -10v-691q0 -9 -9 -9h-63q-10 0 -10 10v325h-362v-326q0 -9 -10 -9h-63q-9 0 -9 10v691q0 9 9 9h63q10 0 10 -10v-299h362v300q0 9 10 9h63z" />
    <glyph glyph-name="I" unicode="I" horiz-adv-x="262" 
d="M99 0q-9 0 -9 10v691q0 9 9 9h65q9 0 9 -10v-691q0 -9 -10 -9h-64z" />
    <glyph glyph-name="J" unicode="J" horiz-adv-x="393" 
d="M136 -9q-67 0 -112 24q-8 4 -8 14v67q0 9 8 4q49 -30 109 -30q47 0 76 30t29 90v511q0 9 10 9h64q9 0 9 -10v-509q0 -94 -50.5 -147t-134.5 -53z" />
    <glyph glyph-name="K" unicode="K" horiz-adv-x="574" 
d="M555 15q6 -6 6 -9q0 -6 -13 -6h-76q-9 0 -15 7l-297 346v-344q0 -9 -10 -9h-64q-9 0 -9 10v691q0 9 9 9h65q9 0 9 -10v-323l290 326q6 7 16 7h75q12 0 12 -5q0 -4 -6 -11l-305 -328z" />
    <glyph glyph-name="L" unicode="L" horiz-adv-x="472" 
d="M438 73q9 0 9 -10v-54q0 -9 -9 -9h-352q-9 0 -9 10v691q0 9 9 9h64q9 0 9 -10v-627h279z" />
    <glyph glyph-name="M" unicode="M" horiz-adv-x="870" 
d="M843 9v-3q0 -6 -8 -6h-66q-9 0 -11 10l-98 574l-189 -557q-3 -8 -13 -8h-45q-9 0 -12 9l-192 551l-101 -570q-2 -9 -11 -9h-70q-1 0 -1 1l129 701q2 9 12 9h64q9 0 12 -9l196 -560l192 560q3 9 13 9h58q9 0 11 -9z" />
    <glyph glyph-name="N" unicode="N" horiz-adv-x="727" 
d="M641 710q9 0 9 -10v-691q0 -9 -10 -9h-45q-9 0 -15 8l-426 562v-561q0 -9 -10 -9h-58q-9 0 -9 10v691q0 9 9 9h45q9 0 15 -8l427 -564v563q0 9 10 9h58z" />
    <glyph glyph-name="O" unicode="O" horiz-adv-x="812" 
d="M406 -10q-100 0 -184 46.5t-133.5 130t-49.5 186.5t50 188t134 132t183 47t183 -47t134.5 -132t50.5 -188q0 -102 -50 -186t-134 -130.5t-184 -46.5zM406 66q121 0 205.5 82.5t84.5 204.5q0 81 -39 148.5t-105 105.5t-146 38q-121 0 -205 -84t-84 -208q0 -122 84 -204.5
t205 -82.5z" />
    <glyph glyph-name="P" unicode="P" horiz-adv-x="530" 
d="M245 710q119 0 188.5 -58t69.5 -156t-69.5 -156.5t-188.5 -58.5h-86v-272q0 -9 -9 -9h-64q-9 0 -9 10v691q0 9 9 9h159zM244 347q82 0 128.5 40.5t46.5 108.5t-46.5 108t-128.5 40h-85v-297h85z" />
    <glyph glyph-name="Q" unicode="Q" horiz-adv-x="820" 
d="M785 -44q3 -4 3 -7t-4 -7l-38 -34q-4 -3 -7 -3t-7 4l-123 140q-91 -59 -203 -59q-100 0 -184 46.5t-133.5 130t-49.5 186.5t50 188t134 132t183 47t183 -47t134.5 -132t50.5 -188q0 -52 -13.5 -100t-38 -88.5t-58.5 -72.5zM117 353q0 -122 84 -204.5t205 -82.5
t205.5 82.5t84.5 204.5q0 81 -39 148.5t-105 105.5t-146 38q-121 0 -205 -84t-84 -208z" />
    <glyph glyph-name="R" unicode="R" horiz-adv-x="562" 
d="M530 15q4 -6 4 -9q0 -6 -12 -6h-74q-9 0 -15 8l-225 312h-51v-311q0 -9 -10 -9h-61q-9 0 -9 10v691q0 9 9 9h160q73 0 128 -23t85 -65.5t30 -100.5q0 -80 -52.5 -131.5t-144.5 -61.5zM157 647v-266h86q78 0 122.5 36t44.5 98q0 60 -45 96t-122 36h-86z" />
    <glyph glyph-name="S" unicode="S" horiz-adv-x="513" 
d="M234 -10q-50 0 -102.5 12t-88.5 32q-7 4 -7 13v61q0 10 8 5q84 -53 185 -53q74 0 119.5 34t45.5 93q0 51 -38.5 83.5t-114.5 65.5q-36 15 -59.5 27.5t-51.5 32t-44 39t-27 47t-11 59.5q0 79 61 129t157 50q87 0 157 -30q8 -4 8 -14v-56q0 -9 -8 -4q-69 34 -152 34
q-62 0 -101.5 -29.5t-39.5 -76.5q0 -22 8.5 -40.5t20 -31t34 -26.5t37.5 -21l45 -21l3 -1.5t3 -1t3 -1.5q94 -41 143 -88.5t49 -120.5q0 -89 -67.5 -145t-174.5 -56z" />
    <glyph glyph-name="T" unicode="T" horiz-adv-x="527" 
d="M500 710q10 0 10 -10v-52q0 -9 -10 -9h-195v-630q0 -9 -10 -9h-63q-10 0 -10 10v629h-195q-10 0 -10 9v53q0 9 10 9h473z" />
    <glyph glyph-name="U" unicode="U" horiz-adv-x="663" 
d="M329 -10q-116 0 -185.5 70.5t-69.5 209.5v431q0 9 10 9h63q9 0 9 -9v-437q0 -103 47.5 -152.5t128.5 -49.5t128 50t47 152v437q0 9 10 9h63q9 0 9 -9v-431q0 -139 -71 -209.5t-189 -70.5z" />
    <glyph glyph-name="V" unicode="V" horiz-adv-x="660" 
d="M639 710q9 0 6 -9l-286 -699q-3 -9 -13 -9h-40q-3 0 -4 4l-289 710q-1 3 3 3h75q9 0 13 -9l228 -593l229 593q3 9 13 9h65z" />
    <glyph glyph-name="W" unicode="W" horiz-adv-x="953" 
d="M929 710q9 0 7 -9l-204 -693q-3 -9 -13 -9h-55q-10 0 -13 9l-174 574l-176 -574q-2 -9 -12 -9h-55q-9 0 -12 9l-207 693q-1 2 -1 4q0 5 8 5h66q10 0 12 -9l166 -585l175 585q3 9 12 9h51q9 0 12 -9l176 -588l164 588q2 9 12 9h61z" />
    <glyph glyph-name="X" unicode="X" horiz-adv-x="635" 
d="M625 8q5 -8 -5 -8h-79q-9 0 -15 8l-209 294l-207 -294q-5 -8 -15 -8h-79q-9 0 -3 8l258 352l-251 342q-6 8 4 8h81q10 0 15 -8l201 -280l195 280q5 8 15 8h80q9 0 3 -8l-247 -340z" />
    <glyph glyph-name="Y" unicode="Y" horiz-adv-x="574" 
d="M255 0q-10 0 -10 10v288l-233 394q-3 7 -3 10q0 8 14 8h61q9 0 14 -8l192 -335l189 335q4 8 14 8h58q13 0 13 -7q0 -5 -4 -11l-232 -394v-289q0 -9 -10 -9h-63z" />
    <glyph glyph-name="Z" unicode="Z" horiz-adv-x="574" 
d="M135 66h384q10 0 10 -10v-47q0 -9 -10 -9h-472q-9 0 -9 10v19q0 9 5 17l378 598h-352q-10 0 -10 10v47q0 9 10 9h440q10 0 10 -10v-19q0 -9 -5 -17z" />
    <glyph glyph-name="bracketleft" unicode="[" horiz-adv-x="290" 
d="M250 -122q0 -9 -10 -9h-154q-9 0 -9 10v822q0 9 9 9h148q10 0 10 -10v-35q0 -9 -10 -9h-96v-733h103q9 0 9 -10v-35z" />
    <glyph glyph-name="backslash" unicode="\" horiz-adv-x="338" 
d="M340 -100q1 -2 1 -4q0 -5 -7 -5h-38q-10 0 -13 9l-285 860v4q0 5 7 5h38q10 0 13 -10z" />
    <glyph glyph-name="bracketright" unicode="]" horiz-adv-x="290" 
d="M49 -131q-9 0 -9 10v34q0 10 9 10h102v733h-95q-10 0 -10 10v35q0 9 10 9h148q9 0 9 -10v-822q0 -9 -10 -9h-154z" />
    <glyph glyph-name="asciicircum" unicode="^" horiz-adv-x="600" 
d="M478 291h-59l-118 136l-118 -136h-60l146 193h63z" />
    <glyph glyph-name="underscore" unicode="_" horiz-adv-x="541" 
d="M72 -143q-9 0 -9 10v43q0 9 10 9h396q9 0 9 -9v-43q0 -10 -10 -10h-396z" />
    <glyph glyph-name="grave" unicode="`" horiz-adv-x="500" 
d="M338 567q5 -8 -5 -8h-37q-9 0 -15 8l-123 171q-3 3 -3 5q0 4 6 6l59 19q3 1 5 1q5 0 9 -6z" />
    <glyph glyph-name="a" unicode="a" horiz-adv-x="613" 
d="M528 480q10 0 10 -10v-461q0 -9 -10 -9h-61q-9 0 -9 10v81q-25 -48 -73 -74t-105 -26q-58 0 -111 29t-88.5 88t-35.5 134q0 111 70.5 179.5t165.5 68.5q58 0 105 -24.5t71 -72.5l1 78q0 9 9 9h61zM294 63q45 0 82.5 21.5t60 62.5t22.5 94q0 79 -47 127t-118 48
t-119 -48.5t-48 -126.5q0 -53 23.5 -94t61 -62.5t82.5 -21.5z" />
    <glyph glyph-name="b" unicode="b" horiz-adv-x="613" 
d="M335 490q96 0 164.5 -68.5t68.5 -179.5q0 -57 -20 -105t-52.5 -79.5t-74 -49t-85.5 -17.5q-55 0 -105.5 26t-74.5 74v-82q0 -9 -10 -9h-61q-9 0 -9 10v729q0 9 9 9h61q10 0 10 -9v-346q17 32 46.5 54.5t63 32.5t69.5 10zM319 63q69 0 118 49.5t49 128.5q0 78 -48 126.5
t-119 48.5q-46 0 -83 -21t-59 -61.5t-22 -92.5q0 -40 13 -73.5t35.5 -56t52.5 -35.5t63 -13z" />
    <glyph glyph-name="c" unicode="c" horiz-adv-x="475" 
d="M306 -9q-109 0 -184.5 68.5t-75.5 181.5q0 111 73.5 179.5t186.5 68.5q69 0 119 -21q9 -4 9 -14v-42q0 -14 -8 -14q-4 0 -11 4q-43 21 -98 21q-80 0 -134 -50t-54 -133q0 -84 54.5 -133t136.5 -49q55 0 101 22q7 3 10 3q9 0 9 -15v-41q0 -10 -9 -13q-56 -23 -125 -23z
" />
    <glyph glyph-name="d" unicode="d" horiz-adv-x="613" 
d="M528 748q10 0 10 -9v-730q0 -9 -10 -9h-61q-10 0 -10 10v81q-24 -48 -74.5 -74t-105.5 -26q-44 0 -85 17.5t-74 49t-53 79.5t-20 105q0 111 68.5 179.5t164.5 68.5q56 0 105 -24.5t74 -72.5l1 346q0 9 9 9h61zM294 63q69 0 117 49.5t48 128.5t-47.5 127t-117.5 48
q-71 0 -119 -48.5t-48 -126.5q0 -79 49 -128.5t118 -49.5z" />
    <glyph glyph-name="e" unicode="e" horiz-adv-x="525" 
d="M478 111l1 -53q0 -10 -7 -15q-70 -52 -175 -52q-112 0 -182 69t-70 180q0 109 68 179.5t167 70.5q89 0 146.5 -57t57.5 -156q0 -23 -5 -30t-19 -7h-333q2 -84 51 -132t128 -48q98 0 165 55q7 6 7 -4zM280 420q-54 0 -93.5 -32.5t-53.5 -89.5h282q-4 54 -41 88t-94 34z
" />
    <glyph glyph-name="f" unicode="f" horiz-adv-x="351" 
d="M348 744q9 -4 9 -14v-36q0 -13 -8 -13q-4 0 -11 2q-24 10 -54 10q-87 0 -87 -97v-116h142q10 0 10 -10v-39q0 -9 -10 -9h-142v-413q0 -9 -10 -9h-61q-9 0 -9 10v412h-80q-9 0 -9 10v39q0 9 9 9h80v120q0 80 38 119.5t110 39.5q48 0 83 -15z" />
    <glyph glyph-name="g" unicode="g" horiz-adv-x="597" 
d="M515 480q9 0 9 -10v-388q0 -125 -70.5 -194t-188.5 -69q-104 0 -173 35q-8 4 -8 14v49q0 13 7 13q5 0 11 -4q68 -37 155 -37q57 0 98.5 20.5t64 60t22.5 94.5v50q-28 -49 -73.5 -74t-100.5 -25q-93 0 -158 64.5t-65 172.5q0 107 66 172t157 65q56 0 102.5 -25.5
t73.5 -77.5v85q0 9 10 9h61zM286 84q43 0 78.5 20t57 57t22.5 85v11q-1 45 -22.5 82t-57.5 58t-78 21q-65 0 -112 -45t-47 -122t46 -122t113 -45z" />
    <glyph glyph-name="h" unicode="h" horiz-adv-x="561" 
d="M311 490q83 0 130 -47.5t47 -142.5v-296q0 -4 -3 -4h-73q-4 0 -4 3v294q0 64 -31 94.5t-87 30.5q-40 0 -70 -17.5t-46.5 -50.5t-18.5 -77v-273q0 -4 -4 -4h-72q-4 0 -4 3v742q0 3 3 3h72q3 0 3 -3v-340q50 85 158 85z" />
    <glyph glyph-name="i" unicode="i" horiz-adv-x="238" 
d="M119 619q-26 0 -41 16t-15 40t15 39.5t41 15.5t41 -15.5t15 -39.5t-15 -40t-41 -16zM89 0q-10 0 -10 10v461q0 9 10 9h61q9 0 9 -10v-461q0 -9 -10 -9h-60z" />
    <glyph glyph-name="j" unicode="j" horiz-adv-x="248" 
d="M124 619q-26 0 -41 16t-15 40t15 39.5t41 15.5t41 -15.5t15 -39.5t-15 -40t-41 -16zM39 -181q-34 0 -61 10q-8 4 -8 14v48q0 8 8 4q21 -11 45 -11q27 0 44 17.5t17 47.5v522q0 9 9 9h61q9 0 9 -10v-521q0 -64 -32.5 -97t-91.5 -33z" />
    <glyph glyph-name="k" unicode="k" horiz-adv-x="460" 
d="M459 9q3 -4 3 -6q0 -3 -7 -3h-80q-9 0 -15 7l-224 245v-243q0 -9 -10 -9h-60q-10 0 -10 10v729q0 9 10 9h61q9 0 9 -9v-477l204 211q6 7 16 7h82q9 0 3 -7l-215 -216z" />
    <glyph glyph-name="l" unicode="l" horiz-adv-x="276" 
d="M181 -10q-108 0 -108 116v633q0 10 10 10h60q10 0 10 -10v-623q0 -59 54 -59q23 0 45 10q4 2 6 2q5 0 5 -8v-44q0 -10 -9 -14q-32 -13 -73 -13z" />
    <glyph glyph-name="m" unicode="m" horiz-adv-x="812" 
d="M575 490q46 0 82.5 -17t59.5 -56t23 -95v-313q0 -9 -10 -9h-60q-10 0 -10 10v309q0 51 -29 76.5t-72 25.5q-46 0 -79 -32t-33 -81v-299q0 -9 -9 -9h-61q-10 0 -10 10v309q0 51 -29 76.5t-71 25.5q-31 0 -56.5 -14t-41 -40.5t-15.5 -58.5v-299q0 -9 -9 -9h-61q-9 0 -9 10
v461q0 9 9 9h59q9 0 9 -10v-60q21 39 56.5 59.5t79.5 20.5q49 0 88 -23t57 -67q20 43 58 66.5t84 23.5z" />
    <glyph glyph-name="n" unicode="n" horiz-adv-x="561" 
d="M309 490q84 0 131.5 -47.5t47.5 -143.5v-290q0 -9 -9 -9h-61q-9 0 -9 10v288q0 63 -32 93.5t-88 30.5q-61 0 -97.5 -39t-36.5 -104v-270q0 -9 -10 -9h-61q-9 0 -9 10v461q0 9 9 9h60q9 0 9 -10v-62q49 82 156 82z" />
    <glyph glyph-name="o" unicode="o" horiz-adv-x="592" 
d="M296 -10q-104 0 -177.5 73t-73.5 179q0 105 74 176.5t177 71.5t176.5 -71.5t73.5 -176.5q0 -106 -73.5 -179t-176.5 -73zM296 62q72 0 121.5 50.5t49.5 128.5t-49 127t-122 49q-72 0 -121.5 -49.5t-49.5 -126.5t50 -128t121 -51z" />
    <glyph glyph-name="p" unicode="p" horiz-adv-x="614" 
d="M330 489q46 0 89 -17.5t76.5 -49t53.5 -79.5t20 -104q0 -75 -34.5 -132.5t-88.5 -87t-117 -29.5q-52 0 -98.5 24.5t-74.5 69.5v-245q0 -10 -9 -10h-71v642q0 9 9 9h61q10 0 10 -10v-79q25 47 72.5 72.5t101.5 25.5zM320 64q70 0 118.5 48.5t48.5 126.5q0 80 -48.5 129
t-118.5 49t-118 -49.5t-48 -128.5q0 -51 22.5 -91.5t60 -62t83.5 -21.5z" />
    <glyph glyph-name="q" unicode="q" horiz-adv-x="598" 
d="M518 480q9 0 9 -10v-632q0 -9 -10 -9h-61q-9 0 -9 9v250q-28 -48 -74 -73t-101 -25q-95 0 -161.5 68.5t-66.5 181.5t65 181.5t163 68.5q39 0 73 -12t61.5 -36t45.5 -58v87q0 9 10 9h56zM286.5 56q67.5 0 117 50t49.5 134q0 83 -48.5 132.5t-117.5 49.5q-71 0 -119 -49
t-48 -134q0 -84 49.5 -133.5t117 -49.5z" />
    <glyph glyph-name="r" unicode="r" horiz-adv-x="360" 
d="M325 490q10 0 10 -10v-64q0 -9 -10 -10q-43 0 -80 -20q-45 -25 -70.5 -81t-25.5 -135v-161q0 -9 -10 -9h-60q-10 0 -10 10v461q0 9 10 9h58q9 0 9 -10v-145q41 160 179 165z" />
    <glyph glyph-name="s" unicode="s" horiz-adv-x="448" 
d="M212 -9q-40 0 -81.5 9t-67.5 24q-5 4 -5 10v59q0 9 8 4q65 -38 143 -38q52 0 82 21t30 56q0 33 -26.5 49t-91.5 35q-33 9 -56 19t-45 25.5t-33.5 38.5t-11.5 53q0 61 49.5 97.5t127.5 36.5q73 0 136 -28q5 -2 5 -9v-56q0 -9 -8 -5q-62 31 -131 31q-24 0 -43 -4.5
t-31.5 -13t-19 -20t-6.5 -26.5q0 -11 3.5 -20t12 -16.5t15.5 -12.5t23.5 -10.5t25 -8.5t29.5 -9q35 -10 58.5 -19.5t47 -25.5t34.5 -39.5t11 -54.5q0 -70 -50 -111t-134 -41z" />
    <glyph glyph-name="t" unicode="t" horiz-adv-x="359" 
d="M310 63q6 2 9 2q11 0 11 -16v-33q0 -10 -9 -13q-42 -13 -83 -13q-70 0 -104 36.5t-34 115.5v281h-74q-9 0 -9 9v39q0 9 10 9h73v137q0 10 10 10h61q9 0 9 -10v-137h133q9 0 9 -10v-38q0 -9 -9 -9h-133v-272q0 -34 9 -55t26.5 -30.5t45.5 -9.5q25 0 49 7z" />
    <glyph glyph-name="u" unicode="u" horiz-adv-x="551" 
d="M467 480q9 0 9 -10v-461q0 -9 -9 -9h-53q-9 0 -10 10l-2 69q-47 -88 -153 -88q-80 0 -128.5 49.5t-48.5 146.5v284q0 9 10 9h61q9 0 9 -10v-282q0 -130 118 -130q58 0 92.5 40t34.5 103v270q0 9 9 9h61z" />
    <glyph glyph-name="v" unicode="v" horiz-adv-x="503" 
d="M476 480q9 0 5 -9l-189 -462q-4 -9 -14 -9h-54q-9 0 -13 9l-190 462q-1 3 -1 5q0 4 7 4h71q10 0 13 -9l143 -371l140 371q3 9 13 9h69z" />
    <glyph glyph-name="w" unicode="w" horiz-adv-x="689" 
d="M665 480q9 0 6 -9l-140 -462q-3 -9 -12 -9h-53q-9 0 -12 9l-109 364l-109 -364q-3 -9 -13 -9h-51q-9 0 -12 9l-143 462v4q0 5 7 5h67q9 0 12 -9l100 -354l104 354q2 9 12 9h53q10 0 12 -9l108 -354l96 354q2 9 12 9h65z" />
    <glyph glyph-name="x" unicode="x" horiz-adv-x="479" 
d="M461 16q5 -6 5 -10q0 -6 -14 -6h-74q-9 0 -14 8l-125 181l-132 -181q-6 -8 -16 -8h-66q-13 0 -13 6q0 4 5 11l175 226l-163 220q-5 7 -5 10q0 7 14 7h68q9 0 15 -8l119 -172l123 172q6 8 15 8h66q13 0 13 -6q0 -4 -5 -11l-164 -218z" />
    <glyph glyph-name="y" unicode="y" horiz-adv-x="499" 
d="M479 480q9 0 6 -9l-222 -513q-59 -139 -161 -139q-47 0 -79 17q-8 4 -8 14v48q0 10 8 5q35 -19 74 -19q68 0 102 90l16 37l-203 460q-1 3 -1 5q0 4 7 4h64q10 0 13 -9l155 -375l155 375q4 9 14 9h60z" />
    <glyph glyph-name="z" unicode="z" horiz-adv-x="444" 
d="M33 0q-9 0 -9 10v13q0 9 6 17l269 371h-249q-9 0 -9 10v50q0 9 9 9h351q9 0 9 -10v-13q0 -9 -5 -17l-272 -371h269q9 0 9 -10v-50q0 -9 -10 -9h-368z" />
    <glyph glyph-name="braceleft" unicode="{" horiz-adv-x="250" 
d="M177 669q-29 0 -46 -16t-17 -44q0 -29 33.5 -111.5t33.5 -117.5q0 -32 -19.5 -58t-56.5 -32q37 -6 56.5 -32t19.5 -58q0 -35 -33.5 -117.5t-33.5 -111.5q0 -27 17 -43.5t46 -16.5q16 0 32 4h3q6 0 6 -8v-24q0 -10 -9 -12q-22 -7 -52 -7q-52 0 -78.5 27.5t-26.5 69.5
q0 39 34.5 123t34.5 113q0 60 -63 67q-9 1 -9 10v33q0 9 9 10q63 7 63 66q0 29 -34.5 113t-34.5 123q0 43 26.5 70.5t78.5 27.5q30 0 52 -7q9 -3 9 -13v-24q0 -9 -10 -7q-15 3 -31 3z" />
    <glyph glyph-name="bar" unicode="|" horiz-adv-x="148" 
d="M57 -200q-9 0 -9 10v1021q0 9 9 9h34q9 0 9 -10v-1021q0 -9 -10 -9h-33z" />
    <glyph glyph-name="braceright" unicode="}" horiz-adv-x="250" 
d="M194 317q10 -1 10 -11v-32q0 -9 -10 -10q-63 -7 -63 -67q0 -29 34.5 -113t34.5 -123q0 -27 -10.5 -48.5t-35 -35t-59.5 -13.5q-30 0 -52 7q-9 2 -9 12v25q0 9 10 7q15 -4 31 -4q29 0 46 16.5t17 43.5q0 29 -33.5 111.5t-33.5 117.5q0 32 19.5 58t57.5 32q-38 6 -57.5 32
t-19.5 58q0 35 33.5 117.5t33.5 111.5q0 18 -7.5 31.5t-21.5 21t-34 7.5q-16 0 -31 -3q-2 -1 -4 -1q-6 0 -6 8v24q0 10 9 13q22 6 52 6q52 0 78.5 -27t26.5 -70q0 -39 -34.5 -123t-34.5 -113q0 -59 63 -66z" />
    <glyph glyph-name="asciitilde" unicode="~" horiz-adv-x="561" 
d="M364 228q-22 0 -42.5 9t-32 18t-29.5 26q-16 17 -25 24.5t-26 15.5t-34 8q-33 0 -52 -25t-22 -67q-1 -9 -10 -9h-33q-10 0 -9 10q3 67 34 110.5t85 43.5q18 0 34.5 -4.5t31 -14t23.5 -17t22 -20.5q16 -15 25 -23t24 -15t32 -7q29 0 46.5 23.5t19.5 61.5q0 9 10 9h33
q10 0 10 -9q-2 -44 -16.5 -77.5t-40 -52t-58.5 -18.5z" />
    <glyph glyph-name="nbspace" unicode="&#xa0;" horiz-adv-x="214" 
 />
    <glyph glyph-name="exclamdown" unicode="&#xa1;" horiz-adv-x="238" 
d="M119 720q26 0 42.5 -18t16.5 -44t-16.5 -44t-42.5 -18t-42.5 18t-16.5 44t16.5 44t42.5 18zM89 515q1 9 10 9h39q10 0 10 -10l13 -502q0 -10 -9 -10h-67q-9 0 -9 10z" />
    <glyph glyph-name="cent" unicode="&#xa2;" horiz-adv-x="474" 
d="M421 198q7 3 10 3q9 0 9 -14v-42q0 -9 -9 -13q-56 -23 -125 -23q-14 0 -27 1l-10 -125q0 -9 -10 -9h-28q-9 0 -8 9l10 133q-83 21 -135 85t-52 156q0 101 60.5 167t157.5 79l10 120q1 9 11 9h27q10 0 9 -9l-10 -117q67 -1 114 -22q9 -3 9 -13v-43q0 -13 -8 -13
q-4 0 -11 3q-43 22 -98 22q-80 0 -134 -50.5t-54 -133.5t54.5 -132t136.5 -49q55 0 101 21z" />
    <glyph glyph-name="sterling" unicode="&#xa3;" horiz-adv-x="585" 
d="M508 694q9 -4 9 -14v-51q0 -9 -9 -4q-49 28 -108 28q-60 0 -94.5 -37t-42.5 -103l-13 -113h200q9 0 9 -9v-42q0 -10 -9 -10h-208l-33 -272h281q9 0 9 -10v-48q0 -9 -10 -9h-416q-10 0 -10 10v47q0 10 10 10h58l32 272h-72q-10 0 -10 10v42q0 9 10 9h80l14 120
q7 63 32 108t68 68.5t101 23.5q70 0 122 -26z" />
    <glyph glyph-name="currency" unicode="&#xa4;" horiz-adv-x="585" 
d="M458 226l105 -111q7 -7 0 -13l-22 -21q-7 -6 -13 1l-102 106q-56 -49 -134 -49q-79 0 -134 50l-102 -108q-7 -7 -14 0l-21 21q-7 7 0 14l105 110q-39 57 -39 134q0 78 40 136l-107 111q-6 7 1 14l22 20q6 7 13 0l103 -108q55 48 133 48q77 0 132 -48l104 108q6 7 13 0
l22 -21q7 -6 0 -13l-106 -111q40 -58 40 -136q0 -77 -39 -134zM292 198q63 0 104 46t41 116t-40.5 116t-104.5 46t-104.5 -46t-40.5 -116t40.5 -116t104.5 -46z" />
    <glyph glyph-name="yen" unicode="&#xa5;" horiz-adv-x="574" 
d="M551 710q13 0 13 -7q0 -5 -4 -11l-212 -361h118q10 0 10 -10v-43q0 -9 -10 -9h-138v-260q0 -9 -10 -9h-63q-10 0 -10 10v259h-136q-9 0 -9 9v44q0 9 9 9h117l-214 361q-3 7 -3 10q0 8 14 8h61q9 0 14 -8l192 -335l189 335q4 8 14 8h58z" />
    <glyph glyph-name="brokenbar" unicode="&#xa6;" horiz-adv-x="148" 
d="M57 424q-9 0 -9 9v398q0 9 9 9h34q9 0 9 -10v-397q0 -9 -10 -9h-33zM57 -200q-9 0 -9 10v397q0 9 9 9h34q9 0 9 -9v-398q0 -9 -10 -9h-33z" />
    <glyph glyph-name="section" unicode="&#xa7;" horiz-adv-x="548" 
d="M434 276q76 -95 76 -191q0 -115 -76 -189.5t-201 -74.5q-94 0 -185 41q-8 4 -8 14v51q0 9 9 5q88 -44 187 -44q126 0 189 75l-316 392q-38 49 -56 88.5t-18 88.5q0 100 69.5 162t180.5 62q88 0 160 -27q9 -3 9 -13v-53q0 -9 -9 -5q-36 14 -85 22.5t-87 8.5
q-84 0 -137 -43zM142 374l304 -380q22 42 22 95q0 84 -63 162l-295 369q-32 -42 -32 -100q0 -38 15 -70t49 -76z" />
    <glyph glyph-name="dieresis" unicode="&#xa8;" horiz-adv-x="600" 
d="M8 634q-19 0 -31 13t-12 32t12 32t31 13t31 -13t12 -32t-12 -32t-31 -13zM159 634q-19 0 -31.5 13t-12.5 32t12.5 32t31.5 13q18 0 30 -13t12 -32t-12 -32t-30 -13z" />
    <glyph glyph-name="copyright" unicode="&#xa9;" horiz-adv-x="808" 
d="M404 -11q-74 0 -141 26.5t-116 73.5t-78 115t-29 147q0 107 50 192.5t133 131t181 45.5t181 -45.5t133.5 -131t50.5 -192.5q0 -105 -49.5 -188.5t-132.5 -128.5t-183 -45zM404 16q92 0 168.5 41.5t122.5 118.5t46 175q0 101 -46 180t-122.5 121t-168.5 42t-168.5 -42
t-122.5 -121t-46 -180q0 -98 46 -175t122.5 -118.5t168.5 -41.5zM408 150q-78 0 -134.5 57.5t-56.5 149.5q0 90 57 146t135 56q55 0 100 -25q7 -4 7 -13v-39q0 -9 -8 -4q-43 27 -92 27q-56 0 -97 -41t-41 -107q0 -69 41 -110.5t97 -41.5t98 30q8 6 8 -3v-40q0 -8 -8 -13
q-49 -29 -106 -29z" />
    <glyph glyph-name="ordfeminine" unicode="&#xaa;" horiz-adv-x="433" 
d="M187 403q-59 0 -100 44t-41 114q0 71 40 114.5t101 43.5q73 0 109 -58v41q0 9 8 9h49q9 0 9 -9v-284q0 -9 -9 -9h-49q-8 0 -8 9v47q-38 -62 -109 -62zM206 666q-39 0 -65 -28.5t-26 -77.5q0 -48 27 -76.5t64 -28.5t63.5 28.5t26.5 76.5q0 49 -26 77.5t-64 28.5zM369 340
q8 0 8 -8v-25q0 -8 -9 -8h-304q-8 0 -8 9v24q0 8 8 8h305z" />
    <glyph glyph-name="guillemetleft" unicode="&#xab;" horiz-adv-x="555" 
d="M246 46q-6 -8 -12 0l-177 206q-3 3 -3 7q0 3 4 7l175 193q7 7 13 0l27 -27q7 -6 0 -14l-135 -159l136 -167q3 -3 3 -7q0 -3 -4 -7zM441 46q-6 -8 -13 0l-176 206q-3 3 -3 7q0 3 3 7l176 193q6 7 13 0l26 -27q7 -6 1 -14l-136 -159l136 -167q3 -3 3 -7q0 -3 -3 -7z" />
    <glyph glyph-name="logicalnot" unicode="&#xac;" horiz-adv-x="561" 
d="M467 369q9 0 9 -10v-210q0 -10 -9 -10h-44q-9 0 -9 10v159h-353q-10 0 -10 9v43q0 9 10 9h406z" />
    <glyph glyph-name="softhyphen" unicode="&#xad;" horiz-adv-x="409" 
d="M72 227q-9 0 -9 9v44q0 9 10 9h263q10 0 10 -10v-43q0 -9 -10 -9h-264z" />
    <glyph glyph-name="registered" unicode="&#xae;" horiz-adv-x="476" 
d="M237.5 720q80.5 0 134.5 -54t54 -139q0 -86 -53 -139.5t-135 -53.5t-135 54t-53 139t53.5 139t134 54zM238 357q71 0 117 47t46 123t-46 123t-117 47q-47 0 -84 -21t-58 -60t-21 -89t21 -89t58 -60t84 -21zM256 523l61 -73q5 -6 5 -10q0 -6 -14 -6h-8q-9 0 -15 7l-62 80
h-13v-78q0 -9 -10 -9h-12q-9 0 -9 10v180q0 9 10 9h50q31 0 49.5 -15t18.5 -40q0 -22 -13.5 -36.5t-37.5 -18.5zM210 608v-65h26q12 0 21 4t14 11.5t5 17.5q0 14 -11 23t-29 9h-26z" />
    <glyph glyph-name="macron" unicode="&#xaf;" horiz-adv-x="593" 
d="M-113 628q-9 0 -9 10v34q0 9 10 9h262q9 0 9 -10v-33q0 -10 -9 -10h-263z" />
    <glyph glyph-name="degree" unicode="&#xb0;" horiz-adv-x="336" 
d="M168 460q-55 0 -92.5 37.5t-37.5 93.5t37.5 92.5t92.5 36.5t92.5 -36.5t37.5 -92.5t-37.5 -93.5t-92.5 -37.5zM168 506q17 0 31.5 6.5t25 18t16.5 27t6 33.5q0 36 -22.5 59.5t-56 23.5t-56.5 -23.5t-23 -59.5t23 -60.5t56 -24.5z" />
    <glyph glyph-name="plusminus" unicode="&#xb1;" horiz-adv-x="561" 
d="M61 322q-10 0 -10 9v43q0 10 10 10h173v142q0 9 10 9h40q10 0 10 -10v-141h173q9 0 9 -10v-43q0 -9 -9 -9h-173v-143q0 -9 -10 -9h-40q-10 0 -10 10v142h-173zM513 123q9 0 9 -10v-43q0 -9 -10 -9h-464q-9 0 -9 9v43q0 10 9 10h465z" />
    <glyph glyph-name="twosuperior" unicode="&#xb2;" horiz-adv-x="369" 
d="M310 470q9 0 9 -10v-26q0 -10 -9 -10h-270q-9 0 -3 7l145 176q14 17 21 26t17 23t14.5 24t8 22t3.5 24q0 22 -12 39.5t-34.5 27.5t-51.5 10q-48 0 -92 -27q-7 -4 -7 5v30q0 10 8 14q46 25 105 25q62 0 100.5 -30.5t38.5 -80.5q0 -25 -9 -49t-22 -43t-36 -47l-111 -130
h187z" />
    <glyph glyph-name="threesuperior" unicode="&#xb3;" horiz-adv-x="356" 
d="M199 650q55 -9 85 -37.5t30 -69.5q0 -55 -45 -90t-115 -35q-59 0 -103 18q-8 3 -8 13v28q0 9 9 5q45 -18 94 -18q48 0 78 23t30 58.5t-34 57t-95 21.5h-13q-10 0 -10 9v23q0 10 10 10h11q56 0 85.5 21.5t29.5 52.5q0 19 -11.5 34t-33 24t-49.5 9q-44 0 -84 -19
q-8 -3 -8 6v26q0 10 9 13q42 17 92 17q64 0 102.5 -28t38.5 -71q0 -34 -24.5 -62t-70.5 -39z" />
    <glyph glyph-name="acute" unicode="&#xb4;" horiz-adv-x="600" 
d="M215 559q-10 0 -5 9l105 195q4 8 13 5l59 -19q9 -3 3 -11l-123 -171q-6 -8 -15 -8h-37z" />
    <glyph glyph-name="micro" unicode="&#xb5;" horiz-adv-x="546" 
d="M467 480q9 0 9 -10v-461q0 -9 -10 -9h-50q-9 0 -9 10l-3 80l-4 3q-39 -103 -142 -103q-81 0 -115 56l7 -208q0 -9 -10 -9h-62q-10 0 -10 10l7 231l-5 401q0 9 10 9h61q9 0 9 -10v-289q0 -131 113 -131q41 0 71.5 21t46.5 58.5t16 88.5v253q0 9 9 9h61z" />
    <glyph glyph-name="paragraph" unicode="&#xb6;" horiz-adv-x="578" 
d="M386 710q10 0 10 -10v-664q0 -112 -56 -199q-5 -8 -15 -8h-30q-9 0 -4 8q60 87 60 199v246h-27q-109 0 -178 59t-69 155q0 97 69 155.5t178 58.5h62zM489 202v-4.5v-3.5q0 -114 -39 -171q-6 -8 -6 2v676q0 9 10 9h26q9 0 9 -10v-498z" />
    <glyph glyph-name="periodcentered" unicode="&#xb7;" horiz-adv-x="230" 
d="M115 195q-26 0 -42.5 18t-16.5 44t16.5 44t42.5 18t42.5 -18t16.5 -44t-16.5 -44t-42.5 -18z" />
    <glyph glyph-name="cedilla" unicode="&#xb8;" horiz-adv-x="580" 
d="M220 -42q34 0 55.5 -17.5t21.5 -45.5q0 -34 -28.5 -54.5t-71.5 -20.5q-39 0 -67 12q-7 3 -7 12v26q0 8 7 4q30 -13 62 -13q22 0 37 8.5t15 23.5t-13 23t-34 8q-25 0 -46 -8l-3 3l60 95h43l-37 -56h6z" />
    <glyph glyph-name="onesuperior" unicode="&#xb9;" horiz-adv-x="354" 
d="M222 844q9 0 9 -10v-400q0 -10 -10 -10h-35q-9 0 -9 10v348l-110 -43q-3 -1 -5 -1q-4 0 -4 7v30q0 9 9 13l124 53q8 3 16 3h15z" />
    <glyph glyph-name="ordmasculine" unicode="&#xba;" horiz-adv-x="405" 
d="M203 414q-68 0 -113 44t-45 110q0 67 45 109.5t113 42.5q67 0 112 -42.5t45 -109.5q0 -66 -45 -110t-112 -44zM203 470q40 0 66.5 27.5t26.5 70.5t-26.5 70t-66.5 27t-66.5 -27t-26.5 -70t26.5 -70.5t66.5 -27.5zM66 310q-9 0 -9 8v25q0 8 9 8h278q8 0 8 -8v-25
q0 -8 -8 -8h-278z" />
    <glyph glyph-name="guillemetright" unicode="&#xbb;" horiz-adv-x="555" 
d="M127 46q-6 -8 -13 0l-27 32q-3 4 -3 7.5t3 7.5l136 166l-136 160q-3 3 -3 6q0 4 4 8l27 26q6 7 13 0l175 -193q7 -7 0 -14zM321 46q-6 -7 -12 0l-27 32q-3 4 -3 7.5t3 7.5l135 166l-135 160q-3 3 -3 6q0 4 4 8l26 26q7 7 13 0l176 -193q6 -7 0 -14z" />
    <glyph glyph-name="onequarter" unicode="&#xbc;" horiz-adv-x="751" 
d="M659 716q8 -5 3 -13l-468 -719q-6 -8 -14 -3l-13 8q-8 5 -3 13l468 719q5 8 14 3zM177 304v348l-110 -43q-3 -1 -5 -1q-4 0 -4 7v30q0 9 9 13l124 53q8 3 16 3h15q9 0 9 -10v-400q0 -10 -10 -10h-35q-9 0 -9 10zM721 119q9 0 9 -9v-24q0 -9 -9 -9h-49v-68q0 -9 -10 -9
h-32q-9 0 -9 10v67h-193q-8 0 -8 8v25q0 8 5 15l194 288q5 7 13 7h31q9 0 9 -10v-291h49zM623 342l-155 -223h154z" />
    <glyph glyph-name="onehalf" unicode="&#xbd;" horiz-adv-x="846" 
d="M659 716q8 -5 3 -13l-468 -719q-6 -8 -14 -3l-13 8q-8 5 -3 13l468 719q5 8 14 3zM177 304v348l-110 -43q-3 -1 -5 -1q-4 0 -4 7v30q0 9 9 13l124 53q8 3 16 3h15q9 0 9 -10v-400q0 -10 -10 -10h-35q-9 0 -9 10zM787 46q10 0 10 -10v-27q0 -9 -10 -9h-270q-8 0 -3 7
l145 176q23 28 34 43t20.5 36t9.5 40q0 34 -27 55.5t-70 21.5q-49 0 -92 -27q-8 -4 -8 5v30q0 10 8 14q46 25 106 25q62 0 100.5 -30.5t38.5 -80.5q0 -36 -16.5 -66.5t-51.5 -72.5l-111 -130h187z" />
    <glyph glyph-name="threequarters" unicode="&#xbe;" horiz-adv-x="745" 
d="M653 716q8 -5 3 -13l-468 -719q-5 -8 -14 -3l-13 8q-8 5 -3 13l468 719q5 8 14 3zM314 413q0 -55 -45 -90t-115 -35q-59 0 -103 18q-8 3 -8 13v28q0 9 9 5q45 -18 94 -18q48 0 78 23t30 58.5t-34 57t-95 21.5h-13q-10 0 -10 9v23q0 10 10 10h11q37 0 64 11t39 27.5
t12 35.5q0 29 -26 48t-68 19q-44 0 -84 -19q-8 -3 -8 6v26q0 10 9 13q42 17 92 17q64 0 102.5 -28t38.5 -71q0 -34 -24.5 -62t-70.5 -39q55 -9 85 -37.5t30 -69.5zM715 119q10 0 10 -9v-24q0 -9 -10 -9h-49v-68q0 -9 -9 -9h-33q-9 0 -9 10v67h-192q-9 0 -9 8v25q0 8 5 15
l194 288q5 7 14 7h30q9 0 9 -10v-291h49zM617 342l-154 -223h153z" />
    <glyph glyph-name="questiondown" unicode="&#xbf;" horiz-adv-x="484" 
d="M286 720q27 0 43.5 -17t16.5 -42q0 -12 -4 -22.5t-12 -18.5t-19.5 -12.5t-24.5 -4.5q-26 0 -42.5 17t-16.5 41.5t16.5 41.5t42.5 17zM305 538q8 0 8 -7l5 -146q0 -9 -8 -12q-40 -19 -66.5 -35t-53.5 -38t-40 -49.5t-13 -61.5q0 -59 45.5 -95t117.5 -36q74 0 140 33
q8 4 8 -6v-47q0 -10 -9 -13q-69 -33 -157 -33q-102 0 -163.5 52t-61.5 136q0 43 16 79.5t46.5 64t60.5 46.5t71 39l4 122q0 7 8 7h42z" />
    <glyph glyph-name="Agrave" unicode="&#xc0;" horiz-adv-x="663" 
d="M286 771l-102 124q-6 8 4 8h76q10 0 14 -9l60 -122q4 -8 -6 -8h-30q-9 0 -16 7zM635 9q1 -3 1 -5q0 -4 -7 -4h-72q-10 0 -13 9q-47 121 -73 190h-299q-19 -49 -74 -190q-3 -9 -13 -9h-66q-10 0 -6 9l279 695q3 9 13 9h40q9 0 13 -9zM198 267h248q-68 183 -123 341
q-55 -155 -125 -341z" />
    <glyph glyph-name="Aacute" unicode="&#xc1;" horiz-adv-x="663" 
d="M297 762q-9 0 -5 9l59 121q4 9 14 9h78q10 0 3 -8l-103 -124q-6 -7 -16 -7h-30zM635 9q1 -3 1 -5q0 -4 -7 -4h-72q-10 0 -13 9q-47 122 -73 191h-299q-19 -50 -74 -191q-3 -9 -13 -9h-66q-10 0 -6 9l279 695q3 9 13 9h40q9 0 13 -9zM198 267h248q-68 183 -123 341
q-55 -154 -125 -341z" />
    <glyph glyph-name="Acircumflex" unicode="&#xc2;" horiz-adv-x="663" 
d="M185 756q-8 0 -3 7l108 130q5 7 14 7h40q9 0 14 -7l107 -130q6 -7 -3 -7h-39q-9 0 -14 6l-85 89l-84 -89q-6 -6 -14 -6h-41zM635 9q1 -3 1 -5q0 -4 -7 -4h-72q-10 0 -13 9q-47 122 -73 190h-299q-19 -49 -74 -190q-3 -9 -13 -9h-66q-10 0 -6 9l279 695q3 9 13 9h40
q9 0 13 -9zM198 267h248q-68 183 -123 341q-55 -155 -125 -341z" />
    <glyph glyph-name="Atilde" unicode="&#xc3;" horiz-adv-x="663" 
d="M175 779q-3 0 -4 1t-1 4q2 50 26 82.5t65 32.5q16 0 31 -6.5t22 -11.5t21 -17q32 -27 52 -27t31 14.5t12 38.5q0 6 5 6h36q3 0 4.5 -1.5t1.5 -3.5q-2 -50 -25.5 -82.5t-61.5 -32.5q-15 0 -30 6t-22.5 11.5t-21.5 16.5q-1 1 -5 4.5t-5 4t-4.5 3.5t-5 4t-5 3t-5.5 3l-5 2.5
t-6 2l-6 1t-7 0.5q-20 0 -32.5 -14.5t-14.5 -39.5q0 -5 -5 -5h-35zM635 9q1 -3 1 -5q0 -4 -7 -4h-72q-10 0 -13 9q-47 122 -73 190h-299q-19 -49 -74 -190q-3 -9 -13 -9h-66q-10 0 -6 9l279 695q3 9 13 9h40q9 0 13 -9zM198 267h248q-68 183 -123 341q-55 -154 -125 -341z
" />
    <glyph glyph-name="Adieresis" unicode="&#xc4;" horiz-adv-x="663" 
d="M245 778q-15 0 -27.5 7.5t-19 20.5t-6.5 28q0 23 15 39.5t38 16.5t38 -16.5t15 -40t-15 -39.5t-38 -16zM412 778q-24 0 -39 16t-15 40q0 15 6.5 28t19 20.5t28.5 7.5q23 0 38 -16.5t15 -40t-15 -39.5t-38 -16zM635 9q1 -3 1 -5q0 -4 -7 -4h-72q-10 0 -13 9
q-47 122 -73 190h-299q-19 -49 -74 -190q-3 -9 -13 -9h-66q-10 0 -6 9l279 695q3 9 13 9h40q9 0 13 -9zM198 267h248q-68 183 -123 341q-55 -155 -125 -341z" />
    <glyph glyph-name="Aring" unicode="&#xc5;" horiz-adv-x="663" 
d="M324 743q-38 0 -65 26.5t-27 66.5q0 39 27 64t65 25t65.5 -25t27.5 -64q0 -40 -27.5 -66.5t-65.5 -26.5zM324 891q-23 0 -38 -15.5t-15 -39.5q0 -25 15 -41t38 -16t38 16t15 41q0 23 -15 39t-38 16zM635 9q1 -3 1 -5q0 -4 -7 -4h-72q-10 0 -13 9q-47 122 -73 190h-299
q-19 -49 -74 -190q-3 -9 -13 -9h-66q-10 0 -6 9l279 695q3 9 13 9h40q9 0 13 -9zM198 267h248q-68 183 -123 341q-55 -155 -125 -341z" />
    <glyph glyph-name="AE" unicode="&#xc6;" horiz-adv-x="808" 
d="M747 646h-246v-244h219q10 0 10 -10v-45q0 -9 -10 -9h-219v-274h247q9 0 9 -9v-46q0 -9 -10 -9h-314q-10 0 -10 10v181h-226l-100 -183q-5 -8 -14 -8h-68q-10 0 -5 8l388 694q5 8 14 8h336q9 0 9 -9v-46q0 -9 -10 -9zM233 256h190v347z" />
    <glyph glyph-name="Ccedilla" unicode="&#xc7;" horiz-adv-x="643" 
d="M577 97q6 2 10 2q9 0 9 -15v-48q0 -9 -9 -13q-83 -33 -176 -33h-8l-21 -32h6q34 0 55.5 -17.5t21.5 -45.5q0 -34 -28.5 -54.5t-70.5 -20.5q-40 0 -68 12q-7 3 -7 12v26q0 8 7 4q30 -13 62 -13q22 0 37.5 8.5t15.5 23.5t-13.5 23t-33.5 8q-26 0 -47 -8l-2 3l46 74
q-140 16 -231.5 115t-91.5 250q0 82 29.5 150.5t80.5 114.5t119.5 71.5t144.5 25.5q84 0 164 -30q9 -3 9 -13v-50q0 -14 -9 -14q-4 0 -11 3q-69 31 -146 31q-129 0 -214 -79.5t-85 -208.5q0 -134 85 -214.5t214 -80.5q81 0 156 33z" />
    <glyph glyph-name="Egrave" unicode="&#xc8;" horiz-adv-x="505" 
d="M224 771l-102 124q-7 8 4 8h76q9 0 14 -9l59 -122q4 -8 -5 -8h-30q-10 0 -16 7zM445 642h-288v-239h256q10 0 10 -9v-49q0 -10 -10 -10h-256v-267h288q10 0 10 -10v-49q0 -9 -10 -9h-359q-9 0 -9 10v691q0 9 9 9h359q10 0 10 -10v-48q0 -10 -10 -10z" />
    <glyph glyph-name="Eacute" unicode="&#xc9;" horiz-adv-x="505" 
d="M235 762q-10 0 -5 9l59 121q4 9 14 9h77q10 0 4 -8l-104 -124q-6 -7 -15 -7h-30zM445 642h-288v-239h256q10 0 10 -9v-49q0 -9 -10 -9h-256v-268h288q10 0 10 -10v-49q0 -9 -10 -9h-359q-9 0 -9 10v691q0 9 9 9h359q10 0 10 -10v-48q0 -10 -10 -10z" />
    <glyph glyph-name="Ecircumflex" unicode="&#xca;" horiz-adv-x="505" 
d="M123 756q-9 0 -3 7l108 130q5 7 13 7h41q8 0 14 -7l107 -130q6 -7 -3 -7h-40q-8 0 -14 6l-84 89l-84 -89q-6 -6 -15 -6h-40zM445 642h-288v-239h257q9 0 9 -9v-49q0 -9 -10 -9h-256v-268h288q10 0 10 -10v-49q0 -9 -10 -9h-359q-9 0 -9 10v691q0 9 9 9h359q10 0 10 -10
v-48q0 -10 -10 -10z" />
    <glyph glyph-name="Edieresis" unicode="&#xcb;" horiz-adv-x="505" 
d="M183 778q-15 0 -27.5 7.5t-19 20.5t-6.5 28q0 23 15 39.5t38 16.5t38 -16.5t15 -40t-15 -39.5t-38 -16zM349 778q-23 0 -38 16t-15 39.5t15 40t38 16.5t38 -16.5t15 -40t-15 -39.5t-38 -16zM445 642h-288v-239h256q10 0 10 -9v-49q0 -9 -10 -9h-256v-268h288q10 0 10 -10
v-49q0 -9 -10 -9h-359q-9 0 -9 10v691q0 9 9 9h359q10 0 10 -10v-48q0 -10 -10 -10z" />
    <glyph glyph-name="Igrave" unicode="&#xcc;" horiz-adv-x="262" 
d="M145 772q4 -8 -6 -8h-30q-9 0 -16 7l-102 124q-6 8 4 8h76q10 0 14 -9zM99 0q-10 0 -10 10v691q0 9 10 9h64q10 0 10 -10v-691q0 -9 -10 -9h-64z" />
    <glyph glyph-name="Iacute" unicode="&#xcd;" horiz-adv-x="262" 
d="M104 762q-9 0 -5 9l59 121q4 9 14 9h78q10 0 3 -8l-103 -124q-6 -7 -16 -7h-30zM99 0q-10 0 -10 10v691q0 9 10 9h64q10 0 10 -10v-691q0 -9 -10 -9h-64z" />
    <glyph glyph-name="Icircumflex" unicode="&#xce;" horiz-adv-x="262" 
d="M272 763q6 -7 -3 -7h-39q-9 0 -14 6l-85 89l-84 -89q-6 -6 -14 -6h-41q-8 0 -3 7l108 130q5 7 14 7h40q9 0 14 -7zM164 710q9 0 9 -10v-691q0 -9 -10 -9h-64q-9 0 -9 10v691q0 9 9 9h65z" />
    <glyph glyph-name="Idieresis" unicode="&#xcf;" horiz-adv-x="262" 
d="M52 778q-23 0 -38 16t-15 39.5t15 40t38 16.5t38 -16.5t15 -40t-15 -39.5t-38 -16zM219 778q-16 0 -28.5 7.5t-19 20.5t-6.5 28q0 23 15 39.5t39 16.5q23 0 38 -16.5t15 -40t-15 -39.5t-38 -16zM99 0q-10 0 -10 10v691q0 9 10 9h65q9 0 9 -10v-691q0 -9 -10 -9h-64z" />
    <glyph glyph-name="Eth" unicode="&#xd0;" horiz-adv-x="663" 
d="M227 710q188 0 303 -98.5t115 -256.5q0 -159 -114.5 -257t-303.5 -98h-141q-9 0 -9 10v328h-55q-9 0 -9 9v42q0 9 9 9h55v303q0 9 9 9h141zM229 69h1q150 0 240.5 77.5t90.5 206.5q0 132 -90.5 210t-240.5 78h-71v-245h193q9 0 9 -10v-37q0 -9 -10 -9h-192v-272z" />
    <glyph glyph-name="Ntilde" unicode="&#xd1;" horiz-adv-x="727" 
d="M215 779q-3 0 -4.5 1t-1.5 4q2 33 12.5 58.5t31 41t48.5 15.5q15 0 30.5 -6.5t22.5 -11.5t21 -17q32 -27 52 -27q13 0 22.5 6.5t14.5 18.5t6 28q0 6 5 6h36q3 0 4 -1.5t1 -3.5q-1 -50 -24.5 -82.5t-61.5 -32.5q-12 0 -22.5 3t-20.5 9t-15.5 10t-15.5 12q-1 1 -5 4.5t-5 4
t-4.5 3.5t-5 4t-5 3t-5.5 3t-5.5 2.5t-6 2t-6 1t-6.5 0.5q-20 0 -33 -14.5t-14 -39.5q-1 -5 -6 -5h-34zM641 710q9 0 9 -10v-691q0 -9 -10 -9h-45q-9 0 -15 8l-426 562v-561q0 -9 -10 -9h-58q-9 0 -9 10v691q0 9 9 9h45q9 0 15 -8l427 -564v563q0 9 9 9h59z" />
    <glyph glyph-name="Ograve" unicode="&#xd2;" horiz-adv-x="820" 
d="M420 773q4 -9 -6 -9h-30q-9 0 -16 8l-102 123q-6 8 4 8h76q10 0 14 -9zM406 -10q-100 0 -184 46.5t-133.5 130t-49.5 186.5t50 188t134 132t183 47t183 -47t134.5 -132t50.5 -188t-50 -186.5t-134 -130t-184 -46.5zM406 66q121 0 205.5 82.5t84.5 204.5q0 81 -39 148.5
t-105 105.5t-146 38q-121 0 -205 -84t-84 -208q0 -122 84 -204.5t205 -82.5z" />
    <glyph glyph-name="Oacute" unicode="&#xd3;" horiz-adv-x="820" 
d="M379 762q-9 0 -5 9l59 122q5 8 14 8h78q10 0 3 -8l-103 -123q-6 -8 -16 -8h-30zM406 -10q-100 0 -184 46.5t-133.5 130t-49.5 186.5q0 104 50 188.5t134 131.5t183 47t183 -47t134.5 -132t50.5 -188q0 -102 -50 -186t-134 -130.5t-184 -46.5zM406 66q80 0 146 37.5
t105 103.5t39 146q0 81 -39 148.5t-105 105.5t-146 38q-121 0 -205 -84t-84 -208q0 -122 84 -204.5t205 -82.5z" />
    <glyph glyph-name="Ocircumflex" unicode="&#xd4;" horiz-adv-x="820" 
d="M267 757q-8 0 -3 6l108 130q5 7 14 7h41q8 0 13 -7l107 -130q6 -6 -3 -6h-39q-8 0 -14 6l-85 88l-84 -88q-6 -6 -14 -6h-41zM406 720q74 0 141.5 -27.5t117.5 -76t79.5 -117.5t29.5 -146q0 -102 -50 -186t-134 -130.5t-184 -46.5t-184 46.5t-133.5 130t-49.5 186.5
t50 188t134 132t183 47zM406 66q121 0 205.5 82.5t84.5 204.5q0 81 -39 148.5t-105 105.5t-146 38q-121 0 -205 -84t-84 -208q0 -122 84 -204.5t205 -82.5z" />
    <glyph glyph-name="Otilde" unicode="&#xd5;" horiz-adv-x="820" 
d="M345 838q-21 0 -33.5 -14t-14.5 -39q0 -6 -5 -6h-35q-3 0 -4 1.5t-1 4.5q1 32 11.5 57.5t31 41.5t48.5 16q16 0 31 -6.5t22 -12t22 -17.5q31 -27 51 -27t31 14.5t12 39.5q0 5 5 5h36q3 0 4.5 -1t1.5 -4q-2 -50 -25.5 -82t-60.5 -32q-16 0 -31 6t-22.5 11.5t-21.5 16.5
l-4.5 3.5t-5.5 4.5t-4.5 3.5t-5 3.5t-5 3.5t-5.5 3t-5 2t-5.5 2t-6 1t-6.5 0.5zM406 -10q-100 0 -184 46.5t-133.5 130t-49.5 186.5q0 104 50 188.5t134 131.5t183 47t183 -47t134.5 -132t50.5 -188q0 -102 -50 -186t-134 -130.5t-184 -46.5zM406 66q79 0 145.5 37.5
t105.5 103.5t39 146q0 81 -39 148.5t-105 105.5t-146 38q-121 0 -205 -84t-84 -208q0 -122 84 -204.5t205 -82.5z" />
    <glyph glyph-name="Odieresis" unicode="&#xd6;" horiz-adv-x="820" 
d="M328 778q-24 0 -39 16.5t-15 40t15 39.5t39 16q23 0 38 -16t15 -39.5t-15 -40t-38 -16.5zM494 778q-24 0 -39 16.5t-15 40t15 39.5t39 16q23 0 38 -16t15 -39.5t-15 -40t-38 -16.5zM406 -10q-100 0 -184 46.5t-133.5 130t-49.5 186.5t50 188t134 132t183 47t183 -47
t134.5 -132t50.5 -188q0 -102 -50 -186t-134 -130.5t-184 -46.5zM406 66q121 0 205.5 82.5t84.5 204.5q0 81 -39 148.5t-105 105.5t-146 38q-121 0 -205 -84t-84 -208q0 -122 84 -204.5t205 -82.5z" />
    <glyph glyph-name="multiply" unicode="&#xd7;" horiz-adv-x="561" 
d="M323 294l184 -184q7 -6 0 -13l-29 -32q-6 -6 -13 0l-185 186l-185 -185q-7 -7 -13 0l-29 31q-7 6 0 13l184 184l-184 184q-6 7 0 14l29 31q6 7 13 0l185 -185l185 184q6 7 13 0l29 -30q7 -6 0 -13z" />
    <glyph glyph-name="Oslash" unicode="&#xd8;" horiz-adv-x="820" 
d="M607 662q77 -49 122 -130t45 -179q0 -102 -50 -186t-134 -130.5t-184 -46.5q-91 0 -170 40l-34 -58q-4 -8 -14 -8h-22q-10 0 -5 8l44 75q-77 49 -121.5 129t-44.5 177q0 103 50 188t134 132t183 47q91 0 170 -40l34 57q4 8 14 8h22q9 0 5 -9zM117 353q0 -75 34 -137.5
t93 -101.5l294 500q-62 31 -132 31q-121 0 -205 -84t-84 -208zM406 66q121 0 205.5 82.5t84.5 204.5q0 76 -34.5 140t-93.5 103l-293 -500q61 -30 131 -30z" />
    <glyph glyph-name="Ugrave" unicode="&#xd9;" horiz-adv-x="663" 
d="M344 772q4 -8 -6 -8h-30q-9 0 -15 7l-103 124q-6 8 4 8h77q9 0 13 -9zM329 -10q-116 0 -185.5 70.5t-69.5 209.5v431q0 9 10 9h63q9 0 9 -9v-437q0 -103 47.5 -152.5t128.5 -49.5t128 49.5t47 152.5v437q0 9 10 9h63q9 0 9 -9v-431q0 -139 -71 -209.5t-189 -70.5z" />
    <glyph glyph-name="Uacute" unicode="&#xda;" horiz-adv-x="663" 
d="M303 762q-9 0 -5 9l60 121q4 9 14 9h77q10 0 3 -8l-103 -124q-6 -7 -16 -7h-30zM329 -10q-116 0 -185.5 70.5t-69.5 209.5v431q0 9 10 9h63q9 0 9 -9v-437q0 -102 47.5 -152t128.5 -50t128 50t47 152v437q0 9 10 9h63q9 0 9 -9v-431q0 -139 -71 -209.5t-189 -70.5z" />
    <glyph glyph-name="Ucircumflex" unicode="&#xdb;" horiz-adv-x="663" 
d="M192 756q-9 0 -3 7l107 130q6 7 14 7h41q8 0 14 -7l107 -130q5 -7 -4 -7h-39q-8 0 -14 6l-84 89l-85 -89q-5 -6 -14 -6h-40zM580 710q9 0 9 -9v-431q0 -139 -71 -209.5t-189 -70.5q-116 0 -185.5 70.5t-69.5 209.5v431q0 9 10 9h63q9 0 9 -9v-437q0 -103 47.5 -152.5
t128.5 -49.5t128 50t47 152v437q0 9 10 9h63z" />
    <glyph glyph-name="Udieresis" unicode="&#xdc;" horiz-adv-x="663" 
d="M252 778q-16 0 -28 7.5t-19 20.5t-7 28q0 23 15 39.5t39 16.5q23 0 38 -16.5t15 -40t-15 -39.5t-38 -16zM418 778q-23 0 -38 16t-15 40q0 15 6.5 28t19 20.5t27.5 7.5q23 0 38 -16.5t15 -40t-15 -39.5t-38 -16zM329 -10q-116 0 -185.5 70.5t-69.5 209.5v431q0 9 10 9h63
q9 0 9 -9v-437q0 -103 47.5 -152.5t128.5 -49.5t128 50t47 152v437q0 9 10 9h63q9 0 9 -9v-431q0 -139 -71 -209.5t-189 -70.5z" />
    <glyph glyph-name="Yacute" unicode="&#xdd;" horiz-adv-x="574" 
d="M260 762q-9 0 -5 9l60 121q4 9 13 9h78q10 0 3 -8l-103 -124q-6 -7 -16 -7h-30zM255 0q-10 0 -10 10v288l-233 395q-3 6 -3 10q0 7 14 7h61q9 0 14 -8l192 -335l189 335q4 8 14 8h58q13 0 13 -7q0 -5 -4 -11l-232 -394v-289q0 -9 -10 -9h-63z" />
    <glyph glyph-name="Thorn" unicode="&#xde;" horiz-adv-x="530" 
d="M245 574q118 0 188 -57.5t70 -156.5q0 -64 -31.5 -112.5t-90 -75.5t-136.5 -27h-86v-136q0 -9 -9 -9h-64q-9 0 -9 10v691q0 9 9 9h64q9 0 9 -10v-126h86zM244 212q82 0 128.5 40t46.5 108t-46.5 108t-128.5 40h-85v-296h85z" />
    <glyph glyph-name="germandbls" unicode="&#xdf;" horiz-adv-x="546" 
d="M330 -9q-63 0 -111 19q-5 2 -5 8v61q0 6 5 4q44 -23 96 -23q49 0 75.5 22.5t26.5 60.5q0 25 -13 46.5t-28 34.5t-45 35q-5 4 -18.5 13t-18.5 12.5t-15.5 12t-14.5 13t-12 12t-11 14t-6.5 15t-5 18t-1.5 19.5q0 12 3 24t6 20t11 20.5t12 17.5t16.5 20t16.5 20
q22 26 29 35.5t15 28.5t8 39q0 33 -26 54t-65 21q-46 0 -73.5 -29t-27.5 -89v-561q0 -9 -9 -9h-61q-10 0 -10 10v555q0 95 50 144t130 49q73 0 122 -38.5t49 -100.5q0 -24 -9 -47.5t-21.5 -41t-33.5 -41.5q-3 -3 -10.5 -12l-10 -12t-8 -9.5t-7.5 -9.5t-6 -8.5t-5.5 -8.5
t-3.5 -8t-3 -8.5t-1.5 -8t-0.5 -9.5q0 -7 1.5 -13.5t3.5 -11.5t8 -11t9.5 -10t13 -11t15 -10.5t19 -12.5t19.5 -14q51 -37 76.5 -71t25.5 -87q0 -45 -19.5 -79.5t-57 -53.5t-88.5 -19z" />
    <glyph glyph-name="agrave" unicode="&#xe0;" horiz-adv-x="609" 
d="M278 567l-124 171q-2 3 -2 5q0 4 6 6l59 19q2 1 4 1q6 0 9 -6l105 -196q4 -8 -5 -8h-37q-10 0 -15 8zM528 480q10 0 10 -10v-461q0 -9 -10 -9h-61q-9 0 -9 10v81q-25 -48 -73 -74t-105 -26q-58 0 -111 29t-88.5 88t-35.5 134q0 111 70.5 179.5t165.5 68.5q58 0 105 -24.5
t71 -72.5l1 78q0 9 9 9h61zM294 63q45 0 82.5 21.5t60 62.5t22.5 94q0 79 -47 127t-118 48t-119 -48.5t-48 -126.5q0 -79 49 -128.5t118 -49.5z" />
    <glyph glyph-name="aacute" unicode="&#xe1;" horiz-adv-x="609" 
d="M262 559q-9 0 -4 9l104 195q5 8 14 5l59 -19q8 -3 3 -11l-124 -171q-5 -8 -15 -8h-37zM528 480q10 0 10 -10v-461q0 -9 -10 -9h-61q-9 0 -9 10v81q-25 -48 -73 -74t-105 -26q-58 0 -111 29t-88.5 88t-35.5 134q0 111 70.5 179.5t165.5 68.5q38 0 71 -10.5t61 -32.5
t44 -54l1 78q0 9 9 9h61zM294 63q45 0 82.5 21.5t60 62.5t22.5 94q0 79 -47 127t-118 48t-119 -48.5t-48 -126.5q0 -53 23.5 -94t61 -62.5t82.5 -21.5z" />
    <glyph glyph-name="acircumflex" unicode="&#xe2;" horiz-adv-x="609" 
d="M173 560q-8 0 -4 7l111 175q4 7 13 7h36q9 0 13 -8l110 -174q5 -7 -4 -7h-40q-9 0 -13 7l-84 122l-83 -122q-5 -7 -13 -7h-42zM528 480q10 0 10 -10v-461q0 -9 -10 -9h-61q-9 0 -9 10v81q-25 -48 -73 -74t-105 -26q-58 0 -111 29t-88.5 88t-35.5 134q0 74 34 131.5
t87.5 87t114.5 29.5q58 0 105 -24.5t71 -72.5l1 78q0 9 9 9h61zM294 63q45 0 82.5 21.5t60 62.5t22.5 94q0 79 -47 127t-118 48t-119 -48.5t-48 -126.5q0 -79 49 -128.5t118 -49.5z" />
    <glyph glyph-name="atilde" unicode="&#xe3;" horiz-adv-x="609" 
d="M162 587q-3 0 -4 1t-1 4q1 56 25 92.5t66 36.5q16 0 31.5 -7t23 -14t20.5 -20q8 -8 12.5 -11.5t11.5 -9t13.5 -7.5t13.5 -2q20 0 31 16t12 45q1 5 6 5h36q3 0 4 -1t1 -4q-2 -53 -25 -87.5t-61 -34.5q-16 0 -30.5 6.5t-23 13.5t-21.5 19q-10 10 -16.5 15.5t-16.5 10.5
t-20 5q-21 0 -33.5 -18t-14.5 -49q0 -5 -5 -5h-35zM528 480q10 0 10 -10v-461q0 -9 -10 -9h-61q-9 0 -9 10v81q-24 -48 -72.5 -74t-105.5 -26q-58 0 -111 29t-88.5 88t-35.5 134q0 111 70.5 179.5t165.5 68.5q38 0 71 -10.5t61 -32.5t44 -54l1 78q0 9 9 9h61zM294 63
q69 0 117 49t48 129q0 79 -47 127t-118 48t-119 -48.5t-48 -126.5q0 -79 49 -128.5t118 -49.5z" />
    <glyph glyph-name="adieresis" unicode="&#xe4;" horiz-adv-x="609" 
d="M235 634q-19 0 -31 13t-12 32t12 32t31 13q9 0 17.5 -3.5t14 -9.5t8.5 -14.5t3 -17.5q0 -19 -12 -32t-31 -13zM386 634q-19 0 -31 13t-12 32q0 12 5 22.5t15 16.5t23 6q18 0 30.5 -13t12.5 -32t-12.5 -32t-30.5 -13zM528 480q10 0 10 -10v-461q0 -9 -10 -9h-61
q-9 0 -9 10v81q-25 -48 -73 -74t-105 -26q-58 0 -111 29t-88.5 88t-35.5 134q0 111 70.5 179.5t165.5 68.5q58 0 105 -24.5t71 -72.5l1 78q0 9 9 9h61zM294 63q45 0 82.5 21.5t60 62.5t22.5 94q0 79 -47 127t-118 48t-119 -48.5t-48 -126.5q0 -53 23.5 -94t61 -62.5
t82.5 -21.5z" />
    <glyph glyph-name="aring" unicode="&#xe5;" horiz-adv-x="609" 
d="M310 565q-25 0 -46 12t-33.5 33.5t-12.5 47.5q0 39 27 64t65 25t65.5 -25t27.5 -64q0 -40 -27 -66.5t-66 -26.5zM310 713q-23 0 -37.5 -15.5t-14.5 -39.5q0 -25 14.5 -41t37.5 -16t38 16t15 41q0 15 -6.5 28t-19 20t-27.5 7zM528 480q10 0 10 -10v-461q0 -9 -10 -9h-61
q-9 0 -9 10v81q-25 -48 -73 -74t-105 -26q-58 0 -111 29t-88.5 88t-35.5 134q0 111 70.5 179.5t165.5 68.5q58 0 105 -24.5t71 -72.5l1 78q0 9 9 9h61zM294 63q45 0 82.5 21.5t60 62.5t22.5 94q0 79 -47 127t-118 48t-119 -48.5t-48 -126.5q0 -79 49 -128.5t118 -49.5z" />
    <glyph glyph-name="ae" unicode="&#xe6;" horiz-adv-x="794" 
d="M565 490q83 0 135 -54t52 -144q0 -22 -3 -43q-1 -10 -11 -10h-306q2 -88 46 -133t115 -45q38 0 77.5 13t65.5 34q8 6 8 -4v-55q0 -10 -8 -15q-27 -18 -69 -31t-81 -13q-66 0 -117.5 28t-80.5 79q-30 -52 -81 -79t-109 -27q-67 0 -109.5 37t-42.5 100q0 77 64.5 116.5
t166.5 39.5q40 0 74 -3v14q0 67 -35.5 97.5t-106.5 30.5q-64 0 -126 -28q-8 -4 -8 5v52q0 9 9 13q64 25 137 25q134 0 178 -84q60 84 166 84zM566 419q-50 0 -84.5 -31.5t-45.5 -89.5h244q-3 55 -34 88t-80 33zM214 58q52 0 94.5 39.5t42.5 110.5v15q-39 4 -78 4
q-45 0 -77.5 -10.5t-51 -32t-18.5 -51.5q0 -24 12 -41t31.5 -25.5t44.5 -8.5z" />
    <glyph glyph-name="ccedilla" unicode="&#xe7;" horiz-adv-x="474" 
d="M421 80q7 3 10 3q9 0 9 -15v-41q0 -10 -9 -13q-55 -23 -125 -23l-22 -33h6q34 0 55.5 -17.5t21.5 -45.5q0 -34 -28.5 -54.5t-70.5 -20.5q-40 0 -68 12q-7 3 -7 12v26q0 8 8 4q29 -13 61 -13q23 0 38 8.5t15 23.5t-13.5 23t-33.5 8q-26 0 -46 -8l-3 3l47 74
q-95 13 -157.5 79.5t-62.5 168.5q0 111 73.5 179.5t186.5 68.5q69 0 119 -21q9 -4 9 -14v-42q0 -14 -8 -14q-4 0 -11 4q-43 21 -98 21q-80 0 -134 -50t-54 -133q0 -84 54.5 -133t136.5 -49q55 0 101 22z" />
    <glyph glyph-name="egrave" unicode="&#xe8;" horiz-adv-x="535" 
d="M235 571l-123 171q-3 3 -3 5q0 4 6 6l59 19q3 1 5 1q5 0 8 -6l105 -196q5 -8 -5 -8h-37q-9 0 -15 8zM478 111l1 -53q0 -10 -7 -15q-70 -52 -175 -52q-112 0 -182 69t-70 180q0 109 68 179.5t167 70.5q89 0 146.5 -57t57.5 -156q0 -16 -3 -24t-7.5 -10.5t-13.5 -2.5h-333
q1 -56 24 -97t63 -62t92 -21q98 0 165 55q7 6 7 -4zM280 420q-54 0 -93.5 -32.5t-53.5 -89.5h282q-4 54 -41 88t-94 34z" />
    <glyph glyph-name="eacute" unicode="&#xe9;" horiz-adv-x="535" 
d="M220 563q-10 0 -5 9l105 195q4 8 13 5l59 -19q9 -3 3 -11l-123 -171q-6 -8 -16 -8h-36zM478 111l1 -53q0 -10 -7 -15q-70 -52 -175 -52q-112 0 -182 69t-70 180q0 109 68 179.5t167 70.5q89 0 146.5 -57t57.5 -156q0 -23 -5 -30t-19 -7h-333q2 -84 51 -132t128 -48
q98 0 165 55q7 6 7 -4zM280 420q-54 0 -93.5 -32.5t-53.5 -89.5h282q-4 54 -41 88t-94 34z" />
    <glyph glyph-name="ecircumflex" unicode="&#xea;" horiz-adv-x="535" 
d="M131 564q-9 0 -4 7l110 174q4 7 13 7h37q8 0 13 -7l110 -174q4 -7 -5 -7h-40q-8 0 -13 7l-83 122l-84 -122q-5 -7 -13 -7h-41zM478 111l1 -53q0 -10 -7 -15q-70 -52 -175 -52q-112 0 -182 69t-70 180q0 109 68 179.5t167 70.5q89 0 146.5 -57t57.5 -156q0 -16 -3 -24
t-7.5 -10.5t-13.5 -2.5h-333q1 -56 24 -97t63 -62t92 -21q98 0 165 55q7 6 7 -4zM280 420q-54 0 -93.5 -32.5t-53.5 -89.5h282q-4 54 -41 88t-94 34z" />
    <glyph glyph-name="edieresis" unicode="&#xeb;" horiz-adv-x="535" 
d="M193 637q-13 0 -23 6.5t-15.5 16.5t-5.5 23q0 19 12.5 32t31.5 13q18 0 30 -13t12 -32t-12 -32.5t-30 -13.5zM343 637q-19 0 -31 13.5t-12 32.5q0 12 5.5 22.5t15.5 16.5t22 6q19 0 31 -13t12 -32t-12 -32.5t-31 -13.5zM478 111l1 -53q0 -10 -7 -15q-70 -52 -175 -52
q-112 0 -182 69t-70 180q0 109 68 179.5t167 70.5q89 0 146.5 -57t57.5 -156q0 -16 -3 -24t-7.5 -10.5t-13.5 -2.5h-333q2 -84 51 -132t128 -48q98 0 165 55q7 6 7 -4zM280 420q-54 0 -93.5 -32.5t-53.5 -89.5h282q-4 54 -41 88t-94 34z" />
    <glyph glyph-name="igrave" unicode="&#xec;" horiz-adv-x="257" 
d="M156 567q1 -2 1 -4q0 -5 -8 -5h-37q-9 0 -13 9l-77 169q-1 3 -1 5q0 4 6 6l60 19q2 1 4 1q5 0 7 -7zM98 0q-9 0 -9 10v461q0 9 9 9h61q9 0 9 -10v-461q0 -9 -9 -9h-61z" />
    <glyph glyph-name="iacute" unicode="&#xed;" horiz-adv-x="257" 
d="M107 558q-9 0 -6 9l58 193q2 9 12 6l59 -19q9 -3 5 -11l-77 -169q-4 -9 -13 -9h-38zM98 0q-9 0 -9 10v461q0 9 9 9h61q9 0 9 -10v-461q0 -9 -9 -9h-61z" />
    <glyph glyph-name="icircumflex" unicode="&#xee;" horiz-adv-x="257" 
d="M270 567q5 -7 -4 -7h-40q-8 0 -13 7l-84 122l-83 -122q-5 -7 -13 -7h-42q-8 0 -3 7l110 175q4 6 13 6h37q8 0 12 -7zM159 480q9 0 9 -10v-461q0 -9 -9 -9h-61q-9 0 -9 10v461q0 9 9 9h61z" />
    <glyph glyph-name="idieresis" unicode="&#xef;" horiz-adv-x="257" 
d="M53 634q-19 0 -31 13t-12 32t12 32t31 13t31 -13t12 -32t-12 -32t-31 -13zM204 634q-19 0 -31 13t-12 32t12 32t31 13t31 -13t12 -32t-12 -32t-31 -13zM98 0q-9 0 -9 10v461q0 9 9 9h61q9 0 9 -10v-461q0 -9 -9 -9h-61z" />
    <glyph glyph-name="eth" unicode="&#xf0;" horiz-adv-x="594" 
d="M365 622q184 -160 184 -357q0 -126 -73 -200.5t-178 -74.5q-103 0 -177.5 70.5t-74.5 177.5q0 106 69.5 175t166.5 69q56 0 102 -24.5t77 -68.5l2 2q-16 43 -58 95t-100 101l-110 -63q-1 -1 -1 0l-18 30q-4 7 3 11l89 51q-47 35 -98 61q-8 5 1 10l49 28q4 3 8 3t9 -3
q50 -31 92 -64l104 59q3 2 5 2q4 0 7 -5l12 -23q2 -3 2 -5q0 -3 -5 -6zM299 62q73 0 122 50t49 124q0 75 -50.5 124.5t-123.5 49.5q-71 0 -120.5 -48.5t-49.5 -123.5t50.5 -125.5t122.5 -50.5z" />
    <glyph glyph-name="ntilde" unicode="&#xf1;" horiz-adv-x="552" 
d="M131 587q-3 0 -4 1t-1 4q2 56 26 92.5t66 36.5q16 0 31 -7t22.5 -14t20.5 -20q9 -8 13 -11.5t11 -9t13.5 -7.5t14.5 -2q19 0 30 16t13 45q0 5 5 5h36q3 0 4 -1t1 -4q-1 -53 -24.5 -87.5t-61.5 -34.5q-15 0 -30 6.5t-23 13.5t-21 19q-11 10 -17 15.5t-16.5 10.5t-20.5 5
q-21 0 -33.5 -18t-13.5 -49q-1 -5 -6 -5h-35zM309 490q84 0 131.5 -47.5t47.5 -143.5v-290q0 -9 -9 -9h-61q-9 0 -9 10v288q0 63 -32 93.5t-88 30.5q-61 0 -97.5 -39t-36.5 -104v-270q0 -9 -10 -9h-61q-9 0 -9 10v461q0 9 10 9h59q9 0 9 -10v-62q49 82 156 82z" />
    <glyph glyph-name="ograve" unicode="&#xf2;" horiz-adv-x="588" 
d="M320 567q5 -8 -5 -8h-37q-9 0 -15 8l-123 171q-2 3 -2 5q0 4 5 6l59 19q3 1 5 1q5 0 9 -6zM296 -10q-68 0 -125.5 33t-91.5 91t-34 128q0 105 74 176.5t177 71.5t176.5 -71.5t73.5 -176.5q0 -106 -73.5 -179t-176.5 -73zM296 62q72 0 121.5 50.5t49.5 128.5
q0 77 -49 126.5t-122 49.5q-72 0 -121.5 -49.5t-49.5 -126.5t50 -128t121 -51z" />
    <glyph glyph-name="oacute" unicode="&#xf3;" horiz-adv-x="588" 
d="M248 559q-10 0 -5 9l105 195q4 8 13 5l59 -19q9 -3 3 -11l-123 -171q-6 -8 -15 -8h-37zM296 -10q-68 0 -125.5 33t-91.5 91t-34 128q0 105 74 176.5t177 71.5t176.5 -71.5t73.5 -176.5q0 -106 -73.5 -179t-176.5 -73zM296 62q72 0 121.5 50.5t49.5 128.5t-49 127t-122 49
q-72 0 -121.5 -49.5t-49.5 -126.5t50 -128t121 -51z" />
    <glyph glyph-name="ocircumflex" unicode="&#xf4;" horiz-adv-x="588" 
d="M159 560q-9 0 -4 7l110 175q5 7 13 7h37q8 0 13 -8l110 -174q4 -7 -5 -7h-40q-8 0 -13 7l-83 122l-84 -122q-4 -7 -13 -7h-41zM296 490q50 0 96 -19t80 -51.5t54 -79t20 -98.5q0 -106 -73.5 -179t-176.5 -73q-104 0 -177.5 73t-73.5 179q0 105 74 176.5t177 71.5zM296 62
q72 0 121.5 50.5t49.5 128.5t-49 127t-122 49q-72 0 -121.5 -49.5t-49.5 -126.5q0 -51 23.5 -92.5t62 -64t85.5 -22.5z" />
    <glyph glyph-name="otilde" unicode="&#xf5;" horiz-adv-x="588" 
d="M363 589q-8 0 -15.5 1.5t-14 4.5t-12 6t-12 8.5t-10.5 9t-10 9.5q-11 10 -17 15.5t-16 10.5t-21 5q-21 0 -33.5 -18t-13.5 -49q0 -5 -5 -5h-36q-2 0 -3.5 1t-1.5 4q2 56 26 92.5t66 36.5q16 0 31 -7t23 -14t21 -20l16.5 -15t15 -10t19.5 -5q19 0 30.5 16t12.5 45q0 5 5 5
h36q3 0 4.5 -1t1.5 -4q-2 -53 -25.5 -87.5t-61.5 -34.5zM296 -10q-68 0 -125.5 33t-91.5 91t-34 128q0 105 74 176.5t177 71.5t176.5 -71.5t73.5 -176.5q0 -106 -73.5 -179t-176.5 -73zM296 62q72 0 121.5 50.5t49.5 128.5q0 77 -49 126.5t-122 49.5q-72 0 -121.5 -49.5
t-49.5 -126.5q0 -51 23.5 -92.5t62.5 -64t85 -22.5z" />
    <glyph glyph-name="odieresis" unicode="&#xf6;" horiz-adv-x="588" 
d="M221 634q-19 0 -31 13t-12 32t12 32t31 13q9 0 17 -3.5t13.5 -9.5t9 -14.5t3.5 -17.5q0 -19 -12.5 -32t-30.5 -13zM371 634q-19 0 -31 13t-12 32t12 32t31 13t31 -13t12 -32t-12 -32t-31 -13zM296 -10q-68 0 -125.5 33t-91.5 91t-34 128q0 105 74 176.5t177 71.5
t176.5 -71.5t73.5 -176.5q0 -106 -73.5 -179t-176.5 -73zM296 62q72 0 121.5 50.5t49.5 128.5t-49 127t-122 49q-72 0 -121.5 -49.5t-49.5 -126.5t50 -128t121 -51z" />
    <glyph glyph-name="divide" unicode="&#xf7;" horiz-adv-x="561" 
d="M280 450q-25 0 -41 17t-16 41.5t16 41.5t41 17q24 0 40 -17t16 -41.5t-16 -41.5t-40 -17zM48 268q-9 0 -9 10v43q0 10 9 10h465q9 0 9 -10v-43q0 -10 -9 -10h-465zM280 35q-25 0 -41 17t-16 42t16 42t41 17q24 0 40 -17t16 -42t-16 -42t-40 -17z" />
    <glyph glyph-name="oslash" unicode="&#xf8;" horiz-adv-x="588" 
d="M434 450q52 -34 82 -88.5t30 -119.5q0 -106 -73.5 -179t-176.5 -73q-56 0 -107 24l-34 -61q-4 -8 -14 -8h-22q-10 0 -5 8l44 78q-52 34 -82.5 89.5t-30.5 121.5q0 105 74 176.5t177 71.5q56 0 106 -23l34 61q5 8 15 8h22q9 0 4 -9zM125 241q0 -93 69 -145l172 307
q-33 14 -70 14q-72 0 -121.5 -49.5t-49.5 -126.5zM296 62q72 0 121.5 50.5t49.5 128.5q0 94 -69 144l-173 -307q34 -16 71 -16z" />
    <glyph glyph-name="ugrave" unicode="&#xf9;" horiz-adv-x="544" 
d="M241 567l-124 171q-2 3 -2 5q0 4 6 6l59 19q2 1 4 1q6 0 9 -6l105 -196q4 -8 -5 -8h-37q-9 0 -15 8zM467 480q9 0 9 -10v-461q0 -9 -9 -9h-53q-9 0 -10 10l-2 69q-47 -88 -153 -88q-80 0 -128 49.5t-48 146.5v284q0 9 9 9h61q9 0 9 -10v-282q0 -130 118 -130
q58 0 92.5 40t34.5 103v270q0 9 9 9h61z" />
    <glyph glyph-name="uacute" unicode="&#xfa;" horiz-adv-x="544" 
d="M225 559q-9 0 -4 9l104 195q5 8 14 5l59 -19q9 -3 3 -11l-124 -171q-5 -8 -15 -8h-37zM467 480q9 0 9 -10v-461q0 -9 -9 -9h-53q-9 0 -10 10l-2 69q-47 -88 -153 -88q-80 0 -128.5 49.5t-48.5 146.5v284q0 9 10 9h61q9 0 9 -10v-282q0 -130 118 -130q58 0 92.5 40
t34.5 103v270q0 9 9 9h61z" />
    <glyph glyph-name="ucircumflex" unicode="&#xfb;" horiz-adv-x="544" 
d="M136 560q-8 0 -3 7l110 175q4 7 13 7h37q8 0 12 -8l110 -174q5 -7 -4 -7h-40q-8 0 -13 7l-84 122l-83 -122q-5 -7 -13 -7h-42zM467 480q9 0 9 -10v-461q0 -9 -9 -9h-53q-10 0 -10 10l-2 69q-47 -88 -153 -88q-80 0 -128.5 49.5t-48.5 146.5v284q0 9 10 9h61q9 0 9 -10
v-282q0 -130 117 -130q59 0 93.5 40t34.5 103v270q0 9 9 9h61z" />
    <glyph glyph-name="udieresis" unicode="&#xfc;" horiz-adv-x="544" 
d="M198 634q-19 0 -31 13t-12 32t12 32t31 13t31 -13t12 -32t-12 -32t-31 -13zM349 634q-19 0 -31 13t-12 32q0 12 5 22.5t15 16.5t23 6q19 0 31 -13t12 -32t-12 -32t-31 -13zM467 480q9 0 9 -10v-461q0 -9 -9 -9h-53q-9 0 -10 10l-2 69q-47 -88 -153 -88q-80 0 -128.5 49.5
t-48.5 146.5v284q0 9 10 9h61q9 0 9 -10v-282q0 -130 118 -130q58 0 92.5 40t34.5 103v270q0 9 9 9h61z" />
    <glyph glyph-name="yacute" unicode="&#xfd;" horiz-adv-x="499" 
d="M196 559q-10 0 -5 9l105 195q4 8 13 5l59 -19q9 -3 3 -11l-123 -171q-6 -8 -16 -8h-36zM479 480q9 0 6 -9l-222 -513q-59 -139 -161 -139q-47 0 -79 17q-8 4 -8 14v48q0 10 8 5q35 -19 74 -19q68 0 102 90l16 37l-203 460q-1 3 -1 5q0 4 7 4h64q10 0 13 -9l155 -375
l155 375q4 9 14 9h60z" />
    <glyph glyph-name="thorn" unicode="&#xfe;" horiz-adv-x="580" 
d="M319 490q93 0 155.5 -68.5t62.5 -181.5q0 -112 -64 -181t-154 -69q-55 0 -98 25t-70 73v-255q0 -10 -10 -10h-61q-9 0 -9 10v906q0 9 10 9h56q9 0 9 -10v-357q26 53 71 81t102 28zM298 57q63 0 109 49t46 133q0 85 -45 134.5t-110 49.5t-109.5 -51t-44.5 -132
q0 -82 44.5 -132.5t109.5 -50.5z" />
    <glyph glyph-name="ydieresis" unicode="&#xff;" horiz-adv-x="499" 
d="M169 634q-19 0 -31.5 13t-12.5 32t12.5 32t31.5 13q18 0 30 -13t12 -32t-12 -32t-30 -13zM319 634q-19 0 -31 13t-12 32t12 32t31 13t31 -13t12 -32t-12 -32t-31 -13zM479 480q9 0 6 -9l-222 -513q-59 -139 -161 -139q-47 0 -79 17q-8 4 -8 14v48q0 10 8 5q35 -19 74 -19
q68 0 102 90l16 37l-203 460q-1 3 -1 5q0 4 7 4h64q10 0 13 -9l155 -375l155 375q4 9 14 9h60z" />
    <glyph glyph-name="abreve" unicode="&#x103;" horiz-adv-x="609" 
d="M310 591q-53 0 -89.5 35.5t-40.5 92.5v1q0 7 8 7h26q8 0 9 -8q3 -23 14 -40t30 -26t43 -9t43 9t30.5 26t14.5 40q1 8 9 8h25q9 0 8 -8q-4 -57 -40.5 -92.5t-89.5 -35.5zM528 480q10 0 10 -10v-461q0 -9 -10 -9h-61q-9 0 -9 10v81q-24 -48 -72.5 -74t-105.5 -26
q-58 0 -111 29t-88.5 88t-35.5 134q0 111 70.5 179.5t165.5 68.5q58 0 105 -24.5t71 -72.5l1 78q0 9 9 9h61zM294 63q45 0 82.5 21.5t60 62.5t22.5 94q0 79 -47 127t-118 48t-119 -48.5t-48 -126.5q0 -79 49 -128.5t118 -49.5z" />
    <glyph glyph-name="eogonek" unicode="&#x119;" horiz-adv-x="535" 
d="M478 111l1 -53q0 -10 -7 -15q-46 -34 -112 -46q-79 -44 -79 -88q0 -19 14 -30.5t35 -11.5q13 0 36 7q2 1 3 1q5 0 5 -7v-27q0 -9 -8 -12q-21 -9 -47 -9q-44 0 -73.5 22.5t-29.5 61.5q0 48 59 88q-103 7 -166.5 75t-63.5 173q0 109 68 179.5t167 70.5q89 0 146.5 -57
t57.5 -156q0 -23 -5 -30t-19 -7h-333q2 -84 51 -132t128 -48q98 0 165 55q7 6 7 -4zM280 420q-54 0 -93.5 -32.5t-53.5 -89.5h282q-4 54 -41 88t-94 34z" />
    <glyph glyph-name="idotless" unicode="&#x131;" horiz-adv-x="257" 
d="M98 0q-9 0 -9 10v461q0 9 9 9h61q9 0 9 -10v-461q0 -9 -9 -9h-61z" />
    <glyph glyph-name="Lslash" unicode="&#x141;" horiz-adv-x="472" 
d="M438 73q9 0 9 -10v-54q0 -9 -9 -9h-352q-9 0 -9 10v328l-46 -18q-2 -1 -4 -1q-5 0 -5 7v27q0 10 9 13l46 18v317q0 9 9 9h64q9 0 9 -10v-283l65 26q3 1 5 1q4 0 4 -8v-27q0 -10 -9 -13l-65 -26v-297h279z" />
    <glyph glyph-name="lslash" unicode="&#x142;" horiz-adv-x="276" 
d="M252 67q4 2 6 2q5 0 5 -8v-44q0 -5 -2 -8.5t-7 -5.5q-32 -13 -73 -13q-108 0 -108 116v275l-51 -20q-2 -1 -4 -1q-4 0 -4 7v27q0 10 9 13l50 20v312q0 10 10 10h60q10 0 10 -10v-280l63 24q2 1 4 1q4 0 4 -7v-27q0 -10 -9 -13l-62 -25v-296q0 -59 54 -59q23 0 45 10z" />
    <glyph glyph-name="OE" unicode="&#x152;" horiz-adv-x="859" 
d="M799 646h-274v-244h242q10 0 10 -10v-45q0 -10 -10 -10h-242v-273h274q10 0 10 -9v-46q0 -9 -10 -9h-355q-181 0 -292.5 100t-111.5 260q0 157 112 253.5t292 96.5h355q10 0 10 -10v-45q0 -9 -10 -9zM444 70v571q-147 -1 -234 -78t-87 -203q0 -130 87 -210t234 -80z" />
    <glyph glyph-name="oe" unicode="&#x153;" horiz-adv-x="901" 
d="M840 248h-326v-4q0 -88 47 -138.5t132 -50.5q92 0 154 47q7 6 7 -4v-45q0 -10 -7 -16q-64 -47 -162 -47q-77 0 -134.5 37.5t-82.5 106.5q-23 -66 -77 -105t-122 -39q-96 0 -160.5 71.5t-64.5 180.5q0 71 29.5 128t81 88.5t113.5 31.5q68 0 122 -39t78 -105q24 66 76 105
t121 39q85 0 141 -56.5t56 -159.5q0 -16 -4.5 -21t-17.5 -5zM664 428q-58 0 -95.5 -36t-49.5 -96h276q-3 60 -39.5 96t-91.5 36zM273 60q44 0 79 23.5t54.5 65t19.5 93.5q0 77 -43 127.5t-110 50.5q-45 0 -81 -23t-55.5 -64t-19.5 -91q0 -79 43.5 -130.5t112.5 -51.5z" />
    <glyph glyph-name="Scaron" unicode="&#x160;" horiz-adv-x="513" 
d="M228 764l-111 128q-6 8 3 8h38q10 0 16 -7l84 -85l82 85q7 7 16 7h37q10 0 3 -8l-111 -129q-6 -7 -16 -7h-25q-9 0 -16 8zM284 400q94 -41 143 -88.5t49 -120.5q0 -89 -67.5 -145t-174.5 -56q-50 0 -102.5 12t-88.5 32q-7 4 -7 13v61q0 10 8 5q84 -53 185 -53
q74 0 119.5 34t45.5 93q0 51 -38.5 83.5t-114.5 65.5q-36 15 -60 27.5t-51.5 32t-43.5 39t-27 47t-11 59.5q0 79 61 129t157 50q87 0 157 -30q8 -4 8 -14v-56q0 -9 -8 -4q-69 34 -152 34q-62 0 -101.5 -29.5t-39.5 -76.5q0 -22 8.5 -40.5t20 -31t34 -26.5t37.5 -21l45 -21
l3 -1.5t3 -1t3 -1.5z" />
    <glyph glyph-name="scaron" unicode="&#x161;" horiz-adv-x="447" 
d="M190 567l-107 162q-5 8 5 8h42q9 0 15 -8l80 -108l78 108q5 8 15 8h41q9 0 4 -8l-106 -162q-5 -8 -15 -8h-38q-9 0 -14 8zM245 282q35 -10 58.5 -19.5t47 -25.5t34.5 -39.5t11 -54.5q0 -70 -50 -111t-134 -41q-40 0 -81.5 9t-67.5 24q-5 4 -5 10v59q0 9 8 4
q65 -38 143 -38q52 0 82 21t30 56q0 33 -26.5 49t-91.5 35q-32 9 -55.5 19t-45.5 25.5t-33.5 38.5t-11.5 53q0 61 49.5 97.5t127.5 36.5q73 0 136 -28q5 -2 5 -9v-56q0 -9 -8 -5q-62 31 -131 31q-19 0 -35 -3t-28 -8.5t-20.5 -13t-12.5 -17.5t-4 -22q0 -13 6.5 -24t14 -18
t25 -14t28 -10.5t35.5 -10.5z" />
    <glyph glyph-name="Ydieresis" unicode="&#x178;" horiz-adv-x="574" 
d="M209 778q-16 0 -28.5 7.5t-19 20.5t-6.5 28q0 23 15 39.5t39 16.5q23 0 38 -16.5t15 -40t-15 -39.5t-38 -16zM375 778q-23 0 -38.5 16t-15.5 40q0 15 7 28t19 20.5t28 7.5q23 0 38 -16.5t15 -40t-15 -39.5t-38 -16zM255 0q-10 0 -10 10v288l-233 394q-3 7 -3 10q0 8 14 8
h61q9 0 14 -8l192 -335l189 335q4 8 14 8h58q13 0 13 -7q0 -5 -4 -11l-232 -394v-289q0 -9 -10 -9h-63z" />
    <glyph glyph-name="Zcaron" unicode="&#x17d;" horiz-adv-x="574" 
d="M260 764l-111 128q-6 8 3 8h38q10 0 16 -7l84 -85l82 85q7 7 16 7h37q10 0 3 -8l-111 -129q-6 -7 -16 -7h-25q-9 0 -16 8zM519 66q10 0 10 -10v-47q0 -9 -10 -9h-472q-9 0 -9 10v19q0 9 5 17l378 598h-352q-10 0 -10 10v47q0 9 10 9h440q10 0 10 -10v-19q0 -9 -5 -17
l-379 -598h384z" />
    <glyph glyph-name="zcaron" unicode="&#x17e;" horiz-adv-x="463" 
d="M178 567l-106 162q-5 8 4 8h42q10 0 15 -8l80 -108l78 108q5 8 15 8h41q9 0 4 -8l-106 -162q-5 -8 -15 -8h-37q-10 0 -15 8zM402 69q9 0 9 -10v-50q0 -9 -10 -9h-368q-9 0 -9 10v13q0 9 6 17l269 371h-249q-9 0 -9 10v50q0 9 9 9h351q9 0 9 -10v-13q0 -9 -5 -17
l-272 -371h269z" />
    <glyph glyph-name="florin" unicode="&#x192;" horiz-adv-x="473" 
d="M454 743q9 -3 9 -13v-36q0 -14 -9 -14q-4 0 -10 3q-25 10 -56 10q-72 0 -91 -104l-19 -109h136q10 0 10 -10v-39q0 -9 -10 -9h-146l-78 -439q-14 -84 -50.5 -124t-100.5 -40q-47 0 -82 11q-8 3 -8 13v48q0 9 8 5q27 -11 63 -11q72 0 91 103l76 434h-96q-10 0 -10 10v39
q0 9 10 9h107l20 115q13 84 49.5 124t101.5 40q46 0 85 -16z" />
    <glyph glyph-name="circumflex" unicode="&#x2c6;" horiz-adv-x="600" 
d="M224 567q5 -7 -4 -7h-40q-8 0 -13 7l-84 122l-83 -122q-5 -7 -13 -7h-41q-9 0 -4 7l110 175q4 6 13 6h37q8 0 12 -7z" />
    <glyph glyph-name="caron" unicode="&#x2c7;" horiz-adv-x="600" 
d="M218 737q10 0 4 -8l-105 -162q-6 -8 -15 -8h-38q-9 0 -15 8l-106 162q-5 8 4 8h43q9 0 15 -8l79 -108l78 108q6 8 15 8h41z" />
    <glyph glyph-name="breve" unicode="&#x2d8;" horiz-adv-x="600" 
d="M83 591q-53 0 -89.5 35.5t-40.5 92.5v1q0 7 8 7h26q8 0 9 -9q4 -34 27.5 -54.5t59.5 -20.5t59.5 21t28.5 55q1 8 9 8h25q9 0 8 -8q-4 -57 -40.5 -92.5t-89.5 -35.5z" />
    <glyph glyph-name="dotaccent" unicode="&#x2d9;" horiz-adv-x="585" 
d="M82 618q-25 0 -41 17t-16 41.5t16 41.5t41 17q24 0 39.5 -17t15.5 -41.5t-15.5 -41.5t-39.5 -17z" />
    <glyph glyph-name="ring" unicode="&#x2da;" horiz-adv-x="600" 
d="M22 565q-38 0 -65 26.5t-27 66.5q0 39 27 64t65 25q25 0 46 -11t34 -32t13 -46q0 -40 -27.5 -66.5t-65.5 -26.5zM22 601q23 0 38 16t15 41q0 15 -7 28t-19 20t-27 7t-27 -7.5t-19 -20t-7 -27.5q0 -25 15 -41t38 -16z" />
    <glyph glyph-name="ogonek" unicode="&#x2db;" horiz-adv-x="572" 
d="M42 -180q-44 0 -73 23t-29 61q0 39 37 71t95 52l31 -20q-99 -49 -99 -98q0 -19 14 -30.5t36 -11.5q12 0 35 7q2 1 4 1q4 0 4 -7v-27q0 -9 -7 -12q-21 -9 -48 -9z" />
    <glyph glyph-name="tilde" unicode="&#x2dc;" horiz-adv-x="578" 
d="M90 589q-15 0 -30 7t-23 13.5t-21 18.5q-10 11 -16.5 16.5t-16.5 10t-21 4.5q-21 0 -33.5 -17.5t-13.5 -49.5q0 -5 -5 -5h-35q-3 0 -4.5 1t-1.5 4q2 56 26 92.5t66 36.5q16 0 31 -7t23 -13.5t21 -19.5q11 -11 16.5 -16t15 -9.5t19.5 -4.5q20 0 31 16t12 44q0 5 5 5h37
q2 0 3.5 -1t1.5 -4q-2 -53 -25.5 -87.5t-61.5 -34.5z" />
    <glyph glyph-name="hungarumlaut" unicode="&#x2dd;" horiz-adv-x="580" 
d="M281 559q-10 0 -6 8l85 193q4 8 13 6l58 -16q9 -2 4 -11l-106 -172q-4 -8 -14 -8h-34zM151 559q-9 0 -5 9l79 192q4 8 13 6l54 -15q9 -3 4 -12l-95 -172q-5 -8 -14 -8h-36z" />
    <glyph glyph-name="gravecomb" unicode="&#x300;" 
d="M24 567q4 -8 -6 -8h-36q-10 0 -15 8l-124 171q-2 3 -2 5q0 4 6 6l58 19q3 1 5 1q5 0 9 -6z" />
    <glyph glyph-name="acutecomb" unicode="&#x301;" 
d="M-48 559q-9 0 -5 9l105 195q4 8 13 5l59 -19q9 -3 3 -11l-123 -171q-6 -8 -15 -8h-37z" />
    <glyph glyph-name="circumflexcomb" unicode="&#x302;" 
d="M141 567q5 -7 -4 -7h-40q-9 0 -14 7l-83 122l-83 -122q-5 -7 -14 -7h-41q-8 0 -4 7l111 175q4 6 12 6h37q9 0 13 -7z" />
    <glyph glyph-name="tildecomb" unicode="&#x303;" 
d="M67 589q-15 0 -30 7t-23 13.5t-21 18.5q-10 11 -16.5 16.5t-16.5 10t-21 4.5q-21 0 -33.5 -17.5t-13.5 -49.5q0 -5 -5 -5h-36q-2 0 -3.5 1t-1.5 4q2 56 26 92.5t66 36.5q16 0 31 -7t23 -13.5t21 -19.5q11 -11 16.5 -16t15 -9.5t19.5 -4.5q13 0 22.5 7t14.5 20.5t6 32.5
q0 5 5 5h36q3 0 4.5 -1t1.5 -4q-2 -53 -25.5 -87.5t-61.5 -34.5z" />
    <glyph glyph-name="macroncomb" unicode="&#x304;" 
d="M-131 628q-10 0 -10 10v34q0 9 10 9h262q10 0 10 -10v-33q0 -10 -10 -10h-262z" />
    <glyph glyph-name="brevecomb" unicode="&#x306;" 
d="M0 591q-53 0 -89.5 35.5t-40.5 92.5v1q0 7 8 7h25q8 0 9 -9q5 -34 28 -54.5t60 -20.5q36 0 59.5 21t27.5 55q1 8 10 8h25q9 0 8 -8q-5 -57 -41 -92.5t-89 -35.5z" />
    <glyph glyph-name="dotaccentcomb" unicode="&#x307;" 
d="M2 618q-25 0 -40.5 17t-15.5 41.5t15.5 41.5t40.5 17q24 0 40 -17t16 -41.5t-16 -41.5t-40 -17z" />
    <glyph glyph-name="dieresiscomb" unicode="&#x308;" 
d="M-75 634q-19 0 -31 13t-12 32t12 32t31 13q18 0 30.5 -13t12.5 -32t-12.5 -32t-30.5 -13zM75 634q-19 0 -31 13t-12 32t12 32t31 13t31 -13t12 -32t-12 -32t-31 -13z" />
    <glyph glyph-name="ringcomb" unicode="&#x30a;" 
d="M0 565q-39 0 -65.5 26.5t-26.5 66.5q0 39 26.5 64t65.5 25q25 0 46 -11t33.5 -32t12.5 -46q0 -40 -27 -66.5t-65 -26.5zM0 601q15 0 27 7t19 20t7 30q0 15 -7 28t-19 20t-27 7q-16 0 -28 -7.5t-18.5 -20t-6.5 -27.5q0 -25 15 -41t38 -16z" />
    <glyph glyph-name="hungarumlautcomb" unicode="&#x30b;" 
d="M29 559q-9 0 -5 8l85 193q4 8 13 6l57 -16q10 -2 5 -11l-106 -172q-5 -8 -14 -8h-35zM-100 559q-9 0 -6 9l80 192q3 8 13 6l53 -15q10 -3 5 -12l-95 -172q-5 -8 -15 -8h-35z" />
    <glyph glyph-name="caroncomb" unicode="&#x30c;" 
d="M135 737q9 0 4 -8l-106 -162q-5 -8 -15 -8h-37q-10 0 -15 8l-106 162q-6 8 4 8h42q10 0 15 -8l80 -108l78 108q5 8 15 8h41z" />
    <glyph glyph-name="cedillacomb" unicode="&#x327;" horiz-adv-x="281" 
d="M146 -42q35 0 56.5 -17.5t21.5 -45.5q0 -34 -28.5 -54.5t-71.5 -20.5q-40 0 -67 12q-8 3 -8 12v26q0 8 8 4q30 -13 61 -13q15 0 27 3.5t19 11t7 17.5q0 15 -13.5 23t-33.5 8q-25 0 -46 -8l-3 3l60 95h43l-38 -56h6z" />
    <glyph glyph-name="ogonekcomb" unicode="&#x328;" 
d="M24 -180q-45 0 -74 23t-29 61q0 39 37 71t96 52l31 -20q-99 -49 -99 -98q0 -19 13.5 -30.5t35.5 -11.5q12 0 35 7q3 1 4 1q4 0 4 -7v-27q0 -9 -7 -12q-21 -9 -47 -9z" />
    <glyph glyph-name="slashshortcomb" unicode="&#x337;" 
d="M-177 -45q-10 0 -5 9l322 574q5 8 14 8h22q10 0 5 -8l-322 -574q-4 -9 -14 -9h-22z" />
    <glyph glyph-name="slashlongcomb" unicode="&#x338;" 
d="M-241 -43q-9 0 -4 8l448 764q5 8 14 8h22q10 0 5 -8l-448 -764q-5 -8 -15 -8h-22z" />
    <glyph glyph-name="Delta" unicode="&#x394;" horiz-adv-x="627" 
d="M25 0q-9 0 -9 10v17q0 9 4 18l262 660q3 8 13 8h37q10 0 13 -8l262 -660q4 -9 4 -18v-18q0 -9 -10 -9h-576zM98 62h430l-215 542z" />
    <glyph glyph-name="Omega" unicode="&#x3a9;" horiz-adv-x="703" 
d="M62 0q-10 0 -10 10v48q0 10 10 10h181v79q-91 30 -146.5 104t-55.5 172q0 128 88.5 212.5t218.5 84.5q85 0 155 -38t111 -106t41 -153q0 -65 -26 -121.5t-71 -95.5t-105 -59v-79h182q9 0 9 -10v-49q0 -9 -10 -9h-242q-9 0 -9 10v137q0 9 9 12q82 33 132 98t50 154
q0 102 -64 169t-162 67t-161.5 -67t-63.5 -169q0 -89 49.5 -154t132.5 -98q8 -3 8 -13v-137q0 -9 -9 -9h-242z" />
    <glyph glyph-name="mu" unicode="&#x3bc;" horiz-adv-x="546" 
d="M467 480q9 0 9 -10v-461q0 -9 -10 -9h-50q-9 0 -9 10l-3 80l-4 3q-39 -103 -142 -103q-81 0 -115 56l7 -208q0 -9 -10 -9h-62q-10 0 -10 10l7 231l-5 401q0 9 10 9h61q9 0 9 -10v-289q0 -131 113 -131q41 0 71.5 21t46.5 58.5t16 88.5v253q0 9 9 9h61z" />
    <glyph glyph-name="pi" unicode="&#x3c0;" horiz-adv-x="546" 
d="M506 67q4 1 6 1q4 0 4 -8v-39q0 -10 -8 -14q-32 -17 -73 -17q-50 0 -77.5 29.5t-27.5 87.5v311h-158v-409q0 -9 -10 -9h-58q-10 0 -10 10v408h-81q-9 0 -9 10v43q0 9 10 9h473q9 0 9 -10v-43q0 -9 -9 -9h-80v-298q0 -63 54 -63q24 0 45 10z" />
    <glyph glyph-name="enspace" unicode="&#x2002;" horiz-adv-x="500" 
 />
    <glyph glyph-name="emspace" unicode="&#x2003;" horiz-adv-x="1000" 
 />
    <glyph glyph-name="threeperemspace" unicode="&#x2004;" horiz-adv-x="546" 
 />
    <glyph glyph-name="fourperemspace" unicode="&#x2005;" horiz-adv-x="250" 
 />
    <glyph glyph-name="thinspace" unicode="&#x2009;" horiz-adv-x="107" 
 />
    <glyph glyph-name="hairspace" unicode="&#x200a;" horiz-adv-x="68" 
 />
    <glyph glyph-name="endash" unicode="&#x2013;" horiz-adv-x="541" 
d="M72 227q-9 0 -9 9v43q0 10 10 10h396q9 0 9 -10v-43q0 -9 -10 -9h-396z" />
    <glyph glyph-name="emdash" unicode="&#x2014;" horiz-adv-x="899" 
d="M72 227q-9 0 -9 9v43q0 9 10 9h754q9 0 9 -10v-42q0 -9 -9 -9h-755z" />
    <glyph glyph-name="quoteleft" unicode="&#x2018;" horiz-adv-x="232" 
d="M107 578q10 -2 18.5 -7t15 -12.5t10.5 -17.5t4 -22q0 -28 -17.5 -45.5t-41.5 -17.5q-25 0 -42.5 17.5t-17.5 44.5q0 4 0.5 9.5t1 9.5t2.5 10t3 9.5t4 10t4.5 10t4.5 10t4 10.5l52 115q3 8 12 8h16q9 0 6 -8z" />
    <glyph glyph-name="quoteright" unicode="&#x2019;" horiz-adv-x="232" 
d="M139 720q25 0 43 -17.5t18 -44.5q0 -6 -1 -11t-2.5 -11.5t-2.5 -11t-4 -11.5l-4.5 -10.5t-5.5 -12t-5 -11.5l-52 -116q-3 -7 -12 -7h-16q-8 0 -6 8l39 134q-20 3 -34 19t-14 39q0 28 17.5 46t41.5 18z" />
    <glyph glyph-name="quotesinglbase" unicode="&#x201a;" horiz-adv-x="232" 
d="M115 116q25 0 43 -17.5t18 -44.5q0 -5 -1 -10.5t-2.5 -11.5t-2.5 -10.5t-4 -12t-4.5 -11t-5.5 -12t-5 -11.5l-52 -115q-3 -8 -12 -8h-16q-8 0 -6 8l39 134q-20 3 -34 19.5t-14 39.5q0 28 17.5 45.5t41.5 17.5z" />
    <glyph glyph-name="quotedblleft" unicode="&#x201c;" horiz-adv-x="407" 
d="M105 568q14 -2 24.5 -10t17 -20.5t6.5 -28.5q0 -28 -17.5 -45.5t-40.5 -17.5q-25 0 -43 17.5t-18 44.5q0 5 0.5 10.5t2.5 11.5t3 10.5t4 12t4.5 11t5 12t5.5 11.5l52 115q3 8 11 8h17q8 0 6 -8zM281 568q20 -3 34 -19.5t14 -39.5q0 -14 -5 -26t-13.5 -20t-19 -12.5
t-21.5 -4.5q-25 0 -43 17.5t-18 44.5q0 5 1 10.5t2.5 11.5t2.5 10.5t4 12t4.5 11t5.5 12t5 11.5l52 115q3 8 12 8h16q8 0 6 -8z" />
    <glyph glyph-name="quotedblright" unicode="&#x201d;" horiz-adv-x="407" 
d="M141 720q25 0 42.5 -17.5t17.5 -44.5q0 -6 -0.5 -11t-2 -11.5t-3 -11t-4 -11.5t-4 -10.5t-5.5 -12t-5 -11.5l-52 -116q-3 -7 -12 -7h-16q-9 0 -6 8l39 134q-20 3 -34 19t-14 39q0 28 17.5 46t41.5 18zM316 720q25 0 43 -17.5t18 -44.5q0 -6 -1 -11.5t-2.5 -11.5
t-2.5 -10.5t-4 -11.5l-4.5 -10.5t-5.5 -12t-5 -11.5l-52 -116q-3 -7 -12 -7h-16q-8 0 -6 8l39 134q-13 2 -24 9.5t-17.5 20.5t-6.5 28q0 28 17.5 46t41.5 18z" />
    <glyph glyph-name="quotedblbase" unicode="&#x201e;" horiz-adv-x="407" 
d="M113 116q17 0 30.5 -7.5t22 -22t8.5 -32.5q0 -5 -0.5 -10.5t-2 -12t-3 -10.5t-4.5 -11.5t-4 -11t-5 -12t-5 -11.5l-52 -116q-4 -7 -12 -7h-17q-8 0 -5 8l39 134q-21 3 -34.5 19t-13.5 40q0 28 17.5 45.5t40.5 17.5zM289 116q25 0 42.5 -17.5t17.5 -44.5q0 -5 -0.5 -10.5
t-2 -12t-3 -10.5t-4 -11.5t-4 -11t-5.5 -12t-5 -11.5l-52 -116q-3 -7 -12 -7h-16q-9 0 -6 8l39 134q-20 3 -34 19t-14 40q0 28 17.5 45.5t41.5 17.5z" />
    <glyph glyph-name="dagger" unicode="&#x2020;" horiz-adv-x="355" 
d="M311 594q10 0 10 -9v-42q0 -9 -10 -9l-103 3v-265q0 -9 -10 -9h-46q-9 0 -9 10l-1 264l-104 -3q-9 0 -9 9v42q0 9 9 9l104 -3v110q0 9 10 9h46q10 0 10 -10v-109z" />
    <glyph glyph-name="daggerdbl" unicode="&#x2021;" horiz-adv-x="355" 
d="M311 544l-104 3v-127l104 4q10 0 10 -10v-41q0 -10 -10 -9l-104 3v-95q0 -9 -9 -9h-46q-10 0 -10 10v94l-104 -3q-9 -1 -9 9v41q0 10 9 10l104 -4v127l-104 -3q-9 0 -9 9v42q0 9 9 9l104 -3v100q0 9 10 9h46q9 0 9 -10v-99l104 3q10 0 10 -9v-42q0 -9 -10 -9z" />
    <glyph glyph-name="bullet" unicode="&#x2022;" horiz-adv-x="289" 
d="M145 210q-13 0 -25 3.5t-21.5 9.5t-17.5 14.5t-13.5 19t-8.5 22t-3 24.5q0 39 25 66t64 27q38 0 62.5 -27t24.5 -66t-24.5 -66t-62.5 -27z" />
    <glyph glyph-name="ellipsis" unicode="&#x2026;" horiz-adv-x="642" 
d="M115 -7q-26 0 -42.5 18t-16.5 43.5t16.5 43.5t42.5 18t42.5 -18t16.5 -43.5t-16.5 -43.5t-42.5 -18zM321 -7q-25 0 -42 18t-17 44q0 12 4.5 23.5t12 20t19 13t23.5 4.5q17 0 30.5 -8t21 -22.5t7.5 -30.5q0 -26 -16.5 -44t-42.5 -18zM528 -7q-26 0 -43 18t-17 43.5
t17 43.5t43 18q25 0 41.5 -18t16.5 -43.5t-16.5 -43.5t-41.5 -18z" />
    <glyph glyph-name="perthousand" unicode="&#x2030;" horiz-adv-x="988" 
d="M103 -11q-8 5 -3 13l468 719q5 8 13 3l14 -8q8 -5 2 -13l-468 -719q-5 -8 -13 -3zM184 420q-33 0 -61 18t-45 52.5t-17 78.5q0 68 36 109.5t87 41.5q34 0 61.5 -18t44.5 -53t17 -80q0 -66 -35.5 -107.5t-87.5 -41.5zM184 465q32 0 53 28.5t21 75.5q0 49 -20.5 77.5
t-53.5 28.5q-32 0 -52.5 -28.5t-20.5 -77.5q0 -47 20.5 -75.5t52.5 -28.5zM505 -10q-51 0 -87 41.5t-36 107.5q0 68 36 109.5t87 41.5q52 0 87.5 -41.5t35.5 -109.5q0 -66 -35.5 -107.5t-87.5 -41.5zM805 -10q-52 0 -88 41.5t-36 107.5q0 68 36 109.5t88 41.5
q51 0 86.5 -41.5t35.5 -109.5q0 -66 -35.5 -107.5t-86.5 -41.5zM505 35q21 0 38 13t26.5 36.5t9.5 54.5q0 49 -20.5 77.5t-53.5 28.5q-32 0 -52.5 -28.5t-20.5 -77.5q0 -31 9.5 -54.5t26 -36.5t37.5 -13zM804 35q32 0 53 29t21 75q0 49 -20.5 77.5t-52.5 28.5
q-33 0 -53.5 -28.5t-20.5 -77.5q0 -46 20.5 -75t52.5 -29z" />
    <glyph glyph-name="guilsinglleft" unicode="&#x2039;" horiz-adv-x="361" 
d="M246 46q-6 -8 -12 0l-177 206q-3 3 -3 7q0 3 4 7l175 193q7 7 13 0l27 -27q7 -6 0 -14l-135 -159l136 -167q3 -3 3 -7q0 -3 -4 -7z" />
    <glyph glyph-name="guilsinglright" unicode="&#x203a;" horiz-adv-x="361" 
d="M127 46q-6 -8 -13 0l-27 32q-3 4 -3 7.5t3 7.5l136 166l-136 160q-3 3 -3 6q0 4 4 8l27 26q6 7 13 0l175 -193q7 -7 0 -14z" />
    <glyph glyph-name="fraction" unicode="&#x2044;" horiz-adv-x="115" 
d="M-195 -11q-8 5 -3 13l468 719q5 8 13 3l14 -8q8 -5 2 -13l-468 -719q-5 -8 -13 -3z" />
    <glyph glyph-name="euro" unicode="&#x20ac;" horiz-adv-x="585" 
d="M528 90q9 4 9 -5v-54q0 -9 -9 -13q-67 -28 -142 -28q-71 0 -131.5 32t-103.5 93t-59 144h-60q-9 0 -9 9v32q0 9 9 9h53q-3 24 -3 49q0 19 2 38h-52q-9 0 -9 10v32q0 10 9 10h58q24 125 107 198.5t194 73.5q65 0 128 -25q8 -4 8 -14v-53q0 -9 -8 -5q-53 27 -118 27
q-56 0 -104 -24.5t-81.5 -70t-47.5 -107.5h326q10 0 10 -10v-33q0 -9 -10 -9h-334q-2 -18 -2 -38q0 -25 3 -49h333q10 0 10 -9v-32q0 -9 -10 -9h-324q22 -94 84.5 -146t146.5 -52q66 0 127 29z" />
    <glyph glyph-name="trademark" unicode="&#x2122;" horiz-adv-x="744" 
d="M709 370v-3q0 -5 -7 -5h-41q-8 0 -10 8l-43 267l-93 -257q-3 -8 -11 -8h-22q-8 0 -11 8l-93 251l-47 -261q-1 -8 -10 -8h-37q-8 0 -6 8l63 332q1 8 10 8h40q8 0 11 -8l93 -258l91 258q3 8 11 8h37q8 0 10 -8zM277 701v-30q0 -8 -8 -8h-94v-293q0 -8 -8 -8h-39q-9 0 -9 8
v293h-93q-9 0 -9 8v30q0 8 9 8h243q8 0 8 -8z" />
    <glyph glyph-name="oneeighth" unicode="&#x215b;" horiz-adv-x="845" 
d="M659 716q8 -5 3 -13l-468 -719q-6 -8 -14 -3l-13 8q-8 5 -3 13l468 719q5 8 14 3zM177 304v348l-110 -43q-3 -1 -5 -1q-4 0 -4 7v30q0 9 9 13l124 53q8 3 16 3h15q9 0 9 -10v-400q0 -10 -10 -10h-35q-9 0 -9 10zM720 223q38 -10 63 -38.5t25 -67.5q0 -37 -20 -65
t-53 -42.5t-73 -14.5q-62 0 -104.5 33.5t-42.5 88.5q0 26 12.5 48.5t32 37t43.5 20.5q-22 9 -37.5 22.5t-24 32.5t-8.5 41q0 32 17 56.5t46.5 37.5t65.5 13q55 0 91.5 -29.5t36.5 -77.5q0 -33 -18.5 -58t-51.5 -38zM580 314q0 -32 22.5 -53t59.5 -21q36 0 58.5 21t22.5 53
t-23 52t-58 20t-58.5 -20t-23.5 -52zM662 36q27 0 49 10.5t34.5 30t12.5 43.5q0 35 -28.5 58.5t-67.5 23.5t-67.5 -23.5t-28.5 -58.5q0 -24 12.5 -43.5t34.5 -30t49 -10.5z" />
    <glyph glyph-name="threeeighths" unicode="&#x215c;" horiz-adv-x="839" 
d="M653 716q8 -5 3 -13l-468 -719q-5 -8 -14 -3l-13 8q-8 5 -3 13l468 719q5 8 14 3zM314 413q0 -55 -45 -90t-115 -35q-59 0 -103 18q-8 3 -8 13v28q0 9 9 5q45 -18 94 -18q48 0 78 23t30 58.5t-34 57t-95 21.5h-13q-10 0 -10 9v23q0 10 10 10h11q37 0 64 11t39 27.5
t12 35.5q0 29 -26 48t-68 19q-44 0 -84 -19q-8 -3 -8 6v26q0 10 9 13q42 17 92 17q64 0 102.5 -28t38.5 -71q0 -34 -24.5 -62t-70.5 -39q55 -9 85 -37.5t30 -69.5zM714 223q25 -6 44.5 -20.5t31.5 -37t12 -48.5q0 -55 -42 -88.5t-104 -33.5t-104.5 33.5t-42.5 88.5
q0 26 12.5 48.5t32 37t43.5 20.5q-22 9 -37.5 22.5t-23.5 32.5t-8 41q0 32 17 56.5t46 37.5t65 13q27 0 50.5 -8t40.5 -21.5t27 -33.5t10 -44q0 -33 -18.5 -58t-51.5 -38zM574 314q0 -32 22.5 -53t59.5 -21t59 21t22 53t-23 52t-58 20t-58.5 -20t-23.5 -52zM656 36
q27 0 49 10.5t34.5 30t12.5 43.5q0 35 -28.5 58.5t-67.5 23.5t-67.5 -23.5t-28.5 -58.5q0 -24 12.5 -43.5t34.5 -30t49 -10.5z" />
    <glyph glyph-name="fiveeighths" unicode="&#x215d;" horiz-adv-x="851" 
d="M665 716q8 -5 2 -13l-468 -719q-5 -8 -13 -3l-13 8q-8 5 -3 13l468 719q5 8 14 3zM317 431q0 -64 -48.5 -103.5t-118.5 -39.5q-50 0 -86 17q-8 4 -8 14v27q0 9 8 5q38 -16 76 -16q52 0 85 26.5t33 68.5q0 40 -30 65t-78 25q-41 0 -78 -18q-4 -2 -6 -1t-1 7l35 197
q1 9 11 9h177q9 0 9 -10v-26q0 -10 -10 -10h-146l-20 -112q23 5 49 5q64 0 105.5 -35t41.5 -95zM726 223q25 -6 44.5 -20.5t31.5 -37t12 -48.5q0 -55 -42 -88.5t-104 -33.5t-104.5 33.5t-42.5 88.5q0 26 12 48.5t32 37t44 20.5q-33 13 -51.5 38t-18.5 58q0 32 17 56
t46.5 37.5t65.5 13.5q27 0 50.5 -8t40.5 -21.5t27 -33.5t10 -44q0 -33 -18.5 -58t-51.5 -38zM586 314q0 -32 22.5 -53t59.5 -21q36 0 58.5 21t22.5 53t-23.5 52t-58 20t-58 -20t-23.5 -52zM668 36q27 0 49 10.5t34.5 30t12.5 43.5q0 35 -28.5 58.5t-67.5 23.5
q-40 0 -68 -23.5t-28 -58.5q0 -24 12.5 -43.5t34.5 -30t49 -10.5z" />
    <glyph glyph-name="seveneighths" unicode="&#x215e;" horiz-adv-x="788" 
d="M602 716q8 -5 3 -13l-468 -719q-5 -8 -14 -3l-13 8q-8 5 -3 13l468 719q6 8 14 3zM118 302q-4 -8 -14 -8h-38q-9 0 -4 9l188 362h-193q-9 0 -9 10v30q0 9 9 9h261q9 0 5 -9zM663 223q25 -6 44.5 -20.5t31.5 -37t12 -48.5q0 -37 -20 -65t-52.5 -42.5t-73 -14.5t-73.5 14.5
t-53.5 42.5t-20.5 65q0 39 25 67.5t63 38.5q-16 6 -29 15.5t-22 22t-13.5 27.5t-4.5 31q0 32 17 56t46 37.5t65 13.5q27 0 50.5 -8t40.5 -21.5t27 -33.5t10 -44q0 -33 -18.5 -58t-51.5 -38zM523 314q0 -32 22.5 -53t59.5 -21t59 21t22 53t-23 52t-57.5 20t-58.5 -20t-24 -52
zM605 36q27 0 49 10.5t34.5 30t12.5 43.5q0 35 -28.5 58.5t-67.5 23.5t-67.5 -23.5t-28.5 -58.5q0 -24 12.5 -43.5t34.5 -30t49 -10.5z" />
    <glyph glyph-name="partialdiff" unicode="&#x2202;" horiz-adv-x="582" 
d="M226 720q149 0 225.5 -103t76.5 -287q0 -151 -66.5 -245t-187.5 -94q-93 0 -158 61t-65 163q0 105 72 173.5t183 68.5q86 0 146 -31q-17 112 -74.5 172t-154.5 60q-62 0 -110 -15q-2 -1 -4 -1q-5 0 -5 8v45q0 9 9 12q51 13 113 13zM276 56q89 0 136 73t47 195q0 18 -1 35
q-57 35 -137 35q-58 0 -103.5 -24t-70 -64.5t-24.5 -90.5q0 -46 20.5 -82.5t55.5 -56.5t77 -20z" />
    <glyph glyph-name="product" unicode="&#x220f;" horiz-adv-x="736" 
d="M637 710q9 0 9 -10v-48q0 -9 -9 -9h-100v-756q0 -9 -10 -9h-65q-9 0 -9 9v756h-212v-756q0 -9 -10 -9h-62q-9 0 -9 9v756h-98q-1 0 -1 1v57q0 9 10 9h566z" />
    <glyph glyph-name="summation" unicode="&#x2211;" horiz-adv-x="550" 
d="M483 -59q9 0 9 -9v-46q0 -9 -9 -9h-415q-9 0 -9 10v27q0 9 6 17l292 370l-293 356q-5 7 -5 15v29q0 9 9 9h412q10 0 10 -10v-45q0 -9 -10 -9h-322l272 -330q6 -8 6 -16t-7 -16l-272 -343h326z" />
    <glyph glyph-name="minus" unicode="&#x2212;" horiz-adv-x="561" 
d="M48 267q-9 0 -9 10v43q0 9 9 9h465q9 0 9 -9v-44q0 -9 -10 -9h-464z" />
    <glyph glyph-name="radical" unicode="&#x221a;" horiz-adv-x="580" 
d="M535 710q10 0 7 -9l-285 -822q-3 -9 -13 -9h-25q-10 0 -14 9l-191 436q-2 6 -2 9q0 10 16 10h41q10 0 13 -9l148 -355l242 732q3 9 12 9z" />
    <glyph glyph-name="infinity" unicode="&#x221e;" horiz-adv-x="893" 
d="M658 490q75 0 124.5 -54t49.5 -140q0 -57 -23 -101.5t-62 -68t-87 -23.5q-35 0 -66.5 12.5t-58.5 35.5t-46.5 44.5t-41.5 50.5q-50 -67 -100 -105t-109 -38q-49 0 -89.5 24.5t-64 68t-23.5 96.5q0 82 53 140t128 58q31 0 60.5 -12t55 -35t44 -45t40.5 -53q23 31 42.5 53
t47 45t59 35t67.5 12zM238 165q43 0 83.5 34t85.5 97q-48 65 -86 98.5t-82 33.5q-46 0 -80.5 -39t-34.5 -94q0 -54 34 -92t80 -38zM661 165q47 0 77.5 34t30.5 93q0 40 -15 71.5t-40.5 48t-57.5 16.5q-47 0 -88 -36t-86 -99q31 -40 55 -65t57.5 -44t66.5 -19z" />
    <glyph glyph-name="integral" unicode="&#x222b;" horiz-adv-x="479" 
d="M39 -209q-47 0 -82 11q-8 3 -8 13v47q0 9 8 6q27 -11 63 -11q72 0 91 103l113 635q14 84 50.5 124t101.5 40q46 0 84 -16q9 -3 9 -13v-36q0 -14 -8 -14q-4 0 -11 3q-24 10 -55 10q-73 0 -91 -104l-114 -634q-14 -85 -50.5 -124.5t-100.5 -39.5z" />
    <glyph glyph-name="approxequal" unicode="&#x2248;" horiz-adv-x="600" 
d="M364 339q-22 0 -42.5 9t-32 18t-29.5 27q-16 16 -25 23.5t-26 15.5t-34 8q-33 0 -52 -24.5t-22 -66.5q-1 -10 -10 -10h-33q-10 0 -9 10q3 68 34 111t85 43q24 0 46.5 -9t34.5 -19t30 -28q16 -15 25 -22.5t24 -15t32 -7.5q29 0 46.5 23.5t19.5 61.5q0 10 10 10h33
q10 0 10 -10q-2 -43 -16.5 -76.5t-40 -52.5t-58.5 -19zM364 137q-22 0 -42.5 9t-32 18.5t-29.5 26.5q-12 12 -18.5 18t-18 14t-23.5 11.5t-25 3.5q-33 0 -52 -24.5t-22 -66.5q-1 -9 -10 -9h-33q-10 0 -9 10q3 67 34 110.5t85 43.5q24 0 46.5 -9.5t34.5 -19t30 -27.5
q16 -15 25 -23t24.5 -15t31.5 -7q29 0 46.5 23.5t19.5 61.5q0 9 10 9h33q10 0 10 -10q-3 -65 -34 -106.5t-81 -41.5z" />
    <glyph glyph-name="notequal" unicode="&#x2260;" horiz-adv-x="561" 
d="M512 363h-192l-65 -136h258q9 0 9 -10v-43q0 -10 -10 -10h-286l-51 -108q-4 -8 -14 -8h-24q-9 0 -5 9l51 107h-135q-9 0 -9 10v43q0 10 9 10h165l65 136h-230q-9 0 -9 10v43q0 10 9 10h259l54 114q4 8 14 8h23q10 0 6 -9l-54 -113h163q9 0 9 -10v-43q0 -10 -10 -10z" />
    <glyph glyph-name="lessequal" unicode="&#x2264;" horiz-adv-x="561" 
d="M523 114q0 -10 -9 -5l-467 236q-9 4 -9 14v28l476 241q9 4 9 -6v-57q0 -9 -9 -13l-361 -179q-8 -4 1 -9l360 -179q9 -4 9 -13v-58zM523 11q0 -9 -10 -9h-465q-9 0 -9 10v43q0 9 10 9h464q10 0 10 -9v-44z" />
    <glyph glyph-name="greaterequal" unicode="&#x2265;" horiz-adv-x="561" 
d="M47 109q-8 -5 -8 5v58q0 9 8 14l361 178q8 5 0 9l-361 179q-8 4 -8 14v57q0 9 8 5l476 -241v-28q0 -10 -9 -14zM48 2q-9 0 -9 10v43q0 9 9 9h465q9 0 9 -9v-44q0 -9 -9 -9h-465z" />
    <glyph glyph-name="lozenge" unicode="&#x25ca;" horiz-adv-x="561" 
d="M277 -53q-9 0 -14 9l-216 383q-2 4 -2 8t3 9l215 383q5 8 14 8h13q9 0 14 -8l209 -384q2 -4 2 -8t-2 -8l-209 -384q-5 -8 -14 -8h-13zM284 28l174 319l-174 320l-181 -320z" />
    <glyph glyph-name="apple" unicode="&#xf8ff;" horiz-adv-x="999" 
d="M499 -140q-135 0 -250 67t-182 182t-67 251q0 206 146.5 352.5t352.5 146.5q135 0 250.5 -67t182.5 -182t67 -250q0 -136 -67 -251t-182.5 -182t-250.5 -67zM499 109q205 0 341 15q26 2 37.5 11t14.5 33q5 63 5 192q0 128 -5 191q-3 24 -14.5 33t-37.5 11
q-136 15 -341 15t-342 -15q-25 -2 -36.5 -11t-14.5 -33q-6 -63 -6 -191q0 -129 6 -192q3 -24 14.5 -33t36.5 -11q137 -15 342 -15zM499 157q-85 0 -143.5 59.5t-58.5 143.5q0 83 58.5 142.5t143.5 59.5t143.5 -59.5t58.5 -142.5q0 -84 -58.5 -143.5t-143.5 -59.5z" />
    <glyph glyph-name="a.ss01" horiz-adv-x="504" 
d="M224 490q207 0 207 -186v-295q0 -9 -9 -9h-50q-10 0 -10 10q-2 49 -2 75l-2 1q-26 -46 -71 -70.5t-95 -24.5q-69 0 -113.5 37t-44.5 98q0 79 63 121.5t162 42.5q51 0 95 -5v23q0 55 -37 82t-105 27q-67 0 -126 -25q-6 -3 -10 -3q-9 0 -9 16v43q0 9 9 13q68 29 148 29z
M203 62q27 0 53 10t48 28t36 47t14 65v13q-37 4 -82 4q-73 0 -115.5 -23.5t-42.5 -69.5q0 -35 25 -54.5t64 -19.5z" />
    <glyph glyph-name="aacute.ss01" horiz-adv-x="502" 
d="M196 558q-10 0 -5 9l105 195q4 8 13 5l59 -19q9 -3 3 -11l-123 -171q-6 -8 -15 -8h-37zM224 490q207 0 207 -186v-295q0 -9 -9 -9h-50q-10 0 -10 10q-2 49 -2 75l-2 1q-26 -46 -71 -70.5t-95 -24.5q-69 0 -113.5 37t-44.5 98q0 79 63 121.5t162 42.5q51 0 95 -5v23
q0 55 -37 82t-105 27q-67 0 -126 -25q-6 -3 -10 -3q-9 0 -9 16v43q0 9 9 13q68 29 148 29zM203 62q26 0 52.5 10t48.5 28t36 47t14 65v13q-37 4 -82 4q-73 0 -115.5 -23.5t-42.5 -69.5q0 -35 25 -54.5t64 -19.5z" />
    <glyph glyph-name="acircumflex.ss01" horiz-adv-x="502" 
d="M107 559q-9 0 -4 8l110 174q5 7 13 7h37q8 0 13 -7l110 -174q4 -8 -5 -8h-40q-8 0 -13 7l-83 122l-84 -122q-4 -7 -13 -7h-41zM224 490q207 0 207 -186v-295q0 -9 -9 -9h-50q-10 0 -10 10q-2 49 -2 75l-2 1q-26 -46 -71 -70.5t-95 -24.5q-69 0 -113.5 37t-44.5 98
q0 79 63 121.5t162 42.5q51 0 95 -5v23q0 55 -37 82t-106 27q-66 0 -125 -25q-6 -3 -10 -3q-9 0 -9 16v43q0 9 9 13q68 29 148 29zM203 62q58 0 104.5 40t46.5 110v13q-37 4 -82 4q-73 0 -115.5 -23.5t-42.5 -69.5q0 -35 25 -54.5t64 -19.5z" />
    <glyph glyph-name="adieresis.ss01" horiz-adv-x="502" 
d="M169 633q-13 0 -23 6t-15 16.5t-5 22.5q0 19 12 32t31 13q18 0 30.5 -13t12.5 -32t-12.5 -32t-30.5 -13zM319 633q-19 0 -31 13t-12 32q0 12 5.5 22.5t15.5 16.5t22 6q19 0 31 -13t12 -32t-12 -32t-31 -13zM224 490q207 0 207 -186v-295q0 -9 -9 -9h-50q-10 0 -10 10
q-2 49 -2 75l-2 1q-26 -46 -71 -70.5t-95 -24.5q-69 0 -113.5 37t-44.5 98q0 79 63 121.5t162 42.5q51 0 95 -5v23q0 55 -37 82t-105 27q-67 0 -126 -25q-6 -3 -10 -3q-9 0 -9 16v43q0 9 9 13q68 29 148 29zM203 62q27 0 53 10t48 28t36 47t14 65v13q-37 4 -82 4
q-73 0 -115.5 -23.5t-42.5 -69.5q0 -35 25 -54.5t64 -19.5z" />
    <glyph glyph-name="agrave.ss01" horiz-adv-x="502" 
d="M211 566l-123 171q-2 3 -2 6t5 5l59 19q3 1 5 1q5 0 9 -6l104 -195q5 -9 -5 -9h-37q-9 0 -15 8zM224 490q207 0 207 -186v-295q0 -9 -9 -9h-50q-10 0 -10 10q-2 49 -2 75l-2 1q-26 -46 -71 -70.5t-95 -24.5q-69 0 -113.5 37t-44.5 98q0 79 63 121.5t162 42.5q51 0 95 -5
v23q0 55 -37 82t-105 27q-67 0 -126 -25q-6 -3 -10 -3q-9 0 -9 16v43q0 9 9 13q68 29 148 29zM203 62q58 0 104.5 40t46.5 110v13q-37 4 -82 4q-73 0 -115.5 -23.5t-42.5 -69.5q0 -35 25 -54.5t64 -19.5z" />
    <glyph glyph-name="aring.ss01" horiz-adv-x="502" 
d="M244 564q-25 0 -46 12t-33.5 33.5t-12.5 47.5q0 39 27 64t65 25t65 -25t27 -64q0 -40 -27 -66.5t-65 -26.5zM244 712q-23 0 -38 -15.5t-15 -39.5q0 -25 15 -41t38 -16t38 16t15 41q0 16 -7 28.5t-19 19.5t-27 7zM224 490q207 0 207 -186v-295q0 -9 -9 -9h-50
q-10 0 -10 10q-2 49 -2 75l-2 1q-26 -46 -71 -70.5t-95 -24.5q-69 0 -113.5 37t-44.5 98q0 79 63 121.5t162 42.5q51 0 95 -5v23q0 55 -37 82t-105 27q-67 0 -126 -25q-6 -3 -10 -3q-9 0 -9 16v43q0 9 9 13q68 29 148 29zM203 62q58 0 104.5 40t46.5 110v13q-37 4 -82 4
q-73 0 -115.5 -23.5t-42.5 -69.5q0 -35 25 -54.5t64 -19.5z" />
    <glyph glyph-name="atilde.ss01" horiz-adv-x="502" 
d="M95 586q-2 0 -3.5 1t-1.5 4q2 56 26 92.5t66 36.5q16 0 31 -7t23 -13.5t21 -19.5l12 -12t11 -9t13.5 -7.5t14.5 -2.5q19 0 30.5 16.5t12.5 44.5q0 5 5 5h36q3 0 4.5 -1t1.5 -4q-2 -53 -25.5 -87.5t-61.5 -34.5q-15 0 -30 7t-23 13.5t-21 18.5q-8 8 -12.5 12t-12 9.5
t-14.5 7.5t-15 2q-21 0 -33.5 -17.5t-13.5 -49.5q0 -5 -5 -5h-36zM224 490q207 0 207 -186v-295q0 -9 -9 -9h-50q-10 0 -10 10q-2 49 -2 75l-2 1q-26 -46 -71 -70.5t-95 -24.5q-69 0 -113.5 37t-44.5 98q0 79 63 121.5t162 42.5q51 0 95 -5v23q0 54 -37 81.5t-105 27.5
q-67 0 -126 -25q-6 -3 -10 -3q-9 0 -9 16v43q0 9 9 13q68 29 148 29zM203 62q27 0 53 10t48 27.5t36 47t14 65.5v13q-37 4 -82 4q-73 0 -115.5 -23.5t-42.5 -69.5q0 -35 25 -54.5t64 -19.5z" />
    <glyph glyph-name="l.ss02" horiz-adv-x="232" 
d="M85 0q-9 0 -9 10v729q0 9 10 9h60q10 0 10 -9v-730q0 -9 -10 -9h-61z" />
    <glyph glyph-name="lslash.ss02" horiz-adv-x="232" 
d="M212 478q3 1 5 1q4 0 4 -7v-28q0 -9 -9 -13l-56 -22v-400q0 -9 -10 -9h-61q-9 0 -9 10v368l-57 -23q-2 -1 -4 -1q-5 0 -5 8v27q0 9 9 13l57 22v315q0 9 10 9h60q10 0 10 -9v-283z" />
    <glyph glyph-name="fl.ss02" horiz-adv-x="583" 
d="M348 744q9 -4 9 -14v-36q0 -13 -8 -13q-4 0 -11 2q-24 10 -54 10q-87 0 -87 -97v-116h142q10 0 10 -10v-39q0 -9 -10 -9h-142v-413q0 -9 -10 -9h-61q-9 0 -9 10v412h-80q-9 0 -9 10v39q0 9 9 9h80v120q0 80 38 119.5t110 39.5q48 0 83 -15zM498 748q9 0 9 -9v-730
q0 -9 -9 -9h-61q-9 0 -9 10v729q0 9 9 9h61z" />
    <glyph glyph-name="ordfeminine.ss01" horiz-adv-x="379" 
d="M171 589q16 1 35 1q21 0 40 -1v10q0 74 -90 74q-43 0 -82 -19q-7 -4 -7 4v33q0 9 8 12q46 17 98 17q69 0 102.5 -30t33.5 -95v-176q0 -8 -9 -8h-39q-8 0 -9 8q-1 20 -1 41v1q-34 -56 -104 -56q-29 0 -51.5 10t-36 30t-13.5 47q0 43 34.5 69t90.5 28zM163 450
q31 0 57 21.5t26 61.5v21q-33 2 -55 1q-40 -1 -62.5 -16t-22.5 -42q0 -12 4.5 -21t12 -14.5t18 -8.5t22.5 -3zM315 340q4 0 4 -4v-33q0 -4 -5 -4h-263q-4 0 -4 5v32q0 4 4 4h264z" />
    <glyph glyph-name="zero.tf" horiz-adv-x="585" 
d="M292 -10q-51 0 -95 23t-77 67t-52 114t-19 159q0 174 69 270.5t175 96.5q105 0 174 -97t69 -270.5t-68.5 -268t-175.5 -94.5zM293 65q75 0 119.5 73t44.5 215q0 95 -21 161.5t-57.5 99t-85.5 32.5t-85.5 -32t-58 -99t-21.5 -162q0 -142 45 -215t120 -73z" />
    <glyph glyph-name="one.tf" horiz-adv-x="585" 
d="M366 710q10 0 10 -9v-692q0 -9 -10 -9h-61q-9 0 -9 10v611l-182 -71q-5 -2 -9 -2q-10 0 -10 16v37q0 10 9 13l227 93q9 3 19 3h16z" />
    <glyph glyph-name="two.tf" horiz-adv-x="585" 
d="M503 69q9 0 9 -10v-50q0 -9 -9 -9h-441q-13 0 -13 6q0 4 6 11l237 296q30 37 44 56t31.5 47t24.5 52.5t7 50.5q0 28 -12 52.5t-33.5 42t-53 27.5t-67.5 10q-83 0 -156 -44q-8 -5 -8 5v51q0 10 8 15q74 42 176 42q103 0 166 -51.5t63 -136.5q0 -59 -27.5 -110.5
t-84.5 -122.5l-188 -230h321z" />
    <glyph glyph-name="three.tf" horiz-adv-x="585" 
d="M324 381q91 -14 141.5 -63t50.5 -120q0 -89 -73 -148.5t-186 -59.5q-101 0 -174 33q-9 4 -9 14v50q0 10 9 6q76 -35 163 -35q81 0 132 41t51 104t-58 101t-162 38h-26q-9 0 -9 9v44q0 9 9 9h23q94 0 145 39.5t51 94.5q0 51 -44 84t-117 33q-74 0 -143 -35q-9 -4 -9 5v50
q0 9 9 13q74 32 156 32q104 0 166 -47.5t62 -120.5q0 -58 -41 -105t-117 -66z" />
    <glyph glyph-name="four.tf" horiz-adv-x="585" 
d="M526 200q10 0 10 -9v-48q0 -9 -10 -9h-84v-125q0 -9 -10 -9h-60q-9 0 -9 10v124h-322q-9 0 -9 10v41q0 9 5 17l328 500q5 8 14 8h54q9 0 9 -10v-500h84zM367 596q-25 -46 -52 -88l-204 -307l253 -1v295q0 52 3 101z" />
    <glyph glyph-name="five.tf" horiz-adv-x="585" 
d="M268 449q104 0 171.5 -59t67.5 -160q0 -107 -78.5 -173.5t-194.5 -66.5q-83 0 -143 31q-8 4 -8 14v49q0 10 8 5q64 -30 132 -30q87 0 143 47.5t56 121.5q0 72 -51 116.5t-131 44.5q-73 0 -135 -33q-4 -2 -5.5 -1t-1.5 6l59 340q2 9 12 9h297q9 0 9 -10v-49q0 -9 -10 -9
h-248l-37 -203q40 10 88 10z" />
    <glyph glyph-name="six.tf" horiz-adv-x="585" 
d="M303 433q93 0 154 -61t61 -156q0 -97 -69 -161.5t-165 -64.5q-99 0 -165 63t-66 159q0 106 75 205l222 286q5 7 15 7h60q10 0 4 -8l-187 -232q-23 -35 -64 -86q54 49 125 49zM285 56q43 0 80 21t59 58t22 80q0 72 -46 116.5t-117 44.5q-67 0 -112.5 -47.5t-45.5 -117.5
q0 -65 46 -110t114 -45z" />
    <glyph glyph-name="seven.tf" horiz-adv-x="585" 
d="M524 710q10 0 6 -9l-344 -693q-4 -8 -14 -8h-64q-9 0 -5 9l318 629h-329q-10 0 -10 9v54q0 9 10 9h432z" />
    <glyph glyph-name="eight.tf" horiz-adv-x="585" 
d="M293 -9q-48 0 -91.5 15t-75.5 41t-51 65.5t-19 86.5q0 64 40 113t100 66q-52 20 -81.5 62t-29.5 96q0 79 60 131.5t148.5 52.5t148 -52.5t59.5 -131.5q0 -54 -29.5 -96t-81.5 -62q60 -18 100.5 -66.5t40.5 -111.5q0 -94 -68.5 -151.5t-169.5 -57.5zM293 405q59 0 96.5 36
t37.5 89q0 35 -18 63.5t-48.5 44.5t-67.5 16q-56 0 -95 -35.5t-39 -88.5t37 -89t97 -36zM293 59q67 0 112 41t45 102t-46 101t-111 40q-42 0 -78 -17.5t-57.5 -50.5t-21.5 -73q0 -61 45 -102t112 -41z" />
    <glyph glyph-name="nine.tf" horiz-adv-x="585" 
d="M289 720q99 0 165 -63t66 -159q0 -106 -76 -205l-221 -286q-6 -7 -16 -7h-60q-10 0 -3 8l187 232q23 35 63 86q-53 -49 -125 -49q-30 0 -58 7.5t-52 20.5t-43 32.5t-32.5 43.5t-21 52.5t-7.5 60.5q0 97 69 161.5t165 64.5zM289 334q67 0 113 47.5t46 117.5q0 43 -21 78.5
t-58 56t-82 20.5q-66 0 -113.5 -46.5t-47.5 -112.5q0 -72 46 -116.5t117 -44.5z" />
    <glyph glyph-name="zero.dnom" horiz-adv-x="368" 
d="M184.5 -6q-65.5 0 -107.5 55.5t-42 159t42.5 160.5t107.5 57t107 -57t42 -160t-42 -159t-107.5 -56zM185 43q46 0 73 42t27 123.5t-27 125.5t-73 44q-45 0 -72.5 -44t-27.5 -125q0 -82 27 -124t73 -42z" />
    <glyph glyph-name="one.dnom" horiz-adv-x="354" 
d="M222 420q9 0 9 -10v-401q0 -9 -10 -9h-35q-9 0 -9 10v348l-110 -43q-3 -1 -5 -1q-4 0 -4 7v30q0 9 9 13l124 53q8 3 16 3h15z" />
    <glyph glyph-name="two.dnom" horiz-adv-x="369" 
d="M310 46q9 0 9 -10v-27q0 -9 -9 -9h-270q-9 0 -3 7l145 176q23 28 34 43t20.5 36t9.5 40q0 34 -27 55.5t-71 21.5q-48 0 -92 -27q-7 -4 -7 5v30q0 10 8 14q46 25 105 25q62 0 100.5 -30.5t38.5 -80.5q0 -25 -9 -49t-22 -43t-36 -47l-111 -130h187z" />
    <glyph glyph-name="three.dnom" horiz-adv-x="356" 
d="M199 225q37 -5 63 -20.5t39 -37.5t13 -49q0 -54 -45 -89t-115 -35q-59 0 -103 18q-8 3 -8 13v28q0 9 9 5q45 -18 94 -18q48 0 78 23t30 58.5t-34 57t-95 21.5h-13q-10 0 -10 9v23q0 10 10 10h11q56 0 85.5 21.5t29.5 52.5q0 29 -26 47.5t-68 18.5q-44 0 -84 -18
q-8 -4 -8 6v26q0 10 9 13q42 17 92 17q64 0 102.5 -28t38.5 -71q0 -35 -24.5 -62.5t-70.5 -39.5z" />
    <glyph glyph-name="four.dnom" horiz-adv-x="350" 
d="M321 119q9 0 9 -9v-24q0 -9 -10 -9h-48v-68q0 -9 -10 -9h-32q-10 0 -10 10v67h-192q-8 0 -8 8v25q0 8 4 15l195 288q5 7 13 7h30q10 0 10 -10v-291h49zM222 342l-154 -223h154v223z" />
    <glyph glyph-name="five.dnom" horiz-adv-x="368" 
d="M170 267q64 0 105.5 -35t41.5 -96q0 -63 -48.5 -102.5t-118.5 -39.5q-50 0 -86 17q-8 3 -8 13v27q0 10 8 6q38 -16 76 -16q52 0 85 26.5t33 68.5q0 27 -14 47.5t-38.5 31.5t-55.5 11q-41 0 -78 -18q-4 -2 -6 -1t-1 7l35 197q1 9 11 9h177q9 0 9 -10v-26q0 -10 -10 -10
h-146l-20 -112q23 5 49 5z" />
    <glyph glyph-name="six.dnom" horiz-adv-x="367" 
d="M199 261q57 0 96 -37t39 -94q0 -58 -44 -97t-103 -39q-61 0 -103 36t-42 94q0 32 11.5 63t41.5 73l118 152q5 8 15 8h40q10 0 4 -8l-117 -149q-5 -7 -16 -18q28 16 60 16zM185.5 39q39.5 0 68.5 26t29 63q0 41 -27.5 66t-69.5 25q-40 0 -67 -26.5t-27 -66.5q0 -37 27 -62
t66.5 -25z" />
    <glyph glyph-name="seven.dnom" horiz-adv-x="354" 
d="M318 420q9 0 5 -9l-205 -403q-4 -8 -14 -8h-38q-9 0 -4 9l188 362h-193q-9 0 -9 10v29q0 10 9 10h261z" />
    <glyph glyph-name="eight.dnom" horiz-adv-x="368" 
d="M185 -5q-63 0 -105 33.5t-42 88.5q0 39 25 67.5t63 38.5q-22 9 -37.5 22.5t-24 32.5t-8.5 41q0 48 36.5 77.5t92.5 29.5q36 0 65 -13t45.5 -37.5t16.5 -56.5q0 -33 -18.5 -58t-50.5 -38q38 -10 63 -38.5t25 -67.5q0 -37 -20 -65t-53 -42.5t-73 -14.5zM185 240
q24 0 42.5 9.5t28.5 26.5t10 38q0 32 -23.5 52t-58 20t-58 -20t-23.5 -52t22.5 -53t59.5 -21zM185 36q41 0 68 23.5t27 60.5q0 35 -28 58.5t-67 23.5q-40 0 -68 -23.5t-28 -58.5q0 -24 12.5 -43.5t34 -30t49.5 -10.5z" />
    <glyph glyph-name="nine.dnom" horiz-adv-x="367" 
d="M180 426q29 0 55.5 -9.5t46.5 -26t31.5 -41t11.5 -53.5q0 -32 -11.5 -63.5t-41.5 -72.5l-118 -153q-6 -7 -16 -7h-40q-9 0 -3 8l116 148q6 8 17 19q-28 -16 -61 -16q-57 0 -95.5 37t-38.5 94q0 58 44 97t103 39zM181 201q39 0 66 26.5t27 66.5q0 36 -26.5 61.5
t-66.5 25.5t-68.5 -26t-28.5 -63q0 -41 27 -66t70 -25z" />
    <glyph glyph-name="zero.numr" horiz-adv-x="368" 
d="M184.5 288q-65.5 0 -107.5 56t-42 159.5t42.5 160t107.5 56.5q42 0 75 -24t53.5 -74t20.5 -119q0 -103 -42 -159t-107.5 -56zM185 337q46 0 73 42t27 123.5t-27 125.5t-73 44q-45 0 -72.5 -44t-27.5 -125t27 -123.5t73 -42.5z" />
    <glyph glyph-name="one.numr" horiz-adv-x="354" 
d="M222 714q9 0 9 -10v-400q0 -10 -10 -10h-35q-9 0 -9 10v348l-110 -43q-3 -1 -5 -1q-4 0 -4 7v30q0 9 9 13l124 53q8 3 16 3h15z" />
    <glyph glyph-name="two.numr" horiz-adv-x="369" 
d="M310 340q9 0 9 -10v-26q0 -10 -9 -10h-270q-9 0 -3 7l145 176q23 28 34 43t20.5 36t9.5 40q0 22 -12 39.5t-34.5 27.5t-51.5 10q-48 0 -92 -27q-7 -4 -7 5v30q0 10 8 14q46 25 105 25q62 0 100.5 -30.5t38.5 -80.5q0 -25 -9 -49t-22 -43t-36 -47l-111 -130h187z" />
    <glyph glyph-name="three.numr" horiz-adv-x="356" 
d="M199 520q55 -9 85 -37.5t30 -69.5q0 -55 -45 -90t-115 -35q-59 0 -103 18q-8 3 -8 13v28q0 9 9 5q45 -18 94 -18q48 0 78 23t30 58.5t-34 57t-95 21.5h-13q-10 0 -10 9v23q0 10 10 10h11q37 0 64 11t39 27.5t12 35.5q0 29 -26 48t-68 19q-44 0 -84 -19q-8 -3 -8 6v26
q0 10 9 13q42 17 92 17q64 0 102.5 -28t38.5 -71q0 -34 -24.5 -62t-70.5 -39z" />
    <glyph glyph-name="four.numr" horiz-adv-x="350" 
d="M321 413q9 0 9 -9v-24q0 -9 -10 -9h-48v-68q0 -9 -10 -9h-32q-10 0 -10 10v67h-192q-8 0 -8 8v25q0 9 4 16l195 287q5 7 13 7h30q10 0 10 -10v-291h49zM222 636l-154 -222l154 -1v223z" />
    <glyph glyph-name="five.numr" horiz-adv-x="368" 
d="M170 561q64 0 105.5 -35t41.5 -95q0 -64 -48.5 -103.5t-118.5 -39.5q-50 0 -86 17q-8 4 -8 14v27q0 9 8 5q38 -16 76 -16q52 0 85 26.5t33 68.5q0 40 -30 65t-78 25q-41 0 -78 -18q-4 -2 -6 -1t-1 7l35 197q1 9 11 9h177q9 0 9 -10v-26q0 -10 -10 -10h-146l-20 -112
q23 5 49 5z" />
    <glyph glyph-name="six.numr" horiz-adv-x="367" 
d="M199 555q57 0 96 -37t39 -94q0 -58 -44 -97t-103 -39q-61 0 -103 36t-42 94q0 32 11.5 63.5t41.5 72.5l118 153q5 7 15 7h40q10 0 4 -8l-117 -148q-5 -8 -16 -19q28 16 60 16zM186 333q26 0 48 12t35.5 32.5t13.5 44.5q0 41 -27.5 66t-69.5 25q-26 0 -47.5 -12t-34 -33
t-12.5 -48q0 -36 27 -61.5t67 -25.5z" />
    <glyph glyph-name="seven.numr" horiz-adv-x="354" 
d="M318 714q9 0 5 -9l-205 -403q-4 -8 -14 -8h-38q-9 0 -4 9l188 362h-193q-9 0 -9 10v30q0 9 9 9h261z" />
    <glyph glyph-name="eight.numr" horiz-adv-x="368" 
d="M184.5 289q-62.5 0 -104.5 33.5t-42 88.5q0 39 25 67.5t63 39.5q-33 12 -51.5 37t-18.5 58q0 48 36.5 77.5t92.5 29.5q54 0 90.5 -29.5t36.5 -77.5q0 -33 -18.5 -58t-50.5 -37q38 -11 63 -39.5t25 -67.5q0 -55 -42 -88.5t-104.5 -33.5zM185 534q36 0 58.5 21t22.5 53
t-23.5 52t-58 20t-58 -20t-23.5 -52q0 -16 5.5 -29.5t16 -23.5t26 -15.5t34.5 -5.5zM185 330q41 0 68 24t27 60q0 35 -28 58.5t-67 23.5q-40 0 -68 -23.5t-28 -58.5q0 -37 27 -60.5t69 -23.5z" />
    <glyph glyph-name="nine.numr" horiz-adv-x="367" 
d="M180 720q61 0 103 -36t42 -94q0 -32 -11.5 -63t-41.5 -73l-118 -152q-6 -8 -16 -8h-40q-9 0 -3 8l116 149q6 7 17 18q-28 -16 -61 -16q-57 0 -95.5 37t-38.5 94q0 58 44 97t103 39zM181 495q39 0 66 26.5t27 66.5q0 37 -26.5 62t-66.5 25t-68.5 -26t-28.5 -63
q0 -41 27 -66t70 -25z" />
    <glyph glyph-name="colon.calt" horiz-adv-x="225" 
d="M114 410q-25 0 -41.5 17.5t-16.5 43t16.5 43t41.5 17.5t41 -17.5t16 -43t-16 -43t-41 -17.5zM114 99q-25 0 -41.5 18t-16.5 43t16.5 43t41.5 18t41 -18t16 -43t-16 -43t-41 -18z" />
    <glyph glyph-name="periodcentered.case" horiz-adv-x="230" 
d="M115 296q-26 0 -42.5 18t-16.5 44t16.5 44t42.5 18t42.5 -18t16.5 -44t-16.5 -44t-42.5 -18z" />
    <glyph glyph-name="colon.tf" horiz-adv-x="293" 
d="M147 301q-25 0 -41.5 18t-16.5 43t16.5 43t41.5 18t41 -18t16 -43t-16 -43t-41 -18zM147 -9q-25 0 -41.5 17.5t-16.5 43t16.5 43t41.5 17.5t41 -17.5t16 -43t-16 -43t-41 -17.5z" />
    <glyph glyph-name="comma.tf" horiz-adv-x="293" 
d="M148 116q25 0 43 -17.5t18 -44.5q0 -5 -0.5 -10.5t-2 -11.5t-3 -10.5t-4.5 -12t-4.5 -11t-5 -12t-4.5 -11.5l-52 -115q-4 -8 -12 -8h-17q-8 0 -6 8l39 134q-21 4 -34.5 20t-13.5 39q0 28 17.5 45.5t41.5 17.5z" />
    <glyph glyph-name="period.tf" horiz-adv-x="293" 
d="M146 -7q-25 0 -42 18t-17 43.5t17 43.5t42 18q26 0 42.5 -18t16.5 -43.5t-16.5 -43.5t-42.5 -18z" />
    <glyph glyph-name="semicolon.tf" horiz-adv-x="293" 
d="M145 366q-26 0 -42.5 18t-16.5 44t16.5 44t42.5 18q25 0 41.5 -18t16.5 -44t-16.5 -44t-41.5 -18zM144 110q17 0 30.5 -7.5t22 -22t8.5 -32.5q0 -5 -0.5 -10.5t-2 -11.5t-3 -10.5t-4.5 -12t-4 -11t-5 -12t-5 -11.5l-52 -115q-4 -8 -12 -8h-17q-8 0 -5 8l39 134
q-21 3 -34.5 19.5t-13.5 39.5q0 28 17.5 45.5t40.5 17.5z" />
    <glyph glyph-name="emdash.case" horiz-adv-x="899" 
d="M72 326q-9 0 -9 10v42q0 9 10 9h754q9 0 9 -9v-43q0 -9 -9 -9h-755z" />
    <glyph glyph-name="endash.case" horiz-adv-x="541" 
d="M72 326q-9 0 -9 10v43q0 9 10 9h396q9 0 9 -10v-43q0 -9 -10 -9h-396z" />
    <glyph glyph-name="hyphen.case" horiz-adv-x="409" 
d="M72 326q-9 0 -9 10v43q0 9 10 9h263q10 0 10 -9v-44q0 -9 -10 -9h-264z" />
    <glyph glyph-name="softhyphen.case" horiz-adv-x="409" 
d="M72 326q-9 0 -9 10v43q0 9 10 9h263q10 0 10 -9v-44q0 -9 -10 -9h-264z" />
    <glyph glyph-name="dieresiscomb.case" 
d="M-79 778q-23 0 -38 16t-15 39.5t15 40t38 16.5q16 0 28 -7.5t18.5 -20.5t6.5 -28q0 -24 -15 -40t-38 -16zM88 778q-24 0 -39 16t-15 39.5t15 40t39 16.5q23 0 38 -16.5t15 -40t-15 -39.5t-38 -16z" />
    <glyph glyph-name="dotaccentcomb.case" 
d="M-11 760q-24 0 -39.5 16.5t-15.5 40.5t15.5 40.5t39.5 16.5q23 0 38 -16.5t15 -40.5t-15 -40.5t-38 -16.5z" />
    <glyph glyph-name="gravecomb.case" 
d="M75 772q4 -8 -5 -8h-31q-9 0 -15 7l-102 124q-7 8 3 8h77q9 0 13 -9z" />
    <glyph glyph-name="acutecomb.case" 
d="M-59 762q-9 0 -5 9l60 121q4 9 14 9h77q10 0 3 -8l-103 -124q-6 -7 -16 -7h-30z" />
    <glyph glyph-name="hungarumlautcomb.case" 
d="M24 762q-9 0 -5 9l60 121q4 9 13 9h78q10 0 4 -8l-106 -124q-6 -7 -16 -7h-28zM-105 762q-9 0 -6 9l53 121q3 9 13 9h76q9 0 4 -8l-97 -124q-5 -7 -15 -7h-28z" />
    <glyph glyph-name="circumflexcomb.case" 
d="M141 763q6 -7 -3 -7h-39q-9 0 -15 6l-84 89l-84 -89q-6 -6 -15 -6h-40q-8 0 -3 7l108 130q5 7 13 7h41q8 0 14 -7z" />
    <glyph glyph-name="caroncomb.case" 
d="M136 900q10 0 3 -8l-111 -129q-6 -7 -16 -7h-25q-10 0 -16 8l-111 128q-7 8 3 8h38q9 0 16 -7l84 -85l82 85q7 7 16 7h37z" />
    <glyph glyph-name="brevecomb.case" 
d="M0 755q-51 0 -86 31.5t-40 81.5v1q0 7 8 7h28q8 0 9 -9q4 -30 26 -48.5t55 -18.5q21 0 39 8.5t28.5 24t13.5 35.5q1 8 9 8h28q8 0 8 -8q-5 -50 -40.5 -81.5t-85.5 -31.5z" />
    <glyph glyph-name="ringcomb.case" 
d="M0 743q-39 0 -65.5 26.5t-26.5 66.5q0 39 26.5 64t65.5 25q25 0 46 -11t33.5 -32t12.5 -46q0 -40 -27 -66.5t-65 -26.5zM0 779q15 0 27 7t19 20t7 30q0 23 -15 39t-38 16q-16 0 -28 -7.5t-18.5 -20t-6.5 -27.5q0 -25 15 -41t38 -16z" />
    <glyph glyph-name="tildecomb.case" horiz-adv-x="315" 
d="M96 840q-20 0 -33 -14t-14 -39q-1 -5 -6 -5h-34q-3 0 -4.5 1t-1.5 4q2 50 26 82.5t66 32.5q15 0 30.5 -6.5t22.5 -11.5t21 -17q32 -27 52 -27q19 0 30 14t13 39q0 6 5 6h36q3 0 4 -1.5t1 -4.5q-1 -49 -24.5 -81.5t-61.5 -32.5q-15 0 -30 6t-23 11.5t-21 16.5q-1 1 -5 4.5
t-5 4t-4.5 3.5t-5 4t-5 3t-5.5 3t-5.5 2.5t-6 2t-6 0.5h-6.5z" />
    <glyph glyph-name="macroncomb.case" 
d="M-132 817q-9 0 -9 10v34q0 9 9 9h264q9 0 9 -10v-33q0 -10 -9 -10h-264z" />
    <glyph glyph-name="acutecomb.narrow" 
d="M-20 558q-10 0 -7 9l58 193q3 9 12 6l59 -19q9 -3 5 -11l-77 -169q-3 -9 -13 -9h-37z" />
    </font>
</defs>
</svg>
